<svg xmlns="http://www.w3.org/2000/svg" xmlns:xlink="http://www.w3.org/1999/xlink" width="600" zoomAndPan="magnify" viewBox="0 0 450 299.999988" height="400" preserveAspectRatio="xMidYMid meet" version="1.0"><defs><clipPath id="83a9043a63"><path d="M 383 168 L 403.972656 168 L 403.972656 186 L 383 186 Z M 383 168 " clip-rule="nonzero"/></clipPath><clipPath id="58d92d96a0"><path d="M 46.222656 164 L 81 164 L 81 168 L 46.222656 168 Z M 46.222656 164 " clip-rule="nonzero"/></clipPath></defs><path fill="#232323" d="M 198.082031 239.714844 C 197.671875 239.816406 197.253906 239.84375 196.835938 239.796875 C 196.414062 239.746094 196.015625 239.621094 195.640625 239.425781 C 195.261719 239.230469 194.933594 238.972656 194.652344 238.652344 C 194.371094 238.335938 194.15625 237.980469 194.007812 237.582031 C 193.859375 237.1875 193.785156 236.777344 193.785156 236.351562 C 193.789062 235.925781 193.867188 235.519531 194.019531 235.121094 C 194.171875 234.726562 194.390625 234.371094 194.671875 234.054688 C 194.957031 233.742188 195.285156 233.484375 195.664062 233.292969 C 210.5 225.871094 210.128906 209.214844 210.097656 208.515625 C 210.082031 208.058594 210.152344 207.617188 210.3125 207.1875 C 210.46875 206.753906 210.707031 206.371094 211.015625 206.035156 C 211.328125 205.699219 211.691406 205.4375 212.109375 205.246094 C 212.527344 205.054688 212.960938 204.949219 213.421875 204.933594 C 213.878906 204.914062 214.324219 204.984375 214.753906 205.144531 C 215.183594 205.304688 215.566406 205.539062 215.902344 205.851562 C 216.238281 206.160156 216.5 206.523438 216.691406 206.941406 C 216.882812 207.359375 216.988281 207.796875 217.007812 208.253906 C 217.007812 209.136719 217.640625 230.023438 198.761719 239.480469 C 198.542969 239.582031 198.316406 239.660156 198.082031 239.714844 Z M 198.082031 239.714844 " fill-opacity="1" fill-rule="nonzero"/><path fill="#d6d6d4" d="M 151.273438 242.398438 L 165.414062 274.945312 L 192.296875 263.25 C 192.839844 263.011719 193.375 262.746094 193.894531 262.457031 C 194.414062 262.167969 194.917969 261.855469 195.40625 261.515625 C 195.894531 261.175781 196.363281 260.8125 196.816406 260.429688 C 197.269531 260.042969 197.703125 259.636719 198.117188 259.207031 C 198.53125 258.78125 198.921875 258.332031 199.292969 257.867188 C 199.660156 257.402344 200.003906 256.917969 200.328125 256.417969 C 200.648438 255.917969 200.945312 255.402344 201.214844 254.871094 C 201.488281 254.34375 201.730469 253.800781 201.949219 253.25 C 202.167969 252.695312 202.359375 252.132812 202.519531 251.558594 C 202.683594 250.988281 202.816406 250.410156 202.921875 249.824219 C 203.027344 249.238281 203.105469 248.648438 203.152344 248.054688 C 203.199219 247.464844 203.21875 246.871094 203.207031 246.273438 C 203.195312 245.679688 203.15625 245.085938 203.089844 244.496094 C 203.019531 243.90625 202.921875 243.320312 202.796875 242.738281 C 202.667969 242.15625 202.515625 241.582031 202.332031 241.019531 C 202.148438 240.453125 201.9375 239.894531 201.699219 239.351562 L 194.785156 223.460938 C 194.523438 222.859375 194.207031 222.292969 193.832031 221.757812 C 193.457031 221.222656 193.035156 220.726562 192.5625 220.273438 C 192.09375 219.820312 191.582031 219.417969 191.03125 219.066406 C 190.484375 218.710938 189.902344 218.414062 189.296875 218.175781 C 188.6875 217.9375 188.0625 217.757812 187.417969 217.640625 C 186.777344 217.527344 186.128906 217.472656 185.472656 217.484375 C 184.820312 217.496094 184.175781 217.566406 183.535156 217.707031 C 182.898438 217.84375 182.277344 218.042969 181.675781 218.300781 L 156.417969 229.289062 C 155.820312 229.550781 155.253906 229.871094 154.71875 230.246094 C 154.183594 230.621094 153.6875 231.042969 153.234375 231.515625 C 152.785156 231.984375 152.382812 232.496094 152.027344 233.046875 C 151.675781 233.597656 151.382812 234.175781 151.140625 234.78125 C 150.902344 235.390625 150.726562 236.015625 150.609375 236.660156 C 150.496094 237.300781 150.441406 237.949219 150.453125 238.601562 C 150.464844 239.257812 150.539062 239.902344 150.675781 240.539062 C 150.816406 241.179688 151.011719 241.796875 151.273438 242.398438 Z M 151.273438 242.398438 " fill-opacity="1" fill-rule="nonzero"/><path fill="#0097b2" d="M 165.5 275.101562 L 154.152344 249.015625 C 154.78125 248.742188 155.429688 248.53125 156.097656 248.386719 C 156.769531 248.242188 157.445312 248.160156 158.132812 248.148438 C 158.816406 248.136719 159.496094 248.191406 160.171875 248.3125 C 160.847656 248.4375 161.503906 248.621094 162.140625 248.875 C 162.777344 249.125 163.386719 249.4375 163.960938 249.804688 C 164.539062 250.175781 165.074219 250.601562 165.566406 251.078125 C 166.058594 251.554688 166.5 252.074219 166.890625 252.636719 C 167.28125 253.199219 167.617188 253.792969 167.890625 254.421875 L 175.074219 270.9375 C 175.210938 271.253906 175.316406 271.578125 175.386719 271.910156 C 175.460938 272.246094 175.5 272.585938 175.503906 272.925781 C 175.511719 273.269531 175.484375 273.609375 175.421875 273.945312 C 175.363281 274.285156 175.269531 274.613281 175.144531 274.929688 C 175.019531 275.25 174.863281 275.550781 174.675781 275.839844 C 174.492188 276.128906 174.28125 276.394531 174.042969 276.640625 C 173.804688 276.890625 173.546875 277.109375 173.265625 277.304688 C 172.984375 277.5 172.683594 277.667969 172.371094 277.800781 C 172.058594 277.9375 171.734375 278.042969 171.398438 278.117188 C 171.0625 278.191406 170.722656 278.230469 170.382812 278.234375 C 170.039062 278.242188 169.699219 278.214844 169.363281 278.152344 C 169.027344 278.089844 168.699219 278 168.378906 277.875 C 168.058594 277.746094 167.757812 277.59375 167.46875 277.40625 C 167.179688 277.222656 166.914062 277.011719 166.667969 276.773438 C 166.421875 276.535156 166.199219 276.273438 166.003906 275.992188 C 165.808594 275.710938 165.644531 275.414062 165.507812 275.101562 Z M 165.5 275.101562 " fill-opacity="1" fill-rule="nonzero"/><path fill="#232323" d="M 300.09375 237.679688 C 299.441406 237.714844 298.828125 237.578125 298.253906 237.265625 C 297.679688 236.953125 297.230469 236.511719 296.90625 235.945312 C 286.558594 217.902344 275.199219 208.425781 275.085938 208.332031 C 274.730469 208.039062 274.445312 207.691406 274.230469 207.289062 C 274.015625 206.882812 273.886719 206.453125 273.84375 205.996094 C 273.800781 205.542969 273.84375 205.09375 273.976562 204.65625 C 274.113281 204.21875 274.324219 203.820312 274.617188 203.46875 C 274.90625 203.117188 275.257812 202.832031 275.660156 202.617188 C 276.066406 202.402344 276.496094 202.273438 276.953125 202.226562 C 277.40625 202.183594 277.855469 202.230469 278.292969 202.363281 C 278.730469 202.496094 279.125 202.710938 279.480469 203 C 279.980469 203.414062 291.929688 213.375 302.90625 232.507812 C 303.050781 232.765625 303.164062 233.035156 303.238281 233.320312 C 303.316406 233.601562 303.355469 233.894531 303.359375 234.1875 C 303.359375 234.480469 303.328125 234.773438 303.253906 235.058594 C 303.183594 235.34375 303.078125 235.617188 302.9375 235.875 C 302.796875 236.132812 302.625 236.371094 302.425781 236.585938 C 302.222656 236.800781 302 236.988281 301.75 237.144531 C 301.5 237.304688 301.238281 237.429688 300.957031 237.519531 C 300.675781 237.609375 300.390625 237.664062 300.09375 237.679688 Z M 300.09375 237.679688 " fill-opacity="1" fill-rule="nonzero"/><path fill="#e9e8e4" d="M 342.855469 259.800781 L 318.023438 275.460938 C 317.578125 275.742188 317.117188 276 316.648438 276.238281 C 316.175781 276.472656 315.695312 276.6875 315.199219 276.875 C 314.707031 277.0625 314.207031 277.226562 313.699219 277.367188 C 313.191406 277.507812 312.675781 277.621094 312.15625 277.710938 C 311.636719 277.800781 311.113281 277.863281 310.585938 277.902344 C 310.0625 277.941406 309.535156 277.953125 309.007812 277.9375 C 308.480469 277.921875 307.957031 277.882812 307.433594 277.820312 C 306.910156 277.753906 306.390625 277.660156 305.875 277.546875 C 305.359375 277.429688 304.851562 277.289062 304.351562 277.121094 C 303.851562 276.953125 303.359375 276.765625 302.878906 276.550781 C 302.398438 276.335938 301.925781 276.097656 301.46875 275.835938 C 301.011719 275.574219 300.566406 275.292969 300.132812 274.988281 C 299.703125 274.683594 299.289062 274.359375 298.890625 274.015625 C 298.492188 273.667969 298.109375 273.304688 297.746094 272.921875 C 297.386719 272.539062 297.042969 272.140625 296.71875 271.722656 C 296.394531 271.308594 296.089844 270.875 295.808594 270.429688 L 287.664062 257.511719 C 287.382812 257.066406 287.125 256.609375 286.886719 256.136719 C 286.652344 255.664062 286.4375 255.183594 286.25 254.691406 C 286.058594 254.199219 285.894531 253.699219 285.757812 253.1875 C 285.617188 252.679688 285.5 252.167969 285.414062 251.648438 C 285.324219 251.125 285.261719 250.605469 285.222656 250.078125 C 285.183594 249.550781 285.171875 249.023438 285.1875 248.496094 C 285.199219 247.96875 285.238281 247.445312 285.304688 246.921875 C 285.371094 246.398438 285.460938 245.878906 285.578125 245.363281 C 285.695312 244.851562 285.835938 244.34375 286.003906 243.84375 C 286.167969 243.339844 286.359375 242.851562 286.574219 242.367188 C 286.789062 241.886719 287.027344 241.417969 287.289062 240.957031 C 287.546875 240.5 287.832031 240.054688 288.136719 239.625 C 288.441406 239.195312 288.765625 238.777344 289.109375 238.378906 C 289.453125 237.980469 289.820312 237.601562 290.203125 237.238281 C 290.585938 236.875 290.984375 236.53125 291.398438 236.207031 C 291.816406 235.882812 292.246094 235.582031 292.695312 235.300781 C 293.507812 234.785156 294.34375 234.316406 295.203125 233.882812 C 296.0625 233.453125 296.941406 233.066406 297.839844 232.722656 C 298.738281 232.378906 299.648438 232.078125 300.578125 231.824219 C 301.503906 231.566406 302.441406 231.359375 303.386719 231.195312 C 304.335938 231.035156 305.289062 230.917969 306.25 230.847656 C 307.207031 230.78125 308.167969 230.757812 309.128906 230.785156 C 310.089844 230.808594 311.046875 230.882812 312 231 C 312.957031 231.121094 313.902344 231.285156 314.839844 231.5 C 315.777344 231.710938 316.703125 231.96875 317.613281 232.273438 C 318.527344 232.574219 319.421875 232.921875 320.300781 233.3125 C 321.179688 233.703125 322.035156 234.136719 322.871094 234.613281 C 323.707031 235.089844 324.515625 235.605469 325.300781 236.160156 C 326.085938 236.714844 326.84375 237.304688 327.570312 237.9375 C 328.296875 238.566406 328.992188 239.226562 329.652344 239.925781 C 330.3125 240.625 330.941406 241.351562 331.53125 242.109375 C 332.121094 242.871094 332.671875 243.65625 333.183594 244.46875 Z M 342.855469 259.800781 " fill-opacity="1" fill-rule="nonzero"/><path fill="#0097b2" d="M 342.992188 259.707031 L 318.929688 274.882812 C 318.5625 274.304688 318.257812 273.695312 318.011719 273.054688 C 317.765625 272.414062 317.585938 271.757812 317.46875 271.082031 C 317.355469 270.40625 317.304688 269.726562 317.324219 269.039062 C 317.339844 268.355469 317.425781 267.675781 317.578125 267.007812 C 317.730469 266.339844 317.945312 265.691406 318.222656 265.066406 C 318.5 264.441406 318.839844 263.847656 319.234375 263.289062 C 319.628906 262.726562 320.078125 262.210938 320.574219 261.742188 C 321.070312 261.269531 321.609375 260.851562 322.191406 260.484375 L 337.421875 250.875 C 337.714844 250.695312 338.019531 250.542969 338.335938 250.417969 C 338.65625 250.296875 338.984375 250.207031 339.324219 250.148438 C 339.660156 250.089844 340 250.066406 340.34375 250.074219 C 340.6875 250.082031 341.023438 250.125 341.359375 250.203125 C 341.691406 250.277344 342.015625 250.382812 342.328125 250.523438 C 342.640625 250.664062 342.9375 250.832031 343.21875 251.03125 C 343.496094 251.226562 343.753906 251.449219 343.992188 251.699219 C 344.226562 251.945312 344.433594 252.214844 344.617188 252.507812 C 344.800781 252.796875 344.953125 253.101562 345.078125 253.421875 C 345.199219 253.742188 345.292969 254.070312 345.351562 254.40625 C 345.410156 254.746094 345.433594 255.085938 345.425781 255.429688 C 345.414062 255.769531 345.375 256.109375 345.296875 256.441406 C 345.222656 256.777344 345.113281 257.101562 344.976562 257.414062 C 344.835938 257.726562 344.667969 258.023438 344.46875 258.304688 C 344.273438 258.585938 344.050781 258.84375 343.800781 259.078125 C 343.550781 259.3125 343.28125 259.523438 342.992188 259.707031 Z M 342.992188 259.707031 " fill-opacity="1" fill-rule="nonzero"/><path fill="#232323" d="M 379.203125 152.003906 C 377.503906 149.414062 374.363281 148.433594 372.195312 149.863281 L 363.410156 155.628906 C 361.269531 157.054688 360.863281 160.316406 362.5625 162.90625 C 364.265625 165.496094 367.40625 166.472656 369.574219 165.046875 L 373.964844 162.191406 L 378.359375 159.339844 C 380.527344 157.855469 380.914062 154.59375 379.203125 152.003906 Z M 379.203125 152.003906 " fill-opacity="1" fill-rule="nonzero"/><path fill="#232323" d="M 357.367188 179.417969 C 356.816406 179.027344 356.203125 178.820312 355.527344 178.789062 C 354.851562 178.757812 354.222656 178.914062 353.640625 179.253906 C 342.386719 185.777344 334.230469 183.984375 334.152344 183.964844 C 333.710938 183.851562 333.261719 183.828125 332.808594 183.894531 C 332.355469 183.960938 331.933594 184.113281 331.539062 184.347656 C 331.144531 184.582031 330.8125 184.882812 330.539062 185.253906 C 330.265625 185.621094 330.074219 186.023438 329.960938 186.46875 C 329.847656 186.914062 329.828125 187.363281 329.894531 187.8125 C 329.957031 188.265625 330.109375 188.691406 330.34375 189.082031 C 330.578125 189.476562 330.878906 189.8125 331.246094 190.085938 C 331.613281 190.359375 332.019531 190.550781 332.460938 190.664062 C 334.90625 191.167969 337.367188 191.277344 339.847656 191 C 346.027344 190.347656 351.78125 188.425781 357.109375 185.226562 C 357.503906 184.996094 357.84375 184.699219 358.121094 184.335938 C 358.402344 183.972656 358.597656 183.566406 358.714844 183.125 C 358.835938 182.683594 358.863281 182.234375 358.800781 181.777344 C 358.742188 181.324219 358.59375 180.898438 358.363281 180.503906 C 358.113281 180.066406 357.78125 179.707031 357.367188 179.417969 Z M 357.367188 179.417969 " fill-opacity="1" fill-rule="nonzero"/><path fill="#d6d6d4" d="M 326.042969 170.824219 C 326.597656 170.917969 327.148438 171.042969 327.691406 171.195312 C 328.234375 171.34375 328.769531 171.523438 329.292969 171.726562 C 329.820312 171.929688 330.335938 172.160156 330.835938 172.414062 C 331.339844 172.667969 331.832031 172.945312 332.304688 173.246094 C 332.78125 173.550781 333.242188 173.875 333.6875 174.222656 C 334.128906 174.570312 334.554688 174.9375 334.964844 175.328125 C 335.371094 175.714844 335.757812 176.125 336.125 176.550781 C 336.492188 176.980469 336.839844 177.421875 337.164062 177.882812 C 337.488281 178.347656 337.789062 178.820312 338.066406 179.3125 C 338.34375 179.804688 338.59375 180.308594 338.824219 180.824219 C 339.050781 181.339844 339.253906 181.863281 339.429688 182.398438 C 339.605469 182.933594 339.753906 183.476562 339.875 184.027344 C 340 184.578125 340.09375 185.132812 340.164062 185.691406 C 340.230469 186.25 340.273438 186.8125 340.285156 187.375 C 340.296875 187.941406 340.285156 188.503906 340.242188 189.066406 C 340.199219 189.628906 340.128906 190.1875 340.03125 190.742188 C 339.9375 191.296875 339.8125 191.847656 339.660156 192.390625 C 339.507812 192.933594 339.332031 193.464844 339.128906 193.992188 C 338.925781 194.519531 338.695312 195.03125 338.441406 195.535156 C 338.1875 196.039062 337.910156 196.527344 337.609375 197.003906 C 337.304688 197.480469 336.980469 197.9375 336.632812 198.382812 C 336.285156 198.828125 335.917969 199.253906 335.527344 199.660156 C 335.140625 200.070312 334.730469 200.457031 334.304688 200.824219 C 333.875 201.191406 333.433594 201.539062 332.96875 201.859375 C 332.507812 202.183594 332.03125 202.484375 331.542969 202.761719 C 331.050781 203.039062 330.546875 203.292969 330.03125 203.519531 C 329.515625 203.75 328.992188 203.949219 328.457031 204.125 C 327.921875 204.300781 327.378906 204.453125 326.828125 204.574219 C 326.277344 204.695312 325.722656 204.792969 325.164062 204.859375 C 324.601562 204.929688 324.042969 204.96875 323.476562 204.984375 C 322.914062 204.996094 322.351562 204.980469 321.789062 204.9375 C 321.226562 204.898438 320.667969 204.828125 320.113281 204.730469 C 319.558594 204.632812 319.007812 204.507812 318.464844 204.359375 C 317.921875 204.207031 317.390625 204.03125 316.863281 203.824219 C 316.335938 203.621094 315.824219 203.394531 315.320312 203.140625 C 314.816406 202.886719 314.328125 202.605469 313.851562 202.304688 C 313.375 202.003906 312.914062 201.679688 312.472656 201.332031 C 312.027344 200.984375 311.601562 200.613281 311.195312 200.226562 C 310.785156 199.835938 310.398438 199.429688 310.03125 199 C 309.664062 198.574219 309.316406 198.128906 308.992188 197.667969 C 308.667969 197.207031 308.371094 196.730469 308.09375 196.238281 C 307.816406 195.75 307.5625 195.246094 307.335938 194.730469 C 307.105469 194.214844 306.90625 193.6875 306.730469 193.152344 C 306.554688 192.617188 306.402344 192.074219 306.28125 191.523438 C 306.15625 190.976562 306.0625 190.421875 305.992188 189.859375 C 305.925781 189.300781 305.886719 188.738281 305.871094 188.175781 C 305.859375 187.613281 305.875 187.050781 305.914062 186.488281 C 305.957031 185.925781 306.027344 185.367188 306.125 184.8125 C 306.222656 184.257812 306.347656 183.707031 306.496094 183.164062 C 306.648438 182.621094 306.824219 182.085938 307.027344 181.5625 C 307.234375 181.035156 307.460938 180.519531 307.714844 180.015625 C 307.96875 179.515625 308.246094 179.023438 308.550781 178.550781 C 308.851562 178.074219 309.175781 177.613281 309.523438 177.167969 C 309.871094 176.726562 310.238281 176.300781 310.628906 175.890625 C 311.019531 175.484375 311.425781 175.097656 311.855469 174.730469 C 312.28125 174.359375 312.726562 174.015625 313.1875 173.691406 C 313.648438 173.367188 314.125 173.066406 314.617188 172.789062 C 315.105469 172.511719 315.609375 172.261719 316.125 172.03125 C 316.640625 171.804688 317.167969 171.601562 317.703125 171.425781 C 318.238281 171.25 318.78125 171.101562 319.328125 170.976562 C 319.878906 170.855469 320.433594 170.761719 320.996094 170.691406 C 321.554688 170.625 322.117188 170.582031 322.679688 170.570312 C 323.242188 170.554688 323.804688 170.570312 324.367188 170.613281 C 324.929688 170.65625 325.488281 170.726562 326.042969 170.824219 Z M 326.042969 170.824219 " fill-opacity="1" fill-rule="nonzero"/><path fill="#d6d6d4" d="M 390.773438 170.992188 C 391.015625 171.714844 391.21875 172.445312 391.386719 173.1875 C 391.554688 173.929688 391.6875 174.679688 391.78125 175.433594 C 391.878906 176.1875 391.933594 176.945312 391.957031 177.707031 C 391.976562 178.46875 391.960938 179.230469 391.90625 179.988281 C 391.851562 180.746094 391.761719 181.503906 391.632812 182.253906 C 391.503906 183.003906 391.339844 183.746094 391.136719 184.480469 C 390.9375 185.214844 390.699219 185.9375 390.425781 186.648438 C 390.15625 187.355469 389.847656 188.054688 389.507812 188.734375 C 389.167969 189.414062 388.792969 190.078125 388.390625 190.722656 C 387.984375 191.363281 387.546875 191.988281 387.078125 192.589844 C 386.613281 193.191406 386.117188 193.765625 385.59375 194.320312 C 385.070312 194.871094 384.523438 195.398438 383.945312 195.894531 C 383.371094 196.394531 382.773438 196.863281 382.152344 197.304688 C 381.53125 197.742188 380.890625 198.152344 380.226562 198.527344 C 379.566406 198.90625 378.886719 199.25 378.191406 199.558594 C 377.496094 199.871094 376.789062 200.144531 376.066406 200.386719 C 375.34375 200.625 374.613281 200.828125 373.871094 201 C 373.128906 201.167969 372.378906 201.300781 371.625 201.394531 C 370.867188 201.488281 370.109375 201.546875 369.351562 201.566406 C 368.589844 201.585938 367.828125 201.570312 367.070312 201.515625 C 366.3125 201.460938 365.554688 201.371094 364.804688 201.242188 C 364.054688 201.113281 363.3125 200.949219 362.578125 200.75 C 361.84375 200.546875 361.121094 200.3125 360.410156 200.039062 C 359.699219 199.765625 359.003906 199.460938 358.324219 199.121094 C 357.644531 198.777344 356.980469 198.40625 356.335938 198 C 355.691406 197.59375 355.070312 197.15625 354.46875 196.691406 C 353.867188 196.222656 353.292969 195.730469 352.738281 195.207031 C 352.1875 194.683594 351.660156 194.132812 351.160156 193.558594 C 350.664062 192.984375 350.195312 192.382812 349.753906 191.761719 C 349.316406 191.140625 348.90625 190.5 348.53125 189.839844 C 348.152344 189.175781 347.808594 188.5 347.5 187.804688 C 347.1875 187.109375 346.914062 186.402344 346.671875 185.679688 C 346.433594 184.957031 346.226562 184.222656 346.058594 183.480469 C 345.890625 182.738281 345.757812 181.992188 345.664062 181.234375 C 345.570312 180.480469 345.511719 179.722656 345.492188 178.960938 C 345.46875 178.199219 345.488281 177.441406 345.542969 176.679688 C 345.59375 175.921875 345.6875 175.167969 345.816406 174.417969 C 345.945312 173.667969 346.109375 172.925781 346.308594 172.191406 C 346.511719 171.457031 346.746094 170.734375 347.019531 170.023438 C 347.292969 169.3125 347.597656 168.617188 347.9375 167.9375 C 348.28125 167.253906 348.652344 166.59375 349.058594 165.949219 C 349.464844 165.304688 349.898438 164.683594 350.367188 164.082031 C 350.832031 163.480469 351.328125 162.902344 351.851562 162.351562 C 352.375 161.796875 352.925781 161.273438 353.5 160.773438 C 354.074219 160.273438 354.675781 159.804688 355.296875 159.367188 C 355.917969 158.925781 356.558594 158.519531 357.21875 158.140625 C 357.878906 157.765625 358.558594 157.421875 359.253906 157.109375 C 359.949219 156.800781 360.65625 156.523438 361.378906 156.285156 C 362.101562 156.042969 362.835938 155.839844 363.578125 155.671875 C 364.320312 155.503906 365.066406 155.371094 365.824219 155.277344 C 366.578125 155.179688 367.335938 155.121094 368.097656 155.101562 C 368.859375 155.082031 369.617188 155.097656 370.378906 155.152344 C 371.136719 155.207031 371.890625 155.296875 372.640625 155.425781 C 373.390625 155.554688 374.132812 155.71875 374.867188 155.921875 C 375.601562 156.121094 376.324219 156.359375 377.035156 156.628906 C 377.746094 156.902344 378.441406 157.210938 379.121094 157.550781 C 379.804688 157.890625 380.464844 158.265625 381.109375 158.667969 C 381.753906 159.074219 382.375 159.511719 382.976562 159.976562 C 383.578125 160.445312 384.15625 160.941406 384.707031 161.464844 C 385.261719 161.988281 385.785156 162.535156 386.285156 163.113281 C 386.785156 163.6875 387.253906 164.285156 387.691406 164.90625 C 388.132812 165.527344 388.539062 166.167969 388.917969 166.832031 C 389.292969 167.492188 389.636719 168.171875 389.949219 168.863281 C 390.257812 169.558594 390.535156 170.269531 390.773438 170.992188 Z M 390.773438 170.992188 " fill-opacity="1" fill-rule="nonzero"/><g clip-path="url(#83a9043a63)"><path fill="#232323" d="M 402.015625 171.15625 C 400.308594 168.566406 397.078125 167.6875 394.785156 169.183594 L 385.507812 175.273438 C 383.21875 176.777344 382.742188 180.097656 384.445312 182.6875 C 386.152344 185.277344 389.382812 186.160156 391.675781 184.65625 L 396.304688 181.617188 L 400.9375 178.574219 C 403.242188 177.070312 403.75 173.757812 402.015625 171.15625 Z M 402.015625 171.15625 " fill-opacity="1" fill-rule="nonzero"/></g><path fill="#232323" d="M 396.242188 162.34375 C 394.535156 159.746094 391.304688 158.867188 389.011719 160.371094 L 379.738281 166.453125 C 377.445312 167.957031 376.96875 171.277344 378.671875 173.867188 C 380.371094 176.464844 383.609375 177.339844 385.902344 175.835938 L 390.53125 172.796875 L 395.164062 169.757812 C 397.46875 168.277344 397.941406 164.960938 396.242188 162.34375 Z M 396.242188 162.34375 " fill-opacity="1" fill-rule="nonzero"/><path fill="#232323" d="M 125.5625 259.386719 C 128.507812 260.351562 131.550781 259.125 132.355469 256.65625 L 135.617188 246.664062 C 136.421875 244.195312 134.683594 241.414062 131.734375 240.449219 C 128.789062 239.492188 125.746094 240.714844 124.941406 243.183594 L 123.308594 248.175781 L 121.679688 253.171875 C 120.875 255.648438 122.601562 258.433594 125.5625 259.386719 Z M 125.5625 259.386719 " fill-opacity="1" fill-rule="nonzero"/><path fill="#232323" d="M 125.027344 221.070312 C 125.644531 221.339844 126.289062 221.417969 126.957031 221.3125 C 127.621094 221.203125 128.207031 220.921875 128.710938 220.46875 C 138.40625 211.800781 146.753906 211.90625 146.839844 211.90625 C 147.300781 211.925781 147.742188 211.855469 148.171875 211.699219 C 148.605469 211.542969 148.988281 211.308594 149.324219 211 C 149.664062 210.6875 149.929688 210.324219 150.121094 209.910156 C 150.316406 209.496094 150.421875 209.058594 150.441406 208.597656 C 150.460938 208.140625 150.390625 207.695312 150.234375 207.265625 C 150.078125 206.835938 149.84375 206.453125 149.53125 206.113281 C 149.222656 205.777344 148.859375 205.511719 148.445312 205.316406 C 148.027344 205.125 147.589844 205.019531 147.132812 205 C 144.640625 205.003906 142.207031 205.394531 139.832031 206.167969 C 133.917969 208.066406 128.671875 211.113281 124.097656 215.316406 C 123.757812 215.625 123.488281 215.984375 123.289062 216.394531 C 123.09375 216.808594 122.980469 217.246094 122.953125 217.703125 C 122.929688 218.160156 122.992188 218.605469 123.144531 219.035156 C 123.296875 219.46875 123.523438 219.855469 123.828125 220.199219 C 124.164062 220.574219 124.566406 220.863281 125.027344 221.070312 Z M 125.027344 221.070312 " fill-opacity="1" fill-rule="nonzero"/><path fill="#d6d6d4" d="M 170.960938 195.996094 C 171.285156 196.457031 171.585938 196.929688 171.867188 197.421875 C 172.144531 197.910156 172.398438 198.414062 172.628906 198.925781 C 172.859375 199.441406 173.0625 199.964844 173.242188 200.5 C 173.417969 201.035156 173.570312 201.578125 173.695312 202.128906 C 173.820312 202.679688 173.917969 203.230469 173.988281 203.792969 C 174.058594 204.351562 174.101562 204.914062 174.117188 205.476562 C 174.132812 206.039062 174.121094 206.601562 174.082031 207.164062 C 174.039062 207.726562 173.972656 208.285156 173.878906 208.839844 C 173.78125 209.398438 173.660156 209.945312 173.511719 210.488281 C 173.363281 211.035156 173.1875 211.570312 172.984375 212.09375 C 172.785156 212.621094 172.558594 213.136719 172.304688 213.640625 C 172.054688 214.144531 171.777344 214.636719 171.476562 215.113281 C 171.175781 215.589844 170.851562 216.050781 170.507812 216.496094 C 170.160156 216.941406 169.796875 217.367188 169.40625 217.777344 C 169.019531 218.1875 168.613281 218.578125 168.1875 218.945312 C 167.761719 219.316406 167.320312 219.664062 166.859375 219.988281 C 166.398438 220.3125 165.921875 220.617188 165.433594 220.894531 C 164.945312 221.175781 164.441406 221.429688 163.925781 221.660156 C 163.410156 221.886719 162.886719 222.09375 162.351562 222.269531 C 161.816406 222.449219 161.277344 222.601562 160.726562 222.726562 C 160.175781 222.851562 159.621094 222.949219 159.0625 223.019531 C 158.503906 223.089844 157.941406 223.132812 157.378906 223.144531 C 156.816406 223.160156 156.25 223.148438 155.691406 223.109375 C 155.128906 223.070312 154.566406 223 154.011719 222.90625 C 153.457031 222.8125 152.90625 222.691406 152.363281 222.539062 C 151.820312 222.390625 151.285156 222.214844 150.757812 222.015625 C 150.230469 221.8125 149.71875 221.585938 149.210938 221.335938 C 148.707031 221.082031 148.21875 220.804688 147.742188 220.503906 C 147.265625 220.203125 146.804688 219.882812 146.359375 219.535156 C 145.914062 219.191406 145.484375 218.824219 145.074219 218.4375 C 144.667969 218.046875 144.277344 217.640625 143.910156 217.214844 C 143.539062 216.789062 143.191406 216.347656 142.867188 215.886719 C 142.539062 215.425781 142.238281 214.953125 141.957031 214.460938 C 141.679688 213.972656 141.425781 213.46875 141.195312 212.957031 C 140.964844 212.441406 140.761719 211.914062 140.582031 211.382812 C 140.40625 210.847656 140.253906 210.304688 140.128906 209.753906 C 140.003906 209.203125 139.90625 208.648438 139.835938 208.089844 C 139.765625 207.53125 139.722656 206.96875 139.707031 206.40625 C 139.691406 205.84375 139.703125 205.28125 139.746094 204.71875 C 139.785156 204.15625 139.851562 203.597656 139.949219 203.042969 C 140.042969 202.484375 140.164062 201.9375 140.3125 201.390625 C 140.460938 200.847656 140.636719 200.3125 140.839844 199.789062 C 141.039062 199.261719 141.265625 198.746094 141.519531 198.242188 C 141.773438 197.738281 142.046875 197.246094 142.347656 196.769531 C 142.648438 196.292969 142.972656 195.832031 143.316406 195.386719 C 143.664062 194.941406 144.03125 194.515625 144.417969 194.105469 C 144.804688 193.695312 145.210938 193.304688 145.636719 192.9375 C 146.0625 192.566406 146.507812 192.21875 146.96875 191.894531 C 147.425781 191.570312 147.902344 191.265625 148.390625 190.988281 C 148.882812 190.707031 149.382812 190.453125 149.898438 190.222656 C 150.414062 189.996094 150.9375 189.789062 151.472656 189.613281 C 152.007812 189.433594 152.550781 189.28125 153.097656 189.15625 C 153.648438 189.03125 154.203125 188.933594 154.761719 188.863281 C 155.320312 188.792969 155.882812 188.75 156.445312 188.734375 C 157.011719 188.722656 157.574219 188.734375 158.136719 188.773438 C 158.699219 188.8125 159.257812 188.882812 159.8125 188.976562 C 160.367188 189.070312 160.917969 189.191406 161.460938 189.34375 C 162.003906 189.492188 162.539062 189.667969 163.066406 189.867188 C 163.59375 190.070312 164.109375 190.296875 164.613281 190.546875 C 165.117188 190.800781 165.605469 191.078125 166.085938 191.378906 C 166.5625 191.675781 167.023438 192 167.46875 192.347656 C 167.914062 192.691406 168.339844 193.058594 168.75 193.445312 C 169.160156 193.832031 169.546875 194.242188 169.917969 194.667969 C 170.285156 195.09375 170.632812 195.535156 170.960938 195.996094 Z M 170.960938 195.996094 " fill-opacity="1" fill-rule="nonzero"/><path fill="#d6d6d4" d="M 139.222656 224.59375 C 139.472656 225.308594 139.6875 226.039062 139.867188 226.777344 C 140.046875 227.519531 140.191406 228.265625 140.296875 229.019531 C 140.402344 229.773438 140.472656 230.53125 140.503906 231.289062 C 140.535156 232.050781 140.53125 232.8125 140.488281 233.570312 C 140.445312 234.332031 140.363281 235.085938 140.246094 235.839844 C 140.128906 236.589844 139.976562 237.335938 139.785156 238.074219 C 139.59375 238.808594 139.371094 239.535156 139.109375 240.25 C 138.847656 240.964844 138.550781 241.664062 138.21875 242.351562 C 137.890625 243.039062 137.527344 243.707031 137.128906 244.355469 C 136.734375 245.003906 136.308594 245.632812 135.847656 246.242188 C 135.390625 246.851562 134.90625 247.433594 134.390625 247.996094 C 133.875 248.554688 133.332031 249.089844 132.765625 249.59375 C 132.195312 250.101562 131.605469 250.582031 130.992188 251.03125 C 130.375 251.480469 129.742188 251.894531 129.085938 252.28125 C 128.429688 252.667969 127.757812 253.023438 127.066406 253.34375 C 126.375 253.664062 125.671875 253.949219 124.953125 254.199219 C 124.234375 254.453125 123.503906 254.667969 122.765625 254.847656 C 122.027344 255.027344 121.28125 255.167969 120.527344 255.277344 C 119.773438 255.382812 119.015625 255.449219 118.253906 255.484375 C 117.492188 255.515625 116.734375 255.507812 115.972656 255.464844 C 115.214844 255.421875 114.457031 255.34375 113.707031 255.226562 C 112.953125 255.109375 112.207031 254.953125 111.472656 254.765625 C 110.734375 254.574219 110.007812 254.347656 109.292969 254.085938 C 108.578125 253.824219 107.878906 253.527344 107.195312 253.199219 C 106.507812 252.867188 105.839844 252.503906 105.191406 252.109375 C 104.539062 251.710938 103.910156 251.285156 103.304688 250.828125 C 102.695312 250.371094 102.109375 249.882812 101.550781 249.367188 C 100.988281 248.851562 100.457031 248.3125 99.949219 247.742188 C 99.441406 247.175781 98.964844 246.585938 98.515625 245.96875 C 98.066406 245.355469 97.648438 244.71875 97.261719 244.066406 C 96.875 243.410156 96.523438 242.734375 96.203125 242.046875 C 95.882812 241.355469 95.59375 240.652344 95.34375 239.933594 C 95.09375 239.214844 94.878906 238.484375 94.699219 237.746094 C 94.519531 237.003906 94.375 236.257812 94.269531 235.503906 C 94.164062 234.75 94.09375 233.992188 94.0625 233.234375 C 94.03125 232.472656 94.035156 231.710938 94.078125 230.953125 C 94.121094 230.191406 94.203125 229.4375 94.320312 228.683594 C 94.4375 227.933594 94.589844 227.1875 94.78125 226.449219 C 94.96875 225.714844 95.195312 224.988281 95.457031 224.273438 C 95.71875 223.558594 96.015625 222.859375 96.347656 222.171875 C 96.675781 221.488281 97.039062 220.820312 97.4375 220.167969 C 97.832031 219.519531 98.257812 218.890625 98.71875 218.28125 C 99.175781 217.671875 99.660156 217.089844 100.175781 216.527344 C 100.691406 215.96875 101.234375 215.433594 101.800781 214.929688 C 102.367188 214.421875 102.960938 213.941406 103.574219 213.496094 C 104.191406 213.046875 104.824219 212.628906 105.480469 212.242188 C 106.136719 211.855469 106.808594 211.5 107.5 211.179688 C 108.191406 210.859375 108.894531 210.574219 109.613281 210.324219 C 110.332031 210.070312 111.0625 209.855469 111.800781 209.675781 C 112.539062 209.496094 113.285156 209.355469 114.039062 209.25 C 114.792969 209.140625 115.550781 209.074219 116.3125 209.042969 C 117.074219 209.007812 117.832031 209.015625 118.59375 209.058594 C 119.351562 209.101562 120.109375 209.179688 120.859375 209.296875 C 121.613281 209.414062 122.355469 209.570312 123.09375 209.757812 C 123.832031 209.949219 124.558594 210.175781 125.273438 210.4375 C 125.988281 210.699219 126.6875 210.996094 127.371094 211.324219 C 128.058594 211.65625 128.726562 212.019531 129.375 212.414062 C 130.027344 212.8125 130.65625 213.238281 131.261719 213.695312 C 131.871094 214.152344 132.457031 214.640625 133.015625 215.15625 C 133.574219 215.671875 134.109375 216.210938 134.617188 216.78125 C 135.125 217.347656 135.601562 217.9375 136.050781 218.554688 C 136.5 219.167969 136.917969 219.804688 137.304688 220.460938 C 137.691406 221.113281 138.042969 221.789062 138.363281 222.476562 C 138.683594 223.167969 138.972656 223.875 139.222656 224.59375 Z M 139.222656 224.59375 " fill-opacity="1" fill-rule="nonzero"/><path fill="#232323" d="M 95.785156 258.675781 C 98.730469 259.636719 101.808594 258.308594 102.65625 255.707031 L 106.097656 245.167969 C 106.945312 242.5625 105.246094 239.671875 102.300781 238.707031 C 99.351562 237.753906 96.269531 239.078125 95.421875 241.683594 L 93.703125 246.949219 L 91.980469 252.253906 C 91.132812 254.8125 92.839844 257.710938 95.785156 258.675781 Z M 95.785156 258.675781 " fill-opacity="1" fill-rule="nonzero"/><path fill="#232323" d="M 105.78125 261.933594 C 108.730469 262.890625 111.804688 261.5625 112.652344 258.960938 L 116.09375 248.421875 C 116.941406 245.816406 115.242188 242.925781 112.296875 242 C 109.351562 241.035156 106.265625 242.363281 105.417969 244.964844 L 103.699219 250.234375 L 101.980469 255.507812 C 101.128906 258.082031 102.835938 260.972656 105.78125 261.933594 Z M 105.78125 261.933594 " fill-opacity="1" fill-rule="nonzero"/><path fill="#d6d6d4" d="M 302.84375 137.953125 C 304.984375 152.222656 306.746094 163.742188 320.996094 161.636719 C 321.839844 161.511719 322.675781 161.34375 323.507812 161.136719 C 324.335938 160.929688 325.152344 160.683594 325.957031 160.398438 C 326.761719 160.109375 327.550781 159.785156 328.320312 159.417969 C 329.09375 159.054688 329.847656 158.652344 330.578125 158.214844 C 331.3125 157.777344 332.023438 157.300781 332.710938 156.792969 C 333.394531 156.285156 334.054688 155.746094 334.6875 155.171875 C 335.320312 154.597656 335.925781 153.996094 336.5 153.363281 C 337.074219 152.730469 337.617188 152.070312 338.125 151.386719 C 338.636719 150.699219 339.109375 149.992188 339.550781 149.257812 C 339.988281 148.527344 340.390625 147.773438 340.757812 147.003906 C 341.125 146.230469 341.449219 145.441406 341.738281 144.640625 C 342.027344 143.835938 342.277344 143.019531 342.484375 142.191406 C 342.691406 141.363281 342.859375 140.523438 342.984375 139.679688 C 343.109375 138.835938 343.195312 137.984375 343.238281 137.132812 C 343.28125 136.28125 343.28125 135.425781 343.238281 134.574219 C 343.199219 133.71875 343.117188 132.871094 342.992188 132.027344 C 342.867188 131.179688 342.699219 130.34375 342.492188 129.515625 C 342.285156 128.6875 342.039062 127.871094 341.753906 127.066406 C 341.464844 126.261719 341.140625 125.472656 340.773438 124.699219 C 340.410156 123.925781 340.007812 123.175781 339.570312 122.441406 C 339.132812 121.707031 338.65625 121 338.148438 120.3125 C 337.640625 119.625 337.101562 118.964844 336.527344 118.332031 C 335.953125 117.699219 335.351562 117.09375 334.71875 116.519531 C 334.085938 115.945312 333.425781 115.40625 332.742188 114.894531 C 332.054688 114.386719 331.347656 113.910156 330.613281 113.472656 C 329.882812 113.03125 329.128906 112.628906 328.359375 112.265625 C 327.585938 111.898438 326.796875 111.570312 325.996094 111.28125 C 325.191406 110.992188 324.375 110.746094 323.546875 110.539062 C 322.71875 110.328125 321.878906 110.164062 321.035156 110.035156 C 320.191406 109.910156 319.339844 109.824219 318.488281 109.785156 C 317.636719 109.742188 316.78125 109.738281 315.929688 109.78125 C 315.074219 109.824219 314.226562 109.90625 313.382812 110.03125 C 299.132812 112.136719 300.738281 123.703125 302.84375 137.953125 Z M 302.84375 137.953125 " fill-opacity="1" fill-rule="nonzero"/><path fill="#e9e8e4" d="M 330.820312 129.246094 L 332.210938 138.664062 C 332.367188 139.722656 332.5 140.78125 332.601562 141.84375 C 332.707031 142.90625 332.785156 143.972656 332.835938 145.039062 C 332.886719 146.105469 332.910156 147.171875 332.910156 148.242188 C 332.910156 149.308594 332.882812 150.375 332.828125 151.441406 C 332.777344 152.507812 332.695312 153.574219 332.589844 154.636719 C 332.484375 155.699219 332.355469 156.757812 332.195312 157.8125 C 332.039062 158.871094 331.855469 159.921875 331.644531 160.96875 C 331.4375 162.015625 331.203125 163.058594 330.941406 164.09375 C 330.679688 165.128906 330.394531 166.15625 330.085938 167.179688 C 329.773438 168.199219 329.4375 169.214844 329.078125 170.21875 C 328.71875 171.222656 328.332031 172.21875 327.921875 173.207031 C 327.511719 174.191406 327.078125 175.167969 326.621094 176.132812 C 326.164062 177.097656 325.683594 178.050781 325.179688 178.992188 C 324.675781 179.933594 324.148438 180.859375 323.597656 181.777344 C 323.050781 182.691406 322.476562 183.59375 321.882812 184.480469 C 321.289062 185.367188 320.671875 186.238281 320.035156 187.097656 C 319.398438 187.953125 318.742188 188.796875 318.066406 189.621094 C 317.386719 190.445312 316.6875 191.253906 315.972656 192.042969 C 315.253906 192.832031 314.515625 193.605469 313.761719 194.359375 C 313.003906 195.117188 312.230469 195.851562 311.4375 196.566406 C 310.648438 197.285156 309.839844 197.980469 309.011719 198.65625 C 308.1875 199.332031 307.34375 199.988281 306.484375 200.625 C 305.628906 201.261719 304.753906 201.875 303.867188 202.46875 C 302.976562 203.058594 302.074219 203.628906 301.160156 204.179688 C 300.242188 204.726562 299.3125 205.25 298.371094 205.753906 C 297.429688 206.257812 296.476562 206.734375 295.507812 207.191406 C 294.542969 207.648438 293.566406 208.078125 292.582031 208.488281 C 291.59375 208.894531 290.597656 209.277344 289.59375 209.636719 C 288.585938 209.996094 287.574219 210.328125 286.550781 210.640625 C 285.527344 210.949219 284.5 211.230469 283.464844 211.492188 C 282.425781 211.75 281.386719 211.980469 280.335938 212.191406 C 279.289062 212.398438 278.238281 212.578125 277.183594 212.734375 L 205.296875 223.34375 C 204.242188 223.5 203.179688 223.632812 202.117188 223.734375 C 201.054688 223.839844 199.992188 223.917969 198.925781 223.96875 C 197.859375 224.019531 196.789062 224.046875 195.722656 224.042969 C 194.65625 224.042969 193.585938 224.015625 192.519531 223.964844 C 191.453125 223.910156 190.390625 223.832031 189.328125 223.726562 C 188.265625 223.621094 187.207031 223.488281 186.148438 223.332031 C 185.09375 223.171875 184.042969 222.992188 182.996094 222.78125 C 181.949219 222.570312 180.90625 222.335938 179.871094 222.078125 C 178.835938 221.816406 177.808594 221.53125 176.785156 221.21875 C 175.761719 220.910156 174.75 220.574219 173.746094 220.214844 C 172.738281 219.851562 171.746094 219.46875 170.757812 219.058594 C 169.773438 218.648438 168.796875 218.214844 167.832031 217.757812 C 166.867188 217.300781 165.914062 216.820312 164.972656 216.316406 C 164.03125 215.8125 163.101562 215.285156 162.1875 214.734375 C 161.273438 214.1875 160.371094 213.613281 159.484375 213.019531 C 158.59375 212.425781 157.722656 211.8125 156.867188 211.175781 C 156.007812 210.539062 155.167969 209.878906 154.34375 209.203125 C 153.519531 208.523438 152.710938 207.828125 151.917969 207.109375 C 151.128906 206.390625 150.355469 205.65625 149.601562 204.898438 C 148.847656 204.144531 148.113281 203.371094 147.394531 202.578125 C 146.679688 201.785156 145.984375 200.976562 145.304688 200.152344 C 144.628906 199.324219 143.972656 198.484375 143.335938 197.625 C 142.703125 196.765625 142.089844 195.894531 141.496094 195.003906 C 140.902344 194.117188 140.332031 193.214844 139.785156 192.296875 C 139.238281 191.382812 138.710938 190.453125 138.207031 189.511719 C 137.707031 188.570312 137.226562 187.613281 136.769531 186.648438 C 136.316406 185.683594 135.882812 184.707031 135.476562 183.71875 C 135.066406 182.734375 134.683594 181.738281 134.324219 180.730469 C 133.964844 179.726562 133.632812 178.710938 133.324219 177.691406 C 133.015625 176.667969 132.730469 175.640625 132.472656 174.601562 C 132.214844 173.566406 131.980469 172.523438 131.773438 171.476562 C 131.566406 170.429688 131.382812 169.378906 131.226562 168.320312 L 129.800781 158.902344 C 129.644531 157.847656 129.515625 156.785156 129.410156 155.722656 C 129.308594 154.660156 129.230469 153.597656 129.179688 152.53125 C 129.128906 151.464844 129.101562 150.398438 129.101562 149.328125 C 129.101562 148.261719 129.128906 147.195312 129.183594 146.128906 C 129.238281 145.0625 129.316406 143.996094 129.421875 142.933594 C 129.527344 141.871094 129.660156 140.8125 129.816406 139.757812 C 129.972656 138.699219 130.15625 137.648438 130.367188 136.601562 C 130.574219 135.554688 130.808594 134.511719 131.070312 133.476562 C 131.332031 132.441406 131.617188 131.414062 131.925781 130.390625 C 132.238281 129.371094 132.574219 128.355469 132.933594 127.351562 C 133.292969 126.347656 133.679688 125.351562 134.089844 124.367188 C 134.496094 123.378906 134.929688 122.402344 135.386719 121.4375 C 135.84375 120.472656 136.324219 119.519531 136.828125 118.578125 C 137.332031 117.636719 137.859375 116.710938 138.410156 115.792969 C 138.960938 114.878906 139.53125 113.976562 140.125 113.089844 C 140.71875 112.203125 141.335938 111.332031 141.972656 110.472656 C 142.609375 109.617188 143.265625 108.773438 143.941406 107.949219 C 144.621094 107.125 145.320312 106.316406 146.035156 105.527344 C 146.753906 104.734375 147.488281 103.964844 148.246094 103.207031 C 149 102.453125 149.773438 101.71875 150.566406 101.003906 C 151.359375 100.285156 152.167969 99.589844 152.992188 98.910156 C 153.816406 98.234375 154.660156 97.578125 155.519531 96.945312 C 156.375 96.308594 157.25 95.695312 158.136719 95.101562 C 159.027344 94.507812 159.929688 93.9375 160.84375 93.390625 C 161.761719 92.839844 162.6875 92.316406 163.632812 91.8125 C 164.574219 91.308594 165.527344 90.832031 166.492188 90.375 C 167.457031 89.917969 168.433594 89.488281 169.421875 89.078125 C 170.40625 88.671875 171.402344 88.285156 172.410156 87.929688 C 173.414062 87.570312 174.429688 87.234375 175.449219 86.925781 C 176.472656 86.617188 177.5 86.332031 178.535156 86.074219 C 179.574219 85.8125 180.613281 85.582031 181.660156 85.371094 C 182.710938 85.164062 183.761719 84.984375 184.816406 84.828125 L 256.753906 74.222656 C 257.808594 74.066406 258.867188 73.9375 259.929688 73.832031 C 260.992188 73.730469 262.058594 73.652344 263.125 73.601562 C 264.191406 73.550781 265.257812 73.523438 266.328125 73.523438 C 267.394531 73.527344 268.460938 73.554688 269.527344 73.605469 C 270.59375 73.660156 271.660156 73.738281 272.722656 73.84375 C 273.785156 73.949219 274.84375 74.082031 275.898438 74.238281 C 276.953125 74.398438 278.007812 74.582031 279.054688 74.789062 C 280.101562 75 281.140625 75.234375 282.175781 75.492188 C 283.214844 75.753906 284.242188 76.039062 285.261719 76.351562 C 286.285156 76.660156 287.296875 76.996094 288.304688 77.355469 C 289.308594 77.71875 290.304688 78.101562 291.289062 78.511719 C 292.277344 78.921875 293.25 79.355469 294.214844 79.8125 C 295.179688 80.269531 296.132812 80.75 297.074219 81.253906 C 298.015625 81.757812 298.945312 82.285156 299.859375 82.835938 C 300.777344 83.382812 301.675781 83.957031 302.566406 84.550781 C 303.453125 85.144531 304.324219 85.757812 305.179688 86.394531 C 306.039062 87.03125 306.878906 87.691406 307.703125 88.367188 C 308.527344 89.046875 309.335938 89.746094 310.128906 90.460938 C 310.917969 91.179688 311.691406 91.917969 312.445312 92.671875 C 313.199219 93.425781 313.933594 94.199219 314.652344 94.992188 C 315.367188 95.785156 316.066406 96.59375 316.742188 97.417969 C 317.417969 98.246094 318.074219 99.085938 318.710938 99.945312 C 319.34375 100.804688 319.957031 101.675781 320.550781 102.566406 C 321.144531 103.453125 321.714844 104.355469 322.261719 105.273438 C 322.8125 106.1875 323.335938 107.117188 323.839844 108.058594 C 324.339844 109 324.820312 109.953125 325.277344 110.921875 C 325.730469 111.886719 326.164062 112.863281 326.570312 113.847656 C 326.980469 114.835938 327.363281 115.832031 327.722656 116.835938 C 328.082031 117.84375 328.414062 118.855469 328.726562 119.878906 C 329.035156 120.902344 329.316406 121.929688 329.578125 122.964844 C 329.835938 124.003906 330.070312 125.042969 330.277344 126.089844 C 330.484375 127.136719 330.664062 128.191406 330.820312 129.246094 Z M 330.820312 129.246094 " fill-opacity="1" fill-rule="nonzero"/><path fill="#d6d6d4" d="M 286.429688 184.796875 L 202.035156 197.25 C 201.105469 197.386719 200.171875 197.433594 199.234375 197.386719 C 198.296875 197.339844 197.371094 197.203125 196.460938 196.972656 C 195.550781 196.746094 194.671875 196.429688 193.820312 196.027344 C 192.972656 195.625 192.171875 195.140625 191.417969 194.582031 C 190.664062 194.019531 189.972656 193.390625 189.34375 192.695312 C 188.714844 191.996094 188.160156 191.246094 187.679688 190.4375 C 187.199219 189.628906 186.800781 188.785156 186.488281 187.898438 C 186.175781 187.011719 185.949219 186.105469 185.816406 185.175781 L 178.566406 136.039062 C 178.429688 135.113281 178.382812 134.179688 178.429688 133.242188 C 178.472656 132.304688 178.613281 131.378906 178.839844 130.46875 C 179.070312 129.558594 179.382812 128.679688 179.785156 127.832031 C 180.1875 126.984375 180.667969 126.183594 181.226562 125.429688 C 181.789062 124.675781 182.414062 123.984375 183.113281 123.355469 C 183.808594 122.726562 184.558594 122.171875 185.363281 121.691406 C 186.171875 121.207031 187.015625 120.808594 187.898438 120.496094 C 188.785156 120.179688 189.691406 119.957031 190.617188 119.820312 L 245.707031 111.691406 L 275.003906 107.398438 C 275.933594 107.257812 276.867188 107.210938 277.804688 107.257812 C 278.742188 107.304688 279.664062 107.441406 280.578125 107.667969 C 281.488281 107.894531 282.367188 108.210938 283.214844 108.613281 C 284.0625 109.011719 284.863281 109.492188 285.617188 110.054688 C 286.371094 110.613281 287.0625 111.238281 287.691406 111.9375 C 288.324219 112.632812 288.878906 113.382812 289.359375 114.1875 C 289.84375 114.992188 290.242188 115.839844 290.554688 116.722656 C 290.871094 117.605469 291.097656 118.511719 291.230469 119.441406 L 298.480469 168.578125 C 298.621094 169.507812 298.664062 170.441406 298.621094 171.378906 C 298.574219 172.316406 298.4375 173.238281 298.207031 174.148438 C 297.980469 175.058594 297.664062 175.9375 297.261719 176.785156 C 296.863281 177.636719 296.378906 178.433594 295.820312 179.1875 C 295.261719 179.941406 294.632812 180.632812 293.9375 181.261719 C 293.242188 181.890625 292.488281 182.449219 291.683594 182.929688 C 290.878906 183.410156 290.035156 183.808594 289.148438 184.121094 C 288.265625 184.4375 287.359375 184.664062 286.429688 184.796875 Z M 286.429688 184.796875 " fill-opacity="1" fill-rule="nonzero"/><path fill="#232323" d="M 285.800781 180.539062 L 201.40625 193.027344 C 200.480469 193.164062 199.546875 193.210938 198.609375 193.164062 C 197.671875 193.117188 196.746094 192.980469 195.835938 192.753906 C 194.925781 192.523438 194.046875 192.207031 193.199219 191.808594 C 192.351562 191.40625 191.550781 190.925781 190.796875 190.363281 C 190.042969 189.804688 189.351562 189.175781 188.722656 188.480469 C 188.09375 187.785156 187.539062 187.035156 187.058594 186.226562 C 186.578125 185.421875 186.179688 184.578125 185.863281 183.691406 C 185.550781 182.808594 185.324219 181.902344 185.1875 180.972656 L 177.9375 131.835938 C 177.800781 130.910156 177.753906 129.976562 177.800781 129.039062 C 177.847656 128.101562 177.984375 127.175781 178.210938 126.265625 C 178.441406 125.355469 178.753906 124.476562 179.15625 123.628906 C 179.558594 122.78125 180.039062 121.980469 180.601562 121.226562 C 181.160156 120.472656 181.789062 119.78125 182.484375 119.152344 C 183.179688 118.523438 183.929688 117.96875 184.738281 117.488281 C 185.542969 117.003906 186.386719 116.609375 187.269531 116.292969 C 188.15625 115.976562 189.0625 115.753906 189.992188 115.617188 L 245.078125 107.488281 L 274.378906 103.117188 C 275.304688 102.976562 276.238281 102.929688 277.175781 102.976562 C 278.113281 103.023438 279.039062 103.160156 279.949219 103.386719 C 280.859375 103.613281 281.738281 103.929688 282.585938 104.332031 C 283.433594 104.730469 284.238281 105.210938 284.988281 105.773438 C 285.742188 106.332031 286.433594 106.957031 287.066406 107.65625 C 287.695312 108.351562 288.25 109.101562 288.734375 109.90625 C 289.214844 110.710938 289.613281 111.558594 289.925781 112.441406 C 290.242188 113.324219 290.46875 114.230469 290.605469 115.160156 L 297.855469 164.296875 C 297.992188 165.226562 298.039062 166.160156 297.996094 167.097656 C 297.949219 168.039062 297.816406 168.960938 297.585938 169.875 C 297.359375 170.785156 297.046875 171.664062 296.644531 172.515625 C 296.242188 173.363281 295.761719 174.167969 295.203125 174.921875 C 294.640625 175.675781 294.011719 176.367188 293.316406 177 C 292.621094 177.628906 291.867188 178.183594 291.0625 178.667969 C 290.253906 179.148438 289.410156 179.546875 288.523438 179.863281 C 287.640625 180.175781 286.730469 180.402344 285.800781 180.539062 Z M 285.800781 180.539062 " fill-opacity="1" fill-rule="nonzero"/><path fill="#e9e8e4" d="M 243.574219 164.734375 C 240.488281 165.9375 236.066406 166.582031 230.351562 164.734375 L 231.121094 162.371094 C 241.402344 165.738281 246.71875 159.945312 246.941406 159.695312 L 248.808594 161.335938 C 247.320312 162.863281 245.574219 163.996094 243.574219 164.734375 Z M 243.574219 164.734375 " fill-opacity="1" fill-rule="nonzero"/><path fill="#d6d6d4" d="M 251.808594 74.949219 C 251.257812 76.285156 250.625 77.574219 249.90625 78.820312 C 249.183594 80.066406 248.382812 81.261719 247.503906 82.402344 C 246.625 83.542969 245.671875 84.617188 244.644531 85.628906 C 243.621094 86.644531 242.535156 87.582031 241.382812 88.449219 C 240.234375 89.316406 239.03125 90.101562 237.773438 90.808594 C 236.519531 91.515625 235.222656 92.132812 233.882812 92.664062 C 232.542969 93.195312 231.175781 93.636719 229.777344 93.984375 C 228.378906 94.332031 226.964844 94.585938 225.535156 94.746094 C 205.210938 97.335938 197.667969 82.9375 197.667969 82.9375 Z M 251.808594 74.949219 " fill-opacity="1" fill-rule="nonzero"/><path fill="#0097b2" d="M 269.703125 16.136719 C 233.160156 24.5 224.421875 42.277344 222.742188 53.550781 C 218.289062 45.921875 207.515625 36.6875 181.59375 38.214844 C 181.34375 38.230469 181.105469 38.273438 180.867188 38.34375 C 180.632812 38.414062 180.40625 38.511719 180.195312 38.632812 C 179.980469 38.757812 179.785156 38.902344 179.605469 39.074219 C 179.425781 39.242188 179.269531 39.433594 179.136719 39.640625 C 179 39.847656 178.894531 40.066406 178.8125 40.296875 C 178.730469 40.53125 178.675781 40.769531 178.648438 41.015625 C 178.621094 41.261719 178.625 41.503906 178.65625 41.75 C 178.691406 41.996094 178.75 42.230469 178.835938 42.460938 C 182.539062 52.453125 194.785156 77.554688 220.953125 65.582031 C 220.574219 70.5625 220.667969 75.539062 221.230469 80.503906 C 221.257812 80.761719 221.3125 81.011719 221.390625 81.257812 C 221.472656 81.507812 221.574219 81.742188 221.703125 81.96875 C 221.828125 82.195312 221.976562 82.40625 222.144531 82.601562 C 222.316406 82.796875 222.503906 82.976562 222.707031 83.132812 C 222.914062 83.292969 223.132812 83.429688 223.363281 83.542969 C 223.597656 83.65625 223.839844 83.746094 224.089844 83.8125 C 224.339844 83.878906 224.59375 83.917969 224.851562 83.933594 C 225.113281 83.949219 225.371094 83.9375 225.625 83.898438 C 226.121094 83.828125 226.582031 83.664062 227.015625 83.414062 C 227.445312 83.164062 227.816406 82.839844 228.121094 82.445312 C 228.425781 82.050781 228.648438 81.613281 228.785156 81.132812 C 228.921875 80.652344 228.960938 80.164062 228.910156 79.667969 C 228.332031 74.726562 228.292969 69.777344 228.789062 64.824219 C 267.957031 71.003906 272.949219 32.207031 273.542969 19.34375 C 273.554688 19.101562 273.535156 18.859375 273.492188 18.625 C 273.445312 18.386719 273.375 18.15625 273.277344 17.933594 C 273.179688 17.714844 273.058594 17.507812 272.910156 17.3125 C 272.765625 17.121094 272.601562 16.945312 272.414062 16.792969 C 272.230469 16.636719 272.027344 16.503906 271.8125 16.394531 C 271.597656 16.289062 271.371094 16.203125 271.136719 16.148438 C 270.902344 16.089844 270.664062 16.0625 270.421875 16.0625 C 270.179688 16.058594 269.941406 16.085938 269.703125 16.136719 Z M 269.703125 16.136719 " fill-opacity="1" fill-rule="nonzero"/><path fill="#d6d6d4" d="M 159.890625 162.191406 C 161.933594 176.464844 163.460938 188.023438 149.230469 190.0625 C 148.386719 190.183594 147.535156 190.265625 146.683594 190.300781 C 145.828125 190.339844 144.976562 190.335938 144.121094 190.289062 C 143.269531 190.242188 142.421875 190.152344 141.574219 190.023438 C 140.730469 189.894531 139.894531 189.722656 139.066406 189.511719 C 138.238281 189.300781 137.425781 189.046875 136.621094 188.753906 C 135.820312 188.460938 135.03125 188.132812 134.261719 187.761719 C 133.492188 187.394531 132.742188 186.988281 132.011719 186.542969 C 131.28125 186.101562 130.574219 185.621094 129.890625 185.109375 C 129.207031 184.597656 128.550781 184.050781 127.917969 183.472656 C 127.289062 182.898438 126.691406 182.289062 126.121094 181.652344 C 125.550781 181.019531 125.011719 180.355469 124.507812 179.667969 C 124 178.976562 123.53125 178.265625 123.09375 177.53125 C 122.660156 176.792969 122.261719 176.039062 121.902344 175.265625 C 121.539062 174.492188 121.21875 173.699219 120.933594 172.894531 C 120.652344 172.089844 120.410156 171.269531 120.207031 170.441406 C 120.003906 169.609375 119.839844 168.773438 119.71875 167.925781 C 119.597656 167.082031 119.519531 166.230469 119.484375 165.378906 C 119.445312 164.523438 119.449219 163.671875 119.496094 162.816406 C 119.542969 161.964844 119.632812 161.117188 119.761719 160.273438 C 119.894531 159.425781 120.066406 158.589844 120.277344 157.761719 C 120.488281 156.9375 120.742188 156.121094 121.035156 155.316406 C 121.328125 154.515625 121.65625 153.730469 122.027344 152.957031 C 122.398438 152.1875 122.804688 151.4375 123.246094 150.707031 C 123.691406 149.976562 124.167969 149.269531 124.683594 148.585938 C 125.195312 147.902344 125.738281 147.246094 126.316406 146.617188 C 126.894531 145.988281 127.5 145.386719 128.136719 144.816406 C 128.773438 144.246094 129.4375 143.710938 130.125 143.207031 C 130.816406 142.699219 131.527344 142.230469 132.261719 141.796875 C 133 141.359375 133.753906 140.960938 134.527344 140.601562 C 135.304688 140.242188 136.09375 139.917969 136.898438 139.636719 C 137.707031 139.351562 138.523438 139.109375 139.355469 138.90625 C 140.183594 138.703125 141.023438 138.542969 141.867188 138.421875 C 156.140625 136.390625 157.851562 147.933594 159.890625 162.191406 Z M 159.890625 162.191406 " fill-opacity="1" fill-rule="nonzero"/><path fill="#e9e8e4" d="M 209.570312 160.792969 L 207.972656 158.539062 C 212.507812 155.277344 217.488281 152.976562 222.914062 151.636719 C 220.71875 150.683594 218.425781 150.074219 216.042969 149.816406 C 213.660156 149.558594 211.296875 149.65625 208.941406 150.117188 L 208.230469 147.449219 C 208.621094 147.34375 217.992188 144.910156 227.910156 151.144531 C 228.164062 151.308594 228.347656 151.527344 228.460938 151.808594 C 228.570312 152.089844 228.589844 152.375 228.511719 152.667969 C 228.4375 152.957031 228.28125 153.199219 228.046875 153.390625 C 227.816406 153.582031 227.546875 153.683594 227.246094 153.699219 C 227.1875 153.707031 218.847656 154.222656 209.570312 160.792969 Z M 209.570312 160.792969 " fill-opacity="1" fill-rule="nonzero"/><path fill="#e9e8e4" d="M 267.300781 151.183594 C 256.402344 147.933594 248.332031 150.117188 248.253906 150.140625 C 247.964844 150.21875 247.683594 150.203125 247.402344 150.097656 C 247.125 149.988281 246.902344 149.8125 246.742188 149.558594 C 246.578125 149.308594 246.503906 149.035156 246.519531 148.738281 C 246.535156 148.4375 246.636719 148.175781 246.828125 147.941406 C 247.890625 146.59375 249.078125 145.363281 250.382812 144.25 C 251.691406 143.132812 253.09375 142.15625 254.589844 141.3125 C 256.085938 140.46875 257.652344 139.78125 259.28125 139.246094 C 260.914062 138.707031 262.582031 138.335938 264.289062 138.125 L 264.457031 140.886719 C 262.089844 141.203125 259.824219 141.863281 257.660156 142.871094 C 255.492188 143.875 253.527344 145.179688 251.757812 146.785156 C 257.324219 146.316406 262.777344 146.898438 268.121094 148.535156 Z M 267.300781 151.183594 " fill-opacity="1" fill-rule="nonzero"/><path fill="#0097b2" d="M 92.175781 147.535156 L 60.882812 147.355469 C 60.664062 147.34375 60.453125 147.289062 60.253906 147.195312 C 60.054688 147.101562 59.882812 146.972656 59.730469 146.8125 C 59.578125 146.652344 59.464844 146.46875 59.382812 146.265625 C 59.300781 146.058594 59.261719 145.847656 59.261719 145.625 C 59.261719 145.40625 59.300781 145.195312 59.382812 144.988281 C 59.464844 144.785156 59.578125 144.601562 59.730469 144.441406 C 59.882812 144.28125 60.054688 144.152344 60.253906 144.058594 C 60.453125 143.964844 60.664062 143.910156 60.882812 143.894531 L 92.152344 144.117188 C 92.382812 144.117188 92.601562 144.164062 92.8125 144.25 C 93.023438 144.339844 93.210938 144.464844 93.371094 144.625 C 93.53125 144.785156 93.65625 144.972656 93.742188 145.183594 C 93.832031 145.394531 93.875 145.617188 93.875 145.84375 C 93.875 146.074219 93.832031 146.292969 93.742188 146.503906 C 93.65625 146.714844 93.53125 146.902344 93.371094 147.0625 C 93.210938 147.226562 93.023438 147.351562 92.8125 147.4375 C 92.601562 147.527344 92.382812 147.570312 92.152344 147.570312 Z M 92.175781 147.535156 " fill-opacity="1" fill-rule="nonzero"/><g clip-path="url(#58d92d96a0)"><path fill="#0097b2" d="M 79.25 167.9375 L 47.960938 167.714844 C 47.730469 167.714844 47.511719 167.671875 47.300781 167.582031 C 47.089844 167.496094 46.902344 167.371094 46.742188 167.210938 C 46.578125 167.046875 46.453125 166.859375 46.367188 166.648438 C 46.277344 166.4375 46.234375 166.21875 46.234375 165.988281 C 46.234375 165.757812 46.277344 165.539062 46.367188 165.328125 C 46.453125 165.117188 46.578125 164.929688 46.742188 164.765625 C 46.902344 164.605469 47.089844 164.480469 47.300781 164.394531 C 47.511719 164.304688 47.730469 164.261719 47.960938 164.261719 L 79.230469 164.476562 C 79.449219 164.488281 79.660156 164.542969 79.859375 164.636719 C 80.058594 164.730469 80.234375 164.859375 80.382812 165.019531 C 80.535156 165.179688 80.648438 165.363281 80.730469 165.566406 C 80.8125 165.773438 80.851562 165.984375 80.851562 166.207031 C 80.851562 166.425781 80.8125 166.640625 80.730469 166.84375 C 80.648438 167.046875 80.535156 167.230469 80.382812 167.390625 C 80.234375 167.554688 80.058594 167.679688 79.859375 167.773438 C 79.660156 167.867188 79.449219 167.921875 79.230469 167.9375 Z M 79.25 167.9375 " fill-opacity="1" fill-rule="nonzero"/></g><path fill="#0097b2" d="M 91.046875 187.550781 L 59.765625 187.316406 C 59.542969 187.304688 59.335938 187.25 59.136719 187.15625 C 58.9375 187.0625 58.761719 186.933594 58.609375 186.773438 C 58.460938 186.613281 58.34375 186.429688 58.261719 186.222656 C 58.179688 186.019531 58.140625 185.808594 58.140625 185.585938 C 58.140625 185.367188 58.179688 185.152344 58.261719 184.949219 C 58.34375 184.742188 58.460938 184.5625 58.609375 184.402344 C 58.761719 184.238281 58.9375 184.113281 59.136719 184.019531 C 59.335938 183.925781 59.542969 183.871094 59.765625 183.855469 L 91.03125 184.078125 C 91.261719 184.078125 91.480469 184.121094 91.695312 184.207031 C 91.90625 184.296875 92.089844 184.421875 92.253906 184.582031 C 92.414062 184.746094 92.539062 184.933594 92.628906 185.144531 C 92.714844 185.355469 92.757812 185.574219 92.757812 185.804688 C 92.757812 186.035156 92.714844 186.253906 92.628906 186.464844 C 92.539062 186.675781 92.414062 186.863281 92.253906 187.027344 C 92.089844 187.1875 91.90625 187.3125 91.695312 187.398438 C 91.480469 187.488281 91.261719 187.53125 91.03125 187.53125 Z M 91.046875 187.550781 " fill-opacity="1" fill-rule="nonzero"/></svg>