<svg xmlns="http://www.w3.org/2000/svg" xmlns:xlink="http://www.w3.org/1999/xlink" width="600" zoomAndPan="magnify" viewBox="0 0 450 299.999988" height="400" preserveAspectRatio="xMidYMid meet" version="1.0"><defs><clipPath id="6845c62850"><path d="M 261 238 L 312 238 L 312 289.722656 L 261 289.722656 Z M 261 238 " clip-rule="nonzero"/></clipPath><clipPath id="aeff23afa9"><path d="M 280 278 L 318 278 L 318 289.722656 L 280 289.722656 Z M 280 278 " clip-rule="nonzero"/></clipPath><clipPath id="8e52f627a0"><path d="M 138 238 L 189 238 L 189 289.722656 L 138 289.722656 Z M 138 238 " clip-rule="nonzero"/></clipPath><clipPath id="8236acfcd0"><path d="M 132 278 L 170 278 L 170 289.722656 L 132 289.722656 Z M 132 278 " clip-rule="nonzero"/></clipPath><clipPath id="eda0ae14e5"><path d="M 373 184 L 394.933594 184 L 394.933594 204 L 373 204 Z M 373 184 " clip-rule="nonzero"/></clipPath><clipPath id="88d6d0fff1"><path d="M 55.183594 184 L 77 184 L 77 204 L 55.183594 204 Z M 55.183594 184 " clip-rule="nonzero"/></clipPath></defs><path fill="#232323" d="M 286.621094 245.039062 C 286.136719 245.042969 285.671875 244.953125 285.222656 244.773438 C 284.773438 244.59375 284.371094 244.339844 284.019531 244.007812 C 283.667969 243.675781 283.390625 243.289062 283.1875 242.851562 C 282.984375 242.410156 282.871094 241.949219 282.84375 241.46875 C 281.871094 223.335938 265.003906 216.425781 264.285156 216.160156 C 263.835938 215.96875 263.4375 215.699219 263.09375 215.347656 C 262.746094 215 262.480469 214.601562 262.289062 214.148438 C 262.101562 213.695312 262.003906 213.222656 261.996094 212.730469 C 261.988281 212.242188 262.074219 211.769531 262.253906 211.3125 C 262.433594 210.851562 262.691406 210.445312 263.027344 210.089844 C 263.363281 209.734375 263.753906 209.453125 264.199219 209.246094 C 264.648438 209.042969 265.113281 208.929688 265.605469 208.90625 C 266.09375 208.882812 266.570312 208.953125 267.035156 209.117188 C 267.941406 209.46875 289.160156 217.988281 290.398438 241.0625 C 290.425781 241.5625 290.355469 242.046875 290.1875 242.519531 C 290.019531 242.996094 289.769531 243.417969 289.433594 243.789062 C 289.097656 244.164062 288.707031 244.457031 288.253906 244.675781 C 287.800781 244.890625 287.324219 245.011719 286.824219 245.039062 Z M 286.621094 245.039062 " fill-opacity="1" fill-rule="nonzero"/><g clip-path="url(#6845c62850)"><path fill="#e9e8e4" d="M 311.460938 289.984375 L 279.339844 289.984375 C 278.761719 289.984375 278.1875 289.957031 277.613281 289.902344 C 277.039062 289.84375 276.472656 289.761719 275.90625 289.648438 C 275.339844 289.535156 274.78125 289.394531 274.230469 289.226562 C 273.679688 289.0625 273.136719 288.867188 272.605469 288.644531 C 272.074219 288.425781 271.550781 288.179688 271.042969 287.90625 C 270.535156 287.636719 270.042969 287.339844 269.5625 287.019531 C 269.082031 286.699219 268.621094 286.355469 268.175781 285.992188 C 267.730469 285.625 267.304688 285.238281 266.894531 284.832031 C 266.488281 284.425781 266.101562 283.996094 265.738281 283.550781 C 265.371094 283.105469 265.027344 282.644531 264.707031 282.164062 C 264.386719 281.6875 264.089844 281.191406 263.820312 280.683594 C 263.546875 280.175781 263.300781 279.65625 263.082031 279.125 C 262.859375 278.589844 262.667969 278.050781 262.5 277.496094 C 262.332031 276.945312 262.191406 276.386719 262.082031 275.824219 C 261.96875 275.257812 261.882812 274.6875 261.828125 274.113281 C 261.769531 273.539062 261.742188 272.964844 261.742188 272.390625 L 261.742188 255.679688 C 261.742188 255.101562 261.769531 254.527344 261.828125 253.953125 C 261.882812 253.382812 261.96875 252.8125 262.082031 252.246094 C 262.191406 251.679688 262.332031 251.125 262.5 250.570312 C 262.667969 250.019531 262.859375 249.476562 263.082031 248.945312 C 263.300781 248.414062 263.546875 247.894531 263.820312 247.382812 C 264.089844 246.875 264.386719 246.382812 264.707031 245.902344 C 265.027344 245.425781 265.371094 244.960938 265.738281 244.515625 C 266.101562 244.070312 266.488281 243.644531 266.894531 243.238281 C 267.304688 242.828125 267.730469 242.441406 268.175781 242.078125 C 268.621094 241.710938 269.082031 241.367188 269.5625 241.046875 C 270.042969 240.726562 270.535156 240.433594 271.042969 240.160156 C 271.550781 239.890625 272.074219 239.644531 272.605469 239.421875 C 273.136719 239.203125 273.679688 239.007812 274.230469 238.839844 C 274.78125 238.671875 275.339844 238.535156 275.90625 238.421875 C 276.472656 238.308594 277.039062 238.222656 277.613281 238.167969 C 278.1875 238.109375 278.761719 238.082031 279.339844 238.082031 C 280.390625 238.082031 281.441406 238.132812 282.488281 238.238281 C 283.535156 238.339844 284.574219 238.496094 285.605469 238.699219 C 286.636719 238.90625 287.65625 239.160156 288.664062 239.464844 C 289.667969 239.773438 290.660156 240.125 291.628906 240.527344 C 292.601562 240.929688 293.550781 241.378906 294.480469 241.875 C 295.40625 242.371094 296.308594 242.910156 297.183594 243.496094 C 298.058594 244.082031 298.902344 244.707031 299.714844 245.375 C 300.527344 246.042969 301.308594 246.746094 302.050781 247.492188 C 302.796875 248.234375 303.5 249.011719 304.167969 249.828125 C 304.835938 250.640625 305.460938 251.484375 306.046875 252.359375 C 306.628906 253.234375 307.171875 254.132812 307.667969 255.0625 C 308.164062 255.988281 308.613281 256.941406 309.015625 257.910156 C 309.417969 258.882812 309.769531 259.871094 310.074219 260.878906 C 310.382812 261.886719 310.636719 262.90625 310.84375 263.9375 C 311.046875 264.96875 311.203125 266.007812 311.304688 267.054688 C 311.40625 268.101562 311.460938 269.152344 311.460938 270.203125 L 311.460938 290.035156 Z M 311.460938 289.984375 " fill-opacity="1" fill-rule="nonzero"/></g><g clip-path="url(#aeff23afa9)"><path fill="#0097b2" d="M 311.640625 289.984375 L 280.507812 289.984375 C 280.507812 289.234375 280.582031 288.492188 280.730469 287.757812 C 280.875 287.019531 281.09375 286.308594 281.378906 285.613281 C 281.667969 284.921875 282.019531 284.261719 282.433594 283.640625 C 282.851562 283.015625 283.324219 282.4375 283.855469 281.90625 C 284.386719 281.378906 284.964844 280.902344 285.585938 280.488281 C 286.210938 280.070312 286.867188 279.71875 287.5625 279.429688 C 288.253906 279.144531 288.96875 278.925781 289.703125 278.78125 C 290.441406 278.636719 291.183594 278.5625 291.933594 278.5625 L 311.640625 278.5625 C 312.015625 278.5625 312.390625 278.597656 312.757812 278.671875 C 313.125 278.742188 313.484375 278.851562 313.832031 278.996094 C 314.179688 279.140625 314.507812 279.316406 314.820312 279.523438 C 315.132812 279.730469 315.421875 279.96875 315.6875 280.234375 C 315.953125 280.5 316.191406 280.789062 316.398438 281.101562 C 316.609375 281.414062 316.785156 281.742188 316.925781 282.089844 C 317.070312 282.4375 317.179688 282.796875 317.25 283.164062 C 317.324219 283.53125 317.359375 283.90625 317.359375 284.28125 C 317.359375 284.65625 317.324219 285.027344 317.25 285.394531 C 317.175781 285.761719 317.070312 286.121094 316.925781 286.464844 C 316.78125 286.8125 316.605469 287.140625 316.398438 287.453125 C 316.191406 287.765625 315.953125 288.054688 315.6875 288.320312 C 315.421875 288.585938 315.132812 288.820312 314.820312 289.03125 C 314.511719 289.238281 314.179688 289.414062 313.835938 289.558594 C 313.488281 289.703125 313.128906 289.808594 312.761719 289.882812 C 312.394531 289.957031 312.023438 289.992188 311.648438 289.992188 Z M 311.640625 289.984375 " fill-opacity="1" fill-rule="nonzero"/></g><path fill="#232323" d="M 163.65625 245.039062 L 163.445312 245.039062 C 162.945312 245.011719 162.46875 244.890625 162.015625 244.671875 C 161.566406 244.457031 161.171875 244.160156 160.835938 243.789062 C 160.503906 243.414062 160.25 242.992188 160.085938 242.519531 C 159.917969 242.046875 159.847656 241.5625 159.871094 241.0625 C 161.117188 217.988281 182.335938 209.46875 183.234375 209.117188 C 183.699219 208.945312 184.179688 208.871094 184.671875 208.886719 C 185.167969 208.90625 185.640625 209.015625 186.089844 209.21875 C 186.542969 209.421875 186.9375 209.703125 187.277344 210.0625 C 187.617188 210.421875 187.878906 210.832031 188.058594 211.292969 C 188.238281 211.753906 188.324219 212.230469 188.316406 212.722656 C 188.3125 213.21875 188.210938 213.695312 188.015625 214.148438 C 187.824219 214.605469 187.550781 215.003906 187.199219 215.355469 C 186.851562 215.703125 186.445312 215.972656 185.988281 216.160156 C 185.265625 216.445312 168.394531 223.34375 167.425781 241.46875 C 167.398438 241.949219 167.285156 242.410156 167.082031 242.847656 C 166.878906 243.285156 166.601562 243.671875 166.253906 244.003906 C 165.902344 244.335938 165.5 244.59375 165.054688 244.773438 C 164.605469 244.949219 164.136719 245.039062 163.65625 245.039062 Z M 163.65625 245.039062 " fill-opacity="1" fill-rule="nonzero"/><g clip-path="url(#8e52f627a0)"><path fill="#e9e8e4" d="M 170.9375 238.035156 C 171.515625 238.035156 172.089844 238.0625 172.664062 238.121094 C 173.234375 238.175781 173.804688 238.261719 174.371094 238.375 C 174.9375 238.484375 175.492188 238.625 176.046875 238.792969 C 176.597656 238.960938 177.140625 239.15625 177.671875 239.375 C 178.203125 239.59375 178.722656 239.839844 179.234375 240.113281 C 179.742188 240.386719 180.234375 240.679688 180.714844 241 C 181.191406 241.320312 181.65625 241.664062 182.101562 242.03125 C 182.546875 242.394531 182.972656 242.78125 183.378906 243.191406 C 183.789062 243.597656 184.175781 244.023438 184.539062 244.46875 C 184.90625 244.914062 185.25 245.375 185.570312 245.855469 C 185.890625 246.335938 186.183594 246.828125 186.457031 247.335938 C 186.726562 247.84375 186.972656 248.367188 187.195312 248.898438 C 187.414062 249.429688 187.609375 249.972656 187.777344 250.523438 C 187.945312 251.074219 188.082031 251.632812 188.195312 252.199219 C 188.308594 252.765625 188.394531 253.332031 188.449219 253.90625 C 188.507812 254.480469 188.535156 255.054688 188.535156 255.632812 L 188.535156 272.34375 C 188.535156 272.917969 188.507812 273.492188 188.449219 274.066406 C 188.394531 274.640625 188.308594 275.210938 188.195312 275.773438 C 188.082031 276.339844 187.945312 276.898438 187.777344 277.449219 C 187.609375 278 187.414062 278.542969 187.195312 279.074219 C 186.972656 279.609375 186.726562 280.128906 186.457031 280.636719 C 186.183594 281.144531 185.890625 281.640625 185.570312 282.117188 C 185.25 282.597656 184.90625 283.058594 184.539062 283.503906 C 184.175781 283.949219 183.789062 284.378906 183.378906 284.785156 C 182.972656 285.191406 182.546875 285.578125 182.101562 285.945312 C 181.65625 286.308594 181.191406 286.652344 180.714844 286.972656 C 180.234375 287.292969 179.742188 287.589844 179.234375 287.859375 C 178.722656 288.132812 178.203125 288.378906 177.671875 288.597656 C 177.140625 288.820312 176.597656 289.011719 176.046875 289.179688 C 175.492188 289.347656 174.9375 289.488281 174.371094 289.601562 C 173.804688 289.710938 173.234375 289.796875 172.664062 289.855469 C 172.089844 289.910156 171.515625 289.9375 170.9375 289.9375 L 138.816406 289.9375 L 138.816406 270.109375 C 138.820312 269.058594 138.871094 268.007812 138.976562 266.964844 C 139.082031 265.917969 139.234375 264.878906 139.441406 263.847656 C 139.648438 262.820312 139.90625 261.800781 140.210938 260.796875 C 140.519531 259.789062 140.871094 258.800781 141.277344 257.832031 C 141.679688 256.859375 142.128906 255.914062 142.625 254.984375 C 143.121094 254.058594 143.664062 253.160156 144.246094 252.285156 C 144.832031 251.414062 145.457031 250.570312 146.125 249.757812 C 146.792969 248.945312 147.5 248.167969 148.242188 247.425781 C 148.984375 246.683594 149.765625 245.980469 150.578125 245.3125 C 151.390625 244.648438 152.234375 244.023438 153.105469 243.4375 C 153.980469 242.855469 154.882812 242.316406 155.808594 241.820312 C 156.738281 241.328125 157.683594 240.878906 158.65625 240.476562 C 159.628906 240.074219 160.617188 239.722656 161.621094 239.417969 C 162.628906 239.113281 163.644531 238.855469 164.675781 238.652344 C 165.707031 238.445312 166.746094 238.292969 167.792969 238.191406 C 168.839844 238.085938 169.886719 238.035156 170.9375 238.035156 Z M 170.9375 238.035156 " fill-opacity="1" fill-rule="nonzero"/></g><g clip-path="url(#8236acfcd0)"><path fill="#0097b2" d="M 138.632812 278.570312 L 158.347656 278.570312 C 159.097656 278.570312 159.84375 278.640625 160.578125 278.789062 C 161.3125 278.933594 162.027344 279.152344 162.722656 279.4375 C 163.414062 279.726562 164.074219 280.078125 164.695312 280.492188 C 165.320312 280.910156 165.898438 281.382812 166.425781 281.914062 C 166.957031 282.445312 167.429688 283.023438 167.847656 283.644531 C 168.265625 284.269531 168.617188 284.929688 168.902344 285.621094 C 169.191406 286.3125 169.40625 287.027344 169.554688 287.765625 C 169.699219 288.5 169.773438 289.242188 169.773438 289.992188 L 138.640625 289.992188 C 138.265625 289.992188 137.898438 289.953125 137.53125 289.878906 C 137.164062 289.804688 136.808594 289.695312 136.460938 289.550781 C 136.117188 289.40625 135.789062 289.226562 135.480469 289.019531 C 135.167969 288.808594 134.882812 288.574219 134.617188 288.308594 C 134.355469 288.042969 134.117188 287.753906 133.910156 287.441406 C 133.703125 287.128906 133.527344 286.800781 133.386719 286.457031 C 133.242188 286.109375 133.136719 285.753906 133.0625 285.386719 C 132.992188 285.019531 132.957031 284.648438 132.957031 284.273438 C 132.957031 283.898438 132.992188 283.527344 133.066406 283.160156 C 133.140625 282.792969 133.246094 282.433594 133.390625 282.085938 C 133.535156 281.742188 133.710938 281.414062 133.917969 281.101562 C 134.128906 280.789062 134.363281 280.5 134.628906 280.234375 C 134.894531 279.96875 135.183594 279.734375 135.496094 279.523438 C 135.808594 279.316406 136.136719 279.140625 136.484375 278.996094 C 136.828125 278.851562 137.1875 278.746094 137.554688 278.671875 C 137.921875 278.597656 138.292969 278.5625 138.667969 278.5625 Z M 138.632812 278.570312 " fill-opacity="1" fill-rule="nonzero"/></g><path fill="#232323" d="M 325.21875 221.117188 L 315.011719 221.117188 C 314.511719 221.113281 314.03125 221.019531 313.566406 220.824219 C 313.105469 220.632812 312.695312 220.359375 312.34375 220.003906 C 311.988281 219.652344 311.714844 219.242188 311.523438 218.777344 C 311.332031 218.316406 311.234375 217.832031 311.238281 217.332031 C 311.234375 216.832031 311.332031 216.351562 311.523438 215.886719 C 311.714844 215.421875 311.988281 215.015625 312.34375 214.660156 C 312.695312 214.304688 313.105469 214.03125 313.566406 213.839844 C 314.03125 213.648438 314.511719 213.550781 315.011719 213.550781 L 325.21875 213.550781 C 326.765625 213.542969 328.148438 213.0625 329.367188 212.109375 L 339.289062 204.277344 C 339.683594 203.988281 340.117188 203.785156 340.59375 203.667969 C 341.066406 203.546875 341.546875 203.523438 342.03125 203.589844 C 342.515625 203.65625 342.96875 203.8125 343.394531 204.054688 C 343.816406 204.296875 344.179688 204.609375 344.484375 204.992188 C 344.785156 205.378906 345.007812 205.804688 345.144531 206.273438 C 345.28125 206.742188 345.328125 207.21875 345.277344 207.707031 C 345.230469 208.191406 345.09375 208.652344 344.867188 209.085938 C 344.640625 209.519531 344.34375 209.894531 343.972656 210.210938 L 334.050781 218.042969 C 332.792969 219.035156 331.40625 219.796875 329.894531 220.324219 C 328.378906 220.847656 326.820312 221.113281 325.21875 221.117188 Z M 325.21875 221.117188 " fill-opacity="1" fill-rule="nonzero"/><path fill="#232323" d="M 364.417969 169.519531 C 362.125 167.019531 358.5625 166.554688 356.472656 168.480469 L 348.011719 176.257812 C 345.921875 178.1875 346.082031 181.765625 348.382812 184.265625 C 350.679688 186.761719 354.238281 187.230469 356.328125 185.308594 L 360.558594 181.414062 L 364.789062 177.523438 C 366.867188 175.601562 366.707031 172.015625 364.417969 169.519531 Z M 364.417969 169.519531 " fill-opacity="1" fill-rule="nonzero"/><path fill="#d6d6d4" d="M 305.804688 191.460938 C 306.421875 191.488281 307.035156 191.542969 307.644531 191.628906 C 308.257812 191.714844 308.863281 191.832031 309.460938 191.976562 C 310.0625 192.121094 310.652344 192.296875 311.234375 192.5 C 311.816406 192.703125 312.386719 192.9375 312.945312 193.195312 C 313.507812 193.457031 314.050781 193.742188 314.582031 194.054688 C 315.113281 194.367188 315.628906 194.707031 316.128906 195.070312 C 316.625 195.433594 317.105469 195.824219 317.5625 196.234375 C 318.023438 196.644531 318.464844 197.078125 318.878906 197.53125 C 319.296875 197.984375 319.691406 198.457031 320.0625 198.953125 C 320.433594 199.445312 320.78125 199.953125 321.101562 200.480469 C 321.421875 201.007812 321.71875 201.546875 321.984375 202.105469 C 322.253906 202.660156 322.492188 203.226562 322.703125 203.808594 C 322.917969 204.386719 323.097656 204.976562 323.253906 205.570312 C 323.40625 206.167969 323.53125 206.773438 323.628906 207.382812 C 323.722656 207.992188 323.785156 208.605469 323.820312 209.21875 C 323.855469 209.835938 323.859375 210.453125 323.835938 211.070312 C 323.808594 211.683594 323.753906 212.296875 323.667969 212.910156 C 323.582031 213.519531 323.464844 214.125 323.320312 214.726562 C 323.175781 215.324219 323 215.914062 322.796875 216.496094 C 322.59375 217.078125 322.359375 217.652344 322.101562 218.210938 C 321.839844 218.769531 321.554688 219.316406 321.242188 219.847656 C 320.925781 220.378906 320.589844 220.894531 320.226562 221.390625 C 319.863281 221.890625 319.472656 222.367188 319.0625 222.828125 C 318.652344 223.289062 318.21875 223.726562 317.765625 224.144531 C 317.3125 224.5625 316.835938 224.957031 316.34375 225.328125 C 315.851562 225.699219 315.34375 226.042969 314.816406 226.363281 C 314.289062 226.6875 313.746094 226.980469 313.191406 227.25 C 312.636719 227.515625 312.070312 227.753906 311.488281 227.96875 C 310.910156 228.179688 310.320312 228.363281 309.722656 228.515625 C 309.128906 228.671875 308.523438 228.796875 307.914062 228.890625 C 307.304688 228.984375 306.691406 229.050781 306.074219 229.085938 C 305.460938 229.121094 304.84375 229.125 304.226562 229.097656 C 303.613281 229.074219 302.996094 229.015625 302.386719 228.929688 C 301.777344 228.84375 301.171875 228.726562 300.570312 228.582031 C 299.972656 228.4375 299.382812 228.261719 298.800781 228.058594 C 298.214844 227.855469 297.644531 227.625 297.085938 227.363281 C 296.527344 227.105469 295.980469 226.816406 295.449219 226.503906 C 294.917969 226.191406 294.402344 225.851562 293.90625 225.488281 C 293.40625 225.125 292.929688 224.738281 292.46875 224.328125 C 292.007812 223.914062 291.570312 223.484375 291.152344 223.027344 C 290.734375 222.574219 290.339844 222.101562 289.96875 221.609375 C 289.597656 221.117188 289.253906 220.605469 288.929688 220.078125 C 288.609375 219.550781 288.316406 219.011719 288.046875 218.457031 C 287.78125 217.898438 287.539062 217.332031 287.328125 216.753906 C 287.117188 216.171875 286.933594 215.585938 286.78125 214.988281 C 286.625 214.390625 286.5 213.789062 286.40625 213.175781 C 286.3125 212.566406 286.246094 211.957031 286.210938 211.339844 C 286.175781 210.722656 286.171875 210.109375 286.199219 209.492188 C 286.222656 208.875 286.28125 208.261719 286.367188 207.652344 C 286.453125 207.039062 286.566406 206.433594 286.714844 205.835938 C 286.859375 205.234375 287.035156 204.644531 287.238281 204.0625 C 287.441406 203.480469 287.671875 202.910156 287.933594 202.351562 C 288.191406 201.789062 288.476562 201.246094 288.792969 200.714844 C 289.105469 200.183594 289.445312 199.667969 289.808594 199.167969 C 290.171875 198.671875 290.558594 198.191406 290.96875 197.730469 C 291.382812 197.273438 291.8125 196.832031 292.265625 196.414062 C 292.722656 195.996094 293.195312 195.605469 293.6875 195.234375 C 294.179688 194.863281 294.691406 194.515625 295.21875 194.195312 C 295.742188 193.875 296.285156 193.578125 296.839844 193.3125 C 297.398438 193.042969 297.964844 192.804688 298.542969 192.59375 C 299.121094 192.378906 299.710938 192.195312 300.308594 192.042969 C 300.90625 191.886719 301.507812 191.765625 302.117188 191.667969 C 302.726562 191.574219 303.339844 191.507812 303.957031 191.476562 C 304.574219 191.441406 305.1875 191.4375 305.804688 191.460938 Z M 305.804688 191.460938 " fill-opacity="1" fill-rule="nonzero"/><path fill="#e9e8e4" d="M 370.902344 179.515625 C 371.617188 179.945312 372.304688 180.410156 372.972656 180.910156 C 373.640625 181.40625 374.28125 181.9375 374.894531 182.5 C 375.511719 183.0625 376.097656 183.652344 376.652344 184.269531 C 377.210938 184.890625 377.738281 185.535156 378.230469 186.203125 C 378.722656 186.875 379.183594 187.566406 379.609375 188.285156 C 380.035156 189 380.425781 189.734375 380.777344 190.488281 C 381.128906 191.242188 381.445312 192.011719 381.722656 192.796875 C 382.003906 193.582031 382.242188 194.378906 382.441406 195.1875 C 382.640625 195.996094 382.800781 196.8125 382.917969 197.636719 C 383.039062 198.460938 383.117188 199.289062 383.152344 200.121094 C 383.191406 200.953125 383.1875 201.785156 383.144531 202.617188 C 383.101562 203.449219 383.015625 204.277344 382.890625 205.097656 C 382.765625 205.921875 382.601562 206.738281 382.394531 207.542969 C 382.191406 208.351562 381.945312 209.148438 381.664062 209.929688 C 381.378906 210.710938 381.058594 211.480469 380.699219 212.230469 C 380.34375 212.984375 379.945312 213.714844 379.515625 214.429688 C 379.085938 215.140625 378.621094 215.832031 378.121094 216.496094 C 377.625 217.164062 377.09375 217.804688 376.53125 218.421875 C 375.972656 219.035156 375.382812 219.621094 374.761719 220.179688 C 374.144531 220.738281 373.5 221.261719 372.828125 221.753906 C 372.15625 222.25 371.464844 222.707031 370.75 223.132812 C 370.03125 223.558594 369.296875 223.949219 368.542969 224.304688 C 367.789062 224.65625 367.019531 224.972656 366.234375 225.25 C 365.449219 225.527344 364.652344 225.765625 363.84375 225.964844 C 363.035156 226.164062 362.21875 226.324219 361.394531 226.445312 C 360.570312 226.5625 359.742188 226.640625 358.910156 226.679688 C 358.078125 226.71875 357.246094 226.714844 356.417969 226.671875 C 355.585938 226.625 354.757812 226.542969 353.933594 226.417969 C 353.109375 226.292969 352.296875 226.128906 351.488281 225.921875 C 350.679688 225.714844 349.886719 225.472656 349.101562 225.1875 C 348.320312 224.90625 347.550781 224.585938 346.800781 224.226562 C 346.050781 223.867188 345.316406 223.472656 344.605469 223.042969 C 343.890625 222.613281 343.203125 222.148438 342.535156 221.648438 C 341.867188 221.148438 341.226562 220.621094 340.613281 220.058594 C 339.996094 219.496094 339.410156 218.90625 338.851562 218.289062 C 338.296875 217.667969 337.769531 217.023438 337.277344 216.355469 C 336.785156 215.683594 336.324219 214.988281 335.898438 214.273438 C 335.472656 213.558594 335.082031 212.824219 334.730469 212.070312 C 334.375 211.316406 334.0625 210.546875 333.78125 209.761719 C 333.503906 208.976562 333.265625 208.179688 333.066406 207.371094 C 332.867188 206.5625 332.707031 205.746094 332.589844 204.921875 C 332.46875 204.097656 332.390625 203.269531 332.351562 202.4375 C 332.316406 201.605469 332.316406 200.773438 332.363281 199.941406 C 332.40625 199.109375 332.488281 198.28125 332.613281 197.460938 C 332.742188 196.636719 332.90625 195.820312 333.109375 195.011719 C 333.316406 194.207031 333.558594 193.410156 333.84375 192.628906 C 334.125 191.84375 334.449219 191.078125 334.804688 190.328125 C 335.164062 189.574219 335.558594 188.84375 335.992188 188.128906 C 336.421875 187.417969 336.886719 186.726562 337.382812 186.058594 C 337.882812 185.394531 338.414062 184.75 338.972656 184.136719 C 339.535156 183.523438 340.125 182.9375 340.746094 182.378906 C 341.363281 181.820312 342.007812 181.296875 342.679688 180.800781 C 343.351562 180.308594 344.042969 179.847656 344.757812 179.421875 C 345.472656 178.996094 346.210938 178.609375 346.964844 178.253906 C 347.71875 177.902344 348.488281 177.585938 349.273438 177.308594 C 350.058594 177.03125 350.855469 176.792969 351.664062 176.59375 C 352.472656 176.394531 353.289062 176.234375 354.113281 176.113281 C 354.9375 175.996094 355.765625 175.917969 356.59375 175.878906 C 357.425781 175.839844 358.257812 175.84375 359.089844 175.886719 C 359.921875 175.929688 360.75 176.015625 361.574219 176.140625 C 362.398438 176.265625 363.210938 176.429688 364.019531 176.636719 C 364.824219 176.839844 365.621094 177.085938 366.402344 177.367188 C 367.1875 177.652344 367.953125 177.972656 368.707031 178.332031 C 369.457031 178.691406 370.191406 179.085938 370.902344 179.515625 Z M 370.902344 179.515625 " fill-opacity="1" fill-rule="nonzero"/><g clip-path="url(#eda0ae14e5)"><path fill="#232323" d="M 392.421875 186.167969 C 390.128906 183.667969 386.472656 183.289062 384.269531 185.320312 L 375.347656 193.515625 C 373.140625 195.546875 373.210938 199.214844 375.511719 201.710938 C 377.804688 204.210938 381.453125 204.589844 383.632812 202.558594 L 388.097656 198.457031 L 392.558594 194.355469 C 394.792969 192.339844 394.722656 188.664062 392.421875 186.167969 Z M 392.421875 186.167969 " fill-opacity="1" fill-rule="nonzero"/></g><path fill="#232323" d="M 384.632812 177.699219 C 382.339844 175.203125 378.691406 174.824219 376.511719 176.847656 L 367.558594 185.058594 C 365.351562 187.085938 365.417969 190.753906 367.71875 193.253906 C 370.015625 195.75 373.667969 196.128906 375.875 194.105469 L 380.335938 189.996094 L 384.796875 185.894531 C 387.003906 183.867188 386.933594 180.199219 384.632812 177.699219 Z M 384.632812 177.699219 " fill-opacity="1" fill-rule="nonzero"/><path fill="#232323" d="M 134.988281 221.117188 L 124.78125 221.117188 C 123.183594 221.109375 121.632812 220.84375 120.125 220.316406 C 118.617188 219.792969 117.234375 219.035156 115.984375 218.042969 L 106.027344 210.214844 C 105.65625 209.894531 105.355469 209.519531 105.128906 209.085938 C 104.90625 208.652344 104.769531 208.191406 104.71875 207.707031 C 104.671875 207.21875 104.71875 206.742188 104.855469 206.273438 C 104.992188 205.804688 105.210938 205.378906 105.515625 204.992188 C 105.816406 204.609375 106.183594 204.296875 106.605469 204.054688 C 107.03125 203.8125 107.484375 203.65625 107.96875 203.589844 C 108.453125 203.523438 108.933594 203.550781 109.40625 203.667969 C 109.878906 203.785156 110.316406 203.988281 110.710938 204.277344 L 120.632812 212.109375 C 121.851562 213.0625 123.234375 213.542969 124.78125 213.550781 L 134.988281 213.550781 C 135.488281 213.550781 135.972656 213.644531 136.433594 213.835938 C 136.898438 214.03125 137.308594 214.304688 137.660156 214.65625 C 138.015625 215.011719 138.289062 215.421875 138.480469 215.886719 C 138.675781 216.347656 138.769531 216.832031 138.769531 217.332031 C 138.769531 217.835938 138.675781 218.316406 138.480469 218.78125 C 138.289062 219.242188 138.015625 219.652344 137.660156 220.007812 C 137.308594 220.363281 136.898438 220.636719 136.433594 220.828125 C 135.972656 221.019531 135.488281 221.117188 134.988281 221.117188 Z M 134.988281 221.117188 " fill-opacity="1" fill-rule="nonzero"/><path fill="#232323" d="M 85.582031 169.519531 C 87.875 167.019531 91.433594 166.554688 93.527344 168.480469 L 101.988281 176.257812 C 104.078125 178.1875 103.914062 181.765625 101.613281 184.265625 C 99.320312 186.761719 95.761719 187.230469 93.667969 185.308594 L 89.4375 181.414062 L 85.207031 177.523438 C 83.132812 175.601562 83.292969 172.015625 85.582031 169.519531 Z M 85.582031 169.519531 " fill-opacity="1" fill-rule="nonzero"/><path fill="#d6d6d4" d="M 163.808594 209.488281 C 163.832031 210.101562 163.828125 210.71875 163.792969 211.335938 C 163.761719 211.949219 163.695312 212.5625 163.601562 213.171875 C 163.503906 213.78125 163.378906 214.386719 163.226562 214.984375 C 163.070312 215.582031 162.890625 216.167969 162.675781 216.75 C 162.464844 217.328125 162.226562 217.894531 161.957031 218.449219 C 161.691406 219.007812 161.394531 219.546875 161.074219 220.074219 C 160.753906 220.601562 160.40625 221.109375 160.035156 221.605469 C 159.664062 222.097656 159.269531 222.570312 158.855469 223.023438 C 158.4375 223.476562 157.996094 223.910156 157.539062 224.320312 C 157.078125 224.734375 156.597656 225.121094 156.101562 225.484375 C 155.601562 225.847656 155.085938 226.1875 154.554688 226.5 C 154.023438 226.8125 153.480469 227.101562 152.917969 227.359375 C 152.359375 227.621094 151.789062 227.851562 151.207031 228.054688 C 150.625 228.257812 150.035156 228.433594 149.433594 228.578125 C 148.835938 228.722656 148.230469 228.839844 147.617188 228.925781 C 147.007812 229.011719 146.394531 229.066406 145.777344 229.09375 C 145.160156 229.121094 144.546875 229.113281 143.929688 229.082031 C 143.3125 229.046875 142.699219 228.980469 142.089844 228.886719 C 141.480469 228.792969 140.878906 228.667969 140.28125 228.511719 C 139.683594 228.359375 139.097656 228.175781 138.515625 227.964844 C 137.9375 227.75 137.371094 227.511719 136.8125 227.242188 C 136.257812 226.976562 135.71875 226.679688 135.191406 226.359375 C 134.664062 226.039062 134.152344 225.695312 133.660156 225.324219 C 133.167969 224.953125 132.695312 224.558594 132.242188 224.140625 C 131.785156 223.722656 131.355469 223.285156 130.941406 222.824219 C 130.53125 222.363281 130.144531 221.882812 129.78125 221.386719 C 129.417969 220.886719 129.078125 220.375 128.765625 219.84375 C 128.453125 219.308594 128.164062 218.765625 127.90625 218.207031 C 127.644531 217.644531 127.414062 217.074219 127.210938 216.492188 C 127.007812 215.910156 126.832031 215.320312 126.6875 214.71875 C 126.539062 214.121094 126.425781 213.515625 126.339844 212.90625 C 126.253906 212.292969 126.195312 211.679688 126.171875 211.0625 C 126.144531 210.449219 126.148438 209.832031 126.183594 209.214844 C 126.21875 208.601562 126.285156 207.988281 126.378906 207.378906 C 126.472656 206.769531 126.597656 206.164062 126.753906 205.566406 C 126.90625 204.96875 127.089844 204.382812 127.300781 203.800781 C 127.511719 203.222656 127.753906 202.65625 128.019531 202.101562 C 128.289062 201.542969 128.582031 201.003906 128.902344 200.476562 C 129.226562 199.949219 129.570312 199.441406 129.941406 198.945312 C 130.3125 198.453125 130.707031 197.980469 131.125 197.527344 C 131.542969 197.074219 131.980469 196.640625 132.441406 196.230469 C 132.902344 195.816406 133.378906 195.429688 133.878906 195.066406 C 134.375 194.703125 134.890625 194.363281 135.421875 194.050781 C 135.953125 193.738281 136.5 193.449219 137.058594 193.191406 C 137.617188 192.929688 138.191406 192.699219 138.773438 192.496094 C 139.355469 192.292969 139.945312 192.117188 140.542969 191.972656 C 141.144531 191.828125 141.75 191.710938 142.359375 191.625 C 142.96875 191.539062 143.585938 191.484375 144.199219 191.457031 C 144.816406 191.429688 145.433594 191.433594 146.050781 191.46875 C 146.664062 191.503906 147.277344 191.570312 147.886719 191.664062 C 148.496094 191.757812 149.101562 191.882812 149.695312 192.039062 C 150.292969 192.191406 150.882812 192.375 151.460938 192.585938 C 152.042969 192.800781 152.609375 193.039062 153.164062 193.308594 C 153.71875 193.574219 154.261719 193.871094 154.789062 194.191406 C 155.316406 194.511719 155.824219 194.855469 156.316406 195.226562 C 156.8125 195.597656 157.285156 195.992188 157.738281 196.410156 C 158.191406 196.828125 158.625 197.265625 159.035156 197.726562 C 159.445312 198.1875 159.835938 198.667969 160.199219 199.164062 C 160.5625 199.664062 160.902344 200.175781 161.214844 200.707031 C 161.527344 201.238281 161.8125 201.785156 162.074219 202.34375 C 162.332031 202.90625 162.566406 203.476562 162.769531 204.058594 C 162.972656 204.640625 163.148438 205.230469 163.292969 205.832031 C 163.4375 206.429688 163.554688 207.035156 163.640625 207.644531 C 163.726562 208.257812 163.78125 208.871094 163.808594 209.488281 Z M 163.808594 209.488281 " fill-opacity="1" fill-rule="nonzero"/><path fill="#e9e8e4" d="M 101.945312 177.078125 C 102.71875 177.386719 103.472656 177.730469 104.214844 178.113281 C 104.953125 178.496094 105.671875 178.914062 106.371094 179.367188 C 107.070312 179.816406 107.746094 180.304688 108.398438 180.824219 C 109.046875 181.34375 109.671875 181.894531 110.269531 182.472656 C 110.867188 183.054688 111.433594 183.664062 111.96875 184.296875 C 112.507812 184.933594 113.011719 185.597656 113.484375 186.28125 C 113.957031 186.96875 114.394531 187.675781 114.796875 188.402344 C 115.199219 189.132812 115.566406 189.878906 115.894531 190.644531 C 116.226562 191.410156 116.515625 192.1875 116.769531 192.980469 C 117.023438 193.777344 117.234375 194.578125 117.410156 195.394531 C 117.582031 196.207031 117.714844 197.03125 117.808594 197.855469 C 117.902344 198.683594 117.957031 199.515625 117.964844 200.347656 C 117.976562 201.179688 117.949219 202.011719 117.878906 202.839844 C 117.808594 203.671875 117.699219 204.496094 117.546875 205.3125 C 117.394531 206.132812 117.207031 206.941406 116.976562 207.742188 C 116.746094 208.542969 116.476562 209.328125 116.167969 210.105469 C 115.859375 210.878906 115.515625 211.632812 115.132812 212.375 C 114.75 213.113281 114.332031 213.832031 113.878906 214.53125 C 113.425781 215.230469 112.941406 215.90625 112.421875 216.558594 C 111.902344 217.207031 111.351562 217.832031 110.769531 218.429688 C 110.191406 219.027344 109.582031 219.59375 108.945312 220.128906 C 108.308594 220.667969 107.648438 221.171875 106.960938 221.644531 C 106.277344 222.117188 105.570312 222.554688 104.839844 222.957031 C 104.113281 223.359375 103.363281 223.726562 102.601562 224.054688 C 101.835938 224.386719 101.054688 224.675781 100.261719 224.929688 C 99.46875 225.183594 98.664062 225.394531 97.851562 225.570312 C 97.035156 225.742188 96.214844 225.875 95.386719 225.96875 C 94.558594 226.0625 93.730469 226.113281 92.898438 226.125 C 92.066406 226.136719 91.234375 226.109375 90.402344 226.039062 C 89.574219 225.96875 88.75 225.859375 87.929688 225.707031 C 87.113281 225.554688 86.300781 225.367188 85.5 225.136719 C 84.703125 224.90625 83.914062 224.636719 83.140625 224.328125 C 82.367188 224.019531 81.609375 223.675781 80.871094 223.292969 C 80.128906 222.910156 79.410156 222.492188 78.710938 222.039062 C 78.015625 221.585938 77.339844 221.101562 76.6875 220.582031 C 76.035156 220.0625 75.414062 219.511719 74.816406 218.929688 C 74.21875 218.351562 73.652344 217.742188 73.113281 217.105469 C 72.578125 216.46875 72.070312 215.808594 71.601562 215.121094 C 71.128906 214.4375 70.691406 213.730469 70.289062 213 C 69.882812 212.269531 69.519531 211.523438 69.1875 210.757812 C 68.859375 209.996094 68.570312 209.214844 68.316406 208.421875 C 68.0625 207.628906 67.847656 206.824219 67.675781 206.011719 C 67.5 205.195312 67.367188 204.375 67.273438 203.546875 C 67.183594 202.71875 67.128906 201.890625 67.117188 201.058594 C 67.105469 200.222656 67.136719 199.394531 67.207031 198.5625 C 67.277344 197.734375 67.386719 196.910156 67.539062 196.089844 C 67.6875 195.269531 67.878906 194.460938 68.109375 193.660156 C 68.339844 192.863281 68.609375 192.074219 68.917969 191.300781 C 69.226562 190.527344 69.570312 189.769531 69.953125 189.03125 C 70.335938 188.289062 70.753906 187.570312 71.207031 186.871094 C 71.660156 186.171875 72.144531 185.5 72.664062 184.847656 C 73.183594 184.195312 73.734375 183.574219 74.3125 182.976562 C 74.894531 182.378906 75.503906 181.8125 76.140625 181.273438 C 76.773438 180.738281 77.4375 180.230469 78.121094 179.761719 C 78.808594 179.289062 79.515625 178.851562 80.246094 178.445312 C 80.972656 178.042969 81.71875 177.679688 82.484375 177.347656 C 83.25 177.019531 84.027344 176.726562 84.824219 176.476562 C 85.617188 176.222656 86.417969 176.007812 87.234375 175.835938 C 88.046875 175.660156 88.871094 175.527344 89.695312 175.433594 C 90.523438 175.34375 91.355469 175.289062 92.1875 175.277344 C 93.019531 175.265625 93.851562 175.296875 94.679688 175.367188 C 95.511719 175.433594 96.335938 175.546875 97.152344 175.695312 C 97.972656 175.847656 98.78125 176.039062 99.582031 176.269531 C 100.382812 176.5 101.171875 176.769531 101.945312 177.078125 Z M 101.945312 177.078125 " fill-opacity="1" fill-rule="nonzero"/><g clip-path="url(#88d6d0fff1)"><path fill="#232323" d="M 57.574219 186.167969 C 59.871094 183.667969 63.523438 183.289062 65.730469 185.320312 L 74.652344 193.515625 C 76.855469 195.546875 76.789062 199.214844 74.488281 201.710938 C 72.195312 204.210938 68.546875 204.589844 66.367188 202.558594 L 61.894531 198.46875 L 57.433594 194.371094 C 55.207031 192.339844 55.273438 188.664062 57.574219 186.167969 Z M 57.574219 186.167969 " fill-opacity="1" fill-rule="nonzero"/></g><path fill="#232323" d="M 65.367188 177.699219 C 67.660156 175.203125 71.308594 174.824219 73.488281 176.847656 L 82.441406 185.058594 C 84.648438 187.085938 84.578125 190.753906 82.277344 193.253906 C 79.984375 195.75 76.328125 196.128906 74.15625 194.105469 L 69.695312 189.996094 L 65.238281 185.894531 C 62.996094 183.867188 63.066406 180.199219 65.367188 177.699219 Z M 65.367188 177.699219 " fill-opacity="1" fill-rule="nonzero"/><path fill="#d6d6d4" d="M 144.507812 153.632812 C 145.1875 169.382812 145.597656 182.152344 129.851562 182.808594 C 128.910156 182.859375 127.96875 182.863281 127.027344 182.824219 C 126.085938 182.78125 125.148438 182.691406 124.214844 182.558594 C 123.285156 182.421875 122.359375 182.242188 121.445312 182.015625 C 120.53125 181.789062 119.628906 181.519531 118.742188 181.203125 C 117.855469 180.886719 116.984375 180.527344 116.132812 180.125 C 115.28125 179.722656 114.449219 179.28125 113.640625 178.796875 C 112.835938 178.3125 112.050781 177.789062 111.296875 177.230469 C 110.539062 176.667969 109.8125 176.070312 109.113281 175.4375 C 108.417969 174.804688 107.753906 174.136719 107.121094 173.4375 C 106.488281 172.738281 105.894531 172.007812 105.335938 171.25 C 104.777344 170.492188 104.257812 169.710938 103.773438 168.898438 C 103.292969 168.089844 102.851562 167.257812 102.453125 166.40625 C 102.054688 165.550781 101.699219 164.679688 101.386719 163.792969 C 101.070312 162.902344 100.804688 162 100.582031 161.085938 C 100.355469 160.171875 100.179688 159.246094 100.046875 158.3125 C 99.914062 157.382812 99.828125 156.445312 99.789062 155.503906 C 99.75 154.5625 99.757812 153.621094 99.8125 152.679688 C 99.863281 151.738281 99.964844 150.804688 100.113281 149.875 C 100.257812 148.941406 100.449219 148.019531 100.6875 147.109375 C 100.925781 146.199219 101.207031 145.300781 101.535156 144.417969 C 101.863281 143.53125 102.230469 142.667969 102.644531 141.820312 C 103.054688 140.972656 103.507812 140.148438 104.003906 139.347656 C 104.496094 138.542969 105.027344 137.769531 105.601562 137.019531 C 106.171875 136.269531 106.777344 135.550781 107.417969 134.859375 C 108.0625 134.171875 108.734375 133.515625 109.441406 132.890625 C 110.148438 132.269531 110.886719 131.683594 111.652344 131.132812 C 112.417969 130.585938 113.207031 130.074219 114.023438 129.601562 C 114.839844 129.128906 115.675781 128.699219 116.535156 128.3125 C 117.390625 127.921875 118.265625 127.578125 119.160156 127.277344 C 120.050781 126.972656 120.957031 126.71875 121.875 126.503906 C 122.792969 126.292969 123.71875 126.125 124.652344 126.007812 C 125.585938 125.886719 126.527344 125.8125 127.46875 125.785156 C 143.214844 125.121094 143.851562 137.882812 144.507812 153.632812 Z M 144.507812 153.632812 " fill-opacity="1" fill-rule="nonzero"/><path fill="#d6d6d4" d="M 315.410156 146.488281 C 316.089844 162.234375 316.710938 174.992188 332.460938 174.335938 C 333.394531 174.296875 334.324219 174.210938 335.25 174.082031 C 336.175781 173.953125 337.089844 173.777344 338 173.554688 C 338.910156 173.335938 339.804688 173.070312 340.6875 172.761719 C 341.570312 172.453125 342.433594 172.101562 343.28125 171.707031 C 344.128906 171.316406 344.957031 170.878906 345.761719 170.40625 C 346.566406 169.929688 347.347656 169.417969 348.101562 168.867188 C 348.855469 168.316406 349.582031 167.726562 350.277344 167.105469 C 350.976562 166.484375 351.640625 165.828125 352.273438 165.140625 C 352.90625 164.453125 353.503906 163.734375 354.066406 162.988281 C 354.628906 162.242188 355.152344 161.46875 355.640625 160.667969 C 356.125 159.871094 356.570312 159.050781 356.976562 158.210938 C 357.382812 157.367188 357.746094 156.507812 358.066406 155.628906 C 358.390625 154.75 358.667969 153.859375 358.902344 152.953125 C 359.132812 152.050781 359.324219 151.136719 359.464844 150.210938 C 359.609375 149.289062 359.707031 148.359375 359.761719 147.425781 C 359.8125 146.492188 359.820312 145.558594 359.78125 144.625 C 359.742188 143.691406 359.65625 142.761719 359.527344 141.835938 C 359.398438 140.910156 359.222656 139.992188 359 139.085938 C 358.78125 138.175781 358.515625 137.28125 358.207031 136.398438 C 357.898438 135.515625 357.546875 134.652344 357.152344 133.804688 C 356.761719 132.957031 356.324219 132.128906 355.851562 131.324219 C 355.375 130.519531 354.863281 129.738281 354.3125 128.984375 C 353.761719 128.230469 353.171875 127.503906 352.550781 126.804688 C 351.929688 126.109375 351.273438 125.445312 350.585938 124.8125 C 349.898438 124.179688 349.179688 123.582031 348.433594 123.019531 C 347.6875 122.457031 346.914062 121.933594 346.113281 121.445312 C 345.316406 120.960938 344.496094 120.511719 343.65625 120.109375 C 342.8125 119.703125 341.953125 119.339844 341.074219 119.015625 C 340.195312 118.695312 339.304688 118.417969 338.398438 118.183594 C 337.496094 117.949219 336.582031 117.761719 335.65625 117.617188 C 334.734375 117.472656 333.804688 117.375 332.871094 117.324219 C 331.9375 117.269531 331.003906 117.265625 330.070312 117.304688 C 314.335938 117.964844 314.753906 130.738281 315.410156 146.488281 Z M 315.410156 146.488281 " fill-opacity="1" fill-rule="nonzero"/><path fill="#e9e8e4" d="M 340.804688 140.207031 L 341.238281 150.613281 C 341.285156 151.78125 341.308594 152.949219 341.296875 154.117188 C 341.289062 155.289062 341.253906 156.453125 341.1875 157.621094 C 341.121094 158.789062 341.027344 159.953125 340.902344 161.113281 C 340.78125 162.277344 340.628906 163.433594 340.449219 164.589844 C 340.269531 165.746094 340.0625 166.894531 339.824219 168.039062 C 339.589844 169.183594 339.324219 170.320312 339.03125 171.453125 C 338.742188 172.582031 338.421875 173.707031 338.074219 174.824219 C 337.726562 175.9375 337.351562 177.042969 336.949219 178.140625 C 336.546875 179.238281 336.121094 180.324219 335.664062 181.402344 C 335.210938 182.480469 334.726562 183.542969 334.222656 184.597656 C 333.714844 185.648438 333.179688 186.6875 332.621094 187.714844 C 332.0625 188.742188 331.480469 189.753906 330.875 190.75 C 330.265625 191.75 329.632812 192.730469 328.976562 193.699219 C 328.320312 194.664062 327.640625 195.613281 326.9375 196.546875 C 326.234375 197.480469 325.507812 198.398438 324.761719 199.296875 C 324.011719 200.191406 323.246094 201.070312 322.453125 201.933594 C 321.660156 202.792969 320.851562 203.632812 320.019531 204.453125 C 319.1875 205.273438 318.332031 206.070312 317.460938 206.851562 C 316.589844 207.628906 315.699219 208.386719 314.792969 209.121094 C 313.882812 209.855469 312.957031 210.566406 312.011719 211.253906 C 311.070312 211.945312 310.109375 212.609375 309.132812 213.253906 C 308.15625 213.894531 307.164062 214.511719 306.160156 215.105469 C 305.152344 215.699219 304.132812 216.265625 303.097656 216.8125 C 302.0625 217.355469 301.015625 217.871094 299.957031 218.363281 C 298.894531 218.855469 297.824219 219.320312 296.742188 219.761719 C 295.660156 220.199219 294.566406 220.613281 293.460938 220.996094 C 292.359375 221.382812 291.246094 221.742188 290.125 222.070312 C 289.007812 222.402344 287.878906 222.707031 286.742188 222.980469 C 285.605469 223.257812 284.464844 223.503906 283.316406 223.722656 C 282.167969 223.945312 281.015625 224.136719 279.859375 224.296875 C 278.703125 224.460938 277.542969 224.59375 276.378906 224.699219 C 275.214844 224.808594 274.050781 224.882812 272.882812 224.933594 L 193.433594 228.257812 C 192.265625 228.304688 191.097656 228.324219 189.929688 228.316406 C 188.761719 228.308594 187.59375 228.269531 186.425781 228.207031 C 185.261719 228.140625 184.097656 228.046875 182.933594 227.921875 C 181.773438 227.800781 180.613281 227.648438 179.460938 227.46875 C 178.304688 227.289062 177.15625 227.078125 176.011719 226.84375 C 174.867188 226.605469 173.730469 226.34375 172.597656 226.050781 C 171.464844 225.757812 170.34375 225.4375 169.226562 225.089844 C 168.109375 224.746094 167.003906 224.371094 165.90625 223.96875 C 164.808594 223.566406 163.722656 223.136719 162.648438 222.683594 C 161.570312 222.226562 160.507812 221.746094 159.453125 221.238281 C 158.402344 220.730469 157.359375 220.199219 156.335938 219.640625 C 155.308594 219.082031 154.296875 218.5 153.296875 217.890625 C 152.300781 217.285156 151.316406 216.652344 150.351562 215.996094 C 149.382812 215.339844 148.433594 214.660156 147.5 213.957031 C 146.566406 213.253906 145.652344 212.527344 144.753906 211.78125 C 143.855469 211.03125 142.976562 210.261719 142.117188 209.472656 C 141.257812 208.679688 140.417969 207.867188 139.597656 207.035156 C 138.777344 206.203125 137.976562 205.351562 137.199219 204.480469 C 136.421875 203.609375 135.664062 202.71875 134.929688 201.808594 C 134.195312 200.902344 133.484375 199.976562 132.792969 199.03125 C 132.105469 198.089844 131.4375 197.128906 130.796875 196.152344 C 130.15625 195.175781 129.535156 194.183594 128.945312 193.175781 C 128.351562 192.171875 127.78125 191.148438 127.238281 190.117188 C 126.695312 189.082031 126.175781 188.035156 125.6875 186.972656 C 125.195312 185.914062 124.730469 184.84375 124.289062 183.757812 C 123.851562 182.675781 123.4375 181.582031 123.050781 180.480469 C 122.667969 179.378906 122.308594 178.265625 121.976562 177.144531 C 121.644531 176.023438 121.34375 174.894531 121.066406 173.761719 C 120.792969 172.625 120.542969 171.484375 120.324219 170.335938 C 120.105469 169.1875 119.914062 168.035156 119.75 166.878906 C 119.589844 165.722656 119.453125 164.5625 119.347656 163.398438 C 119.242188 162.234375 119.164062 161.066406 119.117188 159.902344 L 118.691406 149.523438 C 118.640625 148.359375 118.621094 147.191406 118.628906 146.019531 C 118.636719 144.851562 118.675781 143.683594 118.742188 142.519531 C 118.804688 141.351562 118.902344 140.1875 119.023438 139.027344 C 119.148438 137.863281 119.296875 136.707031 119.476562 135.550781 C 119.65625 134.394531 119.867188 133.246094 120.101562 132.101562 C 120.339844 130.957031 120.601562 129.820312 120.894531 128.6875 C 121.1875 127.558594 121.507812 126.433594 121.855469 125.316406 C 122.203125 124.203125 122.574219 123.09375 122.976562 122 C 123.378906 120.902344 123.808594 119.8125 124.261719 118.738281 C 124.71875 117.660156 125.199219 116.597656 125.707031 115.542969 C 126.214844 114.492188 126.746094 113.453125 127.304688 112.425781 C 127.863281 111.398438 128.445312 110.386719 129.054688 109.390625 C 129.664062 108.390625 130.292969 107.410156 130.949219 106.441406 C 131.605469 105.476562 132.285156 104.523438 132.988281 103.59375 C 133.691406 102.660156 134.417969 101.742188 135.164062 100.84375 C 135.914062 99.945312 136.683594 99.066406 137.472656 98.207031 C 138.265625 97.347656 139.078125 96.507812 139.910156 95.6875 C 140.742188 94.867188 141.59375 94.066406 142.464844 93.289062 C 143.335938 92.511719 144.226562 91.753906 145.136719 91.019531 C 146.042969 90.285156 146.96875 89.574219 147.914062 88.882812 C 148.859375 88.195312 149.816406 87.53125 150.792969 86.886719 C 151.769531 86.246094 152.761719 85.628906 153.769531 85.035156 C 154.773438 84.441406 155.796875 83.871094 156.832031 83.328125 C 157.863281 82.785156 158.910156 82.269531 159.972656 81.777344 C 161.03125 81.285156 162.101562 80.820312 163.1875 80.378906 C 164.269531 79.941406 165.363281 79.527344 166.464844 79.144531 C 167.566406 78.757812 168.679688 78.398438 169.800781 78.070312 C 170.921875 77.738281 172.050781 77.433594 173.183594 77.160156 C 174.320312 76.882812 175.460938 76.636719 176.609375 76.417969 C 177.757812 76.195312 178.910156 76.003906 180.066406 75.84375 C 181.222656 75.679688 182.382812 75.546875 183.546875 75.4375 C 184.710938 75.332031 185.878906 75.257812 187.046875 75.207031 L 266.488281 71.882812 C 267.652344 71.835938 268.820312 71.816406 269.988281 71.824219 C 271.15625 71.832031 272.324219 71.871094 273.492188 71.933594 C 274.65625 72 275.820312 72.097656 276.984375 72.21875 C 278.144531 72.339844 279.300781 72.492188 280.457031 72.671875 C 281.609375 72.851562 282.761719 73.0625 283.902344 73.296875 C 285.046875 73.53125 286.1875 73.796875 287.316406 74.089844 C 288.449219 74.382812 289.570312 74.699219 290.6875 75.046875 C 291.800781 75.394531 292.90625 75.769531 294.003906 76.171875 C 295.101562 76.574219 296.1875 77 297.265625 77.457031 C 298.339844 77.910156 299.40625 78.390625 300.457031 78.898438 C 301.507812 79.40625 302.546875 79.9375 303.574219 80.496094 C 304.601562 81.054688 305.613281 81.636719 306.609375 82.242188 C 307.609375 82.851562 308.589844 83.484375 309.558594 84.140625 C 310.523438 84.796875 311.472656 85.472656 312.40625 86.175781 C 313.339844 86.878906 314.257812 87.605469 315.152344 88.351562 C 316.050781 89.097656 316.929688 89.867188 317.789062 90.660156 C 318.648438 91.449219 319.492188 92.261719 320.308594 93.09375 C 321.128906 93.925781 321.929688 94.777344 322.707031 95.648438 C 323.488281 96.519531 324.242188 97.40625 324.976562 98.316406 C 325.710938 99.222656 326.425781 100.148438 327.113281 101.09375 C 327.804688 102.035156 328.46875 102.996094 329.109375 103.972656 C 329.753906 104.945312 330.371094 105.9375 330.964844 106.945312 C 331.558594 107.949219 332.125 108.96875 332.671875 110.003906 C 333.214844 111.039062 333.730469 112.085938 334.222656 113.144531 C 334.714844 114.203125 335.179688 115.273438 335.621094 116.355469 C 336.058594 117.4375 336.472656 118.53125 336.859375 119.632812 C 337.246094 120.738281 337.605469 121.847656 337.933594 122.96875 C 338.265625 124.089844 338.570312 125.214844 338.847656 126.351562 C 339.121094 127.484375 339.371094 128.628906 339.589844 129.773438 C 339.808594 130.921875 340.003906 132.074219 340.164062 133.230469 C 340.328125 134.386719 340.464844 135.546875 340.570312 136.710938 C 340.675781 137.875 340.753906 139.039062 340.804688 140.207031 Z M 340.804688 140.207031 " fill-opacity="1" fill-rule="nonzero"/><path fill="#d6d6d4" d="M 278.582031 195.582031 L 185.3125 199.484375 C 184.289062 199.527344 183.269531 199.46875 182.257812 199.308594 C 181.242188 199.148438 180.257812 198.890625 179.292969 198.539062 C 178.332031 198.183594 177.414062 197.738281 176.539062 197.203125 C 175.664062 196.667969 174.847656 196.054688 174.09375 195.359375 C 173.339844 194.664062 172.660156 193.902344 172.058594 193.074219 C 171.453125 192.246094 170.9375 191.367188 170.503906 190.4375 C 170.074219 189.507812 169.738281 188.542969 169.496094 187.546875 C 169.253906 186.550781 169.113281 185.539062 169.070312 184.515625 L 166.796875 130.214844 C 166.753906 129.191406 166.808594 128.171875 166.96875 127.15625 C 167.125 126.140625 167.382812 125.152344 167.734375 124.1875 C 168.085938 123.222656 168.53125 122.300781 169.066406 121.425781 C 169.597656 120.550781 170.214844 119.734375 170.910156 118.976562 C 171.605469 118.222656 172.367188 117.539062 173.195312 116.933594 C 174.023438 116.328125 174.90625 115.808594 175.835938 115.378906 C 176.769531 114.945312 177.734375 114.609375 178.730469 114.367188 C 179.726562 114.125 180.742188 113.984375 181.765625 113.941406 L 242.597656 111.394531 L 274.980469 110.042969 C 276.007812 109.996094 277.027344 110.054688 278.039062 110.210938 C 279.054688 110.371094 280.042969 110.625 281.007812 110.976562 C 281.972656 111.328125 282.894531 111.773438 283.769531 112.308594 C 284.648438 112.839844 285.464844 113.457031 286.21875 114.148438 C 286.976562 114.84375 287.65625 115.605469 288.261719 116.4375 C 288.867188 117.265625 289.386719 118.144531 289.820312 119.078125 C 290.25 120.007812 290.585938 120.972656 290.828125 121.96875 C 291.070312 122.96875 291.214844 123.980469 291.257812 125.003906 L 293.550781 179.304688 C 293.59375 180.328125 293.535156 181.351562 293.378906 182.363281 C 293.222656 183.378906 292.964844 184.367188 292.613281 185.332031 C 292.261719 186.296875 291.816406 187.21875 291.28125 188.09375 C 290.746094 188.972656 290.132812 189.789062 289.4375 190.542969 C 288.742188 191.300781 287.980469 191.980469 287.152344 192.585938 C 286.324219 193.191406 285.441406 193.710938 284.511719 194.140625 C 283.578125 194.574219 282.613281 194.910156 281.617188 195.152344 C 280.617188 195.394531 279.605469 195.539062 278.582031 195.582031 Z M 278.582031 195.582031 " fill-opacity="1" fill-rule="nonzero"/><path fill="#232323" d="M 278.382812 190.878906 L 185.117188 194.78125 C 184.09375 194.824219 183.074219 194.761719 182.058594 194.605469 C 181.046875 194.445312 180.058594 194.1875 179.097656 193.832031 C 178.136719 193.480469 177.214844 193.035156 176.339844 192.5 C 175.464844 191.964844 174.652344 191.351562 173.898438 190.65625 C 173.144531 189.960938 172.464844 189.199219 171.859375 188.371094 C 171.257812 187.542969 170.738281 186.664062 170.308594 185.734375 C 169.878906 184.804688 169.542969 183.839844 169.300781 182.84375 C 169.058594 181.847656 168.917969 180.835938 168.875 179.8125 L 166.597656 125.511719 C 166.558594 124.488281 166.613281 123.46875 166.773438 122.453125 C 166.929688 121.4375 167.1875 120.449219 167.539062 119.484375 C 167.894531 118.519531 168.335938 117.601562 168.871094 116.722656 C 169.40625 115.847656 170.019531 115.03125 170.714844 114.273438 C 171.410156 113.519531 172.171875 112.839844 173 112.234375 C 173.828125 111.628906 174.710938 111.109375 175.640625 110.675781 C 176.574219 110.242188 177.535156 109.90625 178.535156 109.664062 C 179.53125 109.421875 180.542969 109.277344 181.570312 109.234375 L 242.480469 106.691406 L 274.863281 105.339844 C 275.890625 105.292969 276.910156 105.351562 277.925781 105.511719 C 278.941406 105.667969 279.929688 105.921875 280.894531 106.277344 C 281.855469 106.628906 282.777344 107.070312 283.652344 107.605469 C 284.53125 108.140625 285.347656 108.753906 286.101562 109.449219 C 286.859375 110.144531 287.539062 110.90625 288.144531 111.734375 C 288.75 112.5625 289.269531 113.441406 289.703125 114.375 C 290.132812 115.304688 290.472656 116.269531 290.714844 117.265625 C 290.957031 118.265625 291.097656 119.277344 291.140625 120.300781 L 293.355469 174.605469 C 293.398438 175.632812 293.339844 176.652344 293.183594 177.667969 C 293.023438 178.683594 292.769531 179.671875 292.417969 180.636719 C 292.0625 181.597656 291.621094 182.519531 291.085938 183.394531 C 290.550781 184.273438 289.9375 185.089844 289.242188 185.84375 C 288.546875 186.601562 287.785156 187.28125 286.953125 187.886719 C 286.125 188.492188 285.246094 189.007812 284.3125 189.441406 C 283.382812 189.871094 282.417969 190.210938 281.417969 190.453125 C 280.421875 190.691406 279.410156 190.835938 278.382812 190.878906 Z M 278.382812 190.878906 " fill-opacity="1" fill-rule="nonzero"/><path fill="#d6d6d4" d="M 261.023438 72.085938 C 260.277344 73.476562 259.441406 74.808594 258.515625 76.085938 C 257.589844 77.359375 256.582031 78.570312 255.492188 79.710938 C 254.40625 80.851562 253.246094 81.914062 252.015625 82.902344 C 250.785156 83.886719 249.496094 84.785156 248.144531 85.597656 C 246.792969 86.410156 245.390625 87.128906 243.945312 87.753906 C 242.496094 88.378906 241.015625 88.90625 239.496094 89.332031 C 237.976562 89.757812 236.4375 90.082031 234.878906 90.300781 C 233.316406 90.519531 231.746094 90.636719 230.171875 90.644531 C 207.761719 91.132812 201.195312 74.605469 201.195312 74.605469 Z M 261.023438 72.085938 " fill-opacity="1" fill-rule="nonzero"/><path fill="#0097b2" d="M 287.265625 10.105469 C 246.535156 15.027344 234.996094 33.367188 231.875 45.441406 C 227.910156 36.644531 217.265625 25.355469 188.84375 24.054688 C 188.574219 24.039062 188.304688 24.054688 188.035156 24.101562 C 187.765625 24.148438 187.507812 24.226562 187.257812 24.335938 C 187.007812 24.445312 186.777344 24.585938 186.558594 24.75 C 186.34375 24.914062 186.148438 25.101562 185.976562 25.316406 C 185.804688 25.527344 185.664062 25.753906 185.546875 26 C 185.429688 26.246094 185.34375 26.503906 185.289062 26.769531 C 185.230469 27.035156 185.207031 27.304688 185.21875 27.578125 C 185.226562 27.851562 185.265625 28.117188 185.339844 28.378906 C 188.238281 39.730469 198.671875 68.425781 228.519531 58.390625 C 227.546875 63.761719 227.078125 69.175781 227.117188 74.632812 C 227.117188 74.914062 227.148438 75.195312 227.207031 75.472656 C 227.265625 75.75 227.347656 76.019531 227.460938 76.28125 C 227.574219 76.542969 227.710938 76.789062 227.871094 77.019531 C 228.03125 77.253906 228.214844 77.46875 228.421875 77.664062 C 228.625 77.859375 228.847656 78.035156 229.089844 78.183594 C 229.328125 78.335938 229.582031 78.460938 229.847656 78.5625 C 230.113281 78.660156 230.386719 78.734375 230.664062 78.777344 C 230.945312 78.824219 231.226562 78.839844 231.511719 78.828125 C 232.054688 78.804688 232.578125 78.683594 233.074219 78.460938 C 233.574219 78.234375 234.011719 77.925781 234.390625 77.535156 C 234.769531 77.140625 235.058594 76.691406 235.265625 76.183594 C 235.46875 75.675781 235.570312 75.152344 235.570312 74.605469 C 235.507812 69.15625 236.03125 63.765625 237.132812 58.429688 C 279.046875 69.644531 288.929688 27.972656 291.039062 14.058594 C 291.082031 13.796875 291.09375 13.535156 291.074219 13.273438 C 291.054688 13.007812 291.003906 12.75 290.925781 12.496094 C 290.847656 12.246094 290.738281 12.003906 290.605469 11.777344 C 290.472656 11.550781 290.3125 11.339844 290.128906 11.148438 C 289.949219 10.957031 289.746094 10.789062 289.523438 10.644531 C 289.300781 10.5 289.066406 10.382812 288.820312 10.292969 C 288.570312 10.203125 288.316406 10.140625 288.050781 10.109375 C 287.789062 10.078125 287.527344 10.078125 287.265625 10.105469 Z M 287.265625 10.105469 " fill-opacity="1" fill-rule="nonzero"/><path fill="#e9e8e4" d="M 205.648438 161.945312 C 204.925781 161.972656 204.210938 161.929688 203.496094 161.8125 C 202.78125 161.699219 202.085938 161.515625 201.410156 161.265625 C 200.730469 161.011719 200.082031 160.699219 199.46875 160.320312 C 198.851562 159.941406 198.28125 159.503906 197.75 159.011719 C 197.21875 158.519531 196.742188 157.984375 196.320312 157.398438 C 195.894531 156.8125 195.535156 156.1875 195.234375 155.53125 C 194.929688 154.875 194.695312 154.195312 194.53125 153.492188 C 194.363281 152.789062 194.265625 152.074219 194.238281 151.351562 C 194.199219 149.671875 194.425781 148.027344 194.917969 146.417969 L 216.207031 151.285156 C 216.1875 151.976562 216.101562 152.65625 215.953125 153.332031 C 215.804688 154.003906 215.59375 154.660156 215.324219 155.292969 C 215.050781 155.925781 214.722656 156.53125 214.335938 157.101562 C 213.953125 157.675781 213.515625 158.207031 213.03125 158.695312 C 212.546875 159.1875 212.019531 159.628906 211.449219 160.019531 C 210.878906 160.410156 210.28125 160.742188 209.648438 161.023438 C 209.015625 161.300781 208.367188 161.515625 207.691406 161.671875 C 207.019531 161.828125 206.339844 161.917969 205.648438 161.945312 Z M 205.648438 161.945312 " fill-opacity="1" fill-rule="nonzero"/><path fill="#e9e8e4" d="M 257.175781 157.714844 C 257.886719 157.59375 258.582031 157.402344 259.257812 157.144531 C 259.933594 156.886719 260.574219 156.566406 261.1875 156.179688 C 261.800781 155.796875 262.367188 155.355469 262.894531 154.859375 C 263.417969 154.363281 263.890625 153.820312 264.308594 153.230469 C 264.726562 152.640625 265.082031 152.015625 265.378906 151.355469 C 265.675781 150.695312 265.902344 150.011719 266.0625 149.304688 C 266.222656 148.601562 266.3125 147.886719 266.332031 147.164062 C 266.355469 146.441406 266.304688 145.722656 266.183594 145.011719 C 265.867188 143.355469 265.300781 141.792969 264.476562 140.320312 L 244.625 149.4375 C 244.789062 150.109375 245.011719 150.761719 245.296875 151.390625 C 245.582031 152.019531 245.921875 152.617188 246.320312 153.183594 C 246.714844 153.75 247.164062 154.273438 247.660156 154.757812 C 248.15625 155.238281 248.691406 155.667969 249.269531 156.050781 C 249.84375 156.429688 250.453125 156.753906 251.089844 157.019531 C 251.730469 157.285156 252.386719 157.492188 253.0625 157.632812 C 253.738281 157.777344 254.421875 157.855469 255.113281 157.867188 C 255.804688 157.882812 256.492188 157.832031 257.175781 157.714844 Z M 257.175781 157.714844 " fill-opacity="1" fill-rule="nonzero"/><path fill="#e9e8e4" d="M 219.871094 165 L 244.121094 164.105469 L 244.449219 173.070312 L 220.203125 173.96875 Z M 219.871094 165 " fill-opacity="1" fill-rule="nonzero"/></svg>