<svg xmlns="http://www.w3.org/2000/svg" xmlns:xlink="http://www.w3.org/1999/xlink" width="200" zoomAndPan="magnify" viewBox="0 0 150 299.999988" height="400" preserveAspectRatio="xMidYMid meet" version="1.0"><defs><clipPath id="964a3f1de9"><path d="M 0 0 L 150 0 L 150 101 L 0 101 Z M 0 0 " clip-rule="nonzero"/></clipPath><clipPath id="ea30372c03"><path d="M 70.648438 -100.230469 L 218.382812 18.847656 L 105.894531 158.40625 L -41.839844 39.328125 Z M 70.648438 -100.230469 " clip-rule="nonzero"/></clipPath><clipPath id="b400a31f6f"><path d="M 70.648438 -100.230469 L 218.382812 18.847656 L 105.894531 158.40625 L -41.839844 39.328125 Z M 70.648438 -100.230469 " clip-rule="nonzero"/></clipPath><clipPath id="9aecd0e07d"><path d="M 0 0 L 150 0 L 150 65 L 0 65 Z M 0 0 " clip-rule="nonzero"/></clipPath><clipPath id="b066b279c0"><path d="M 78.542969 -139.777344 L 218.765625 -11.941406 L 98.003906 120.527344 L -42.21875 -7.308594 Z M 78.542969 -139.777344 " clip-rule="nonzero"/></clipPath><clipPath id="6b37d57768"><path d="M 78.542969 -139.777344 L 218.765625 -11.941406 L 98.003906 120.527344 L -42.21875 -7.308594 Z M 78.542969 -139.777344 " clip-rule="nonzero"/></clipPath></defs><rect x="-15" width="180" fill="#ffffff" y="-29.999999" height="359.999986" fill-opacity="1"/><rect x="-15" width="180" fill="#f1f1e9" y="-29.999999" height="359.999986" fill-opacity="1"/><g clip-path="url(#964a3f1de9)"><g clip-path="url(#ea30372c03)"><g clip-path="url(#b400a31f6f)"><path fill="#5ce1e6" d="M 48.25 -18.800781 C 42.484375 -18.796875 37.796875 -18.796875 31.605469 -17.308594 C -2.847656 -9.039062 -29.484375 32.140625 -20.519531 48.6875 C -12.90625 62.746094 13.390625 46.078125 54.421875 61.695312 C 92.980469 76.375 94.773438 100.621094 121.511719 100.953125 C 151.816406 101.328125 175.292969 70.496094 185.242188 57.433594 C 195.214844 44.335938 208.929688 26.324219 202.972656 14.949219 C 195.238281 0.191406 166.390625 19.507812 121.203125 4.207031 C 95.738281 -4.414062 80.488281 -18.816406 48.25 -18.800781 Z M 48.25 -18.800781 " fill-opacity="1" fill-rule="nonzero"/></g></g></g><path fill="#38b6ff" d="M 16.402344 235.898438 C 11.917969 239.519531 8.265625 242.464844 4.378906 247.507812 C -17.253906 275.5625 -12.148438 324.34375 5.210938 331.601562 C 19.960938 337.769531 29.976562 308.285156 71.722656 294.695312 C 110.953125 281.929688 127.566406 299.679688 148.589844 283.160156 C 172.421875 264.433594 171.355469 225.695312 170.902344 209.28125 C 170.445312 192.824219 169.820312 170.195312 158.042969 165.078125 C 142.761719 158.441406 132.421875 191.585938 87.640625 208.03125 C 62.402344 217.296875 41.492188 215.65625 16.402344 235.898438 Z M 16.402344 235.898438 " fill-opacity="1" fill-rule="nonzero"/><g clip-path="url(#9aecd0e07d)"><g clip-path="url(#b066b279c0)"><g clip-path="url(#6b37d57768)"><path fill="#0097b2" d="M 51.234375 -59.855469 C 45.480469 -60.203125 40.800781 -60.488281 34.527344 -59.378906 C -0.359375 -53.21875 -29.449219 -13.734375 -21.511719 3.328125 C -14.765625 17.824219 12.5 2.78125 52.503906 20.867188 C 90.097656 37.859375 90.414062 62.167969 117.082031 64.125 C 147.308594 66.34375 172.617188 36.996094 183.339844 24.558594 C 194.09375 12.09375 208.875 -5.050781 203.621094 -16.769531 C 196.796875 -31.96875 166.828125 -14.441406 122.652344 -32.457031 C 97.761719 -42.613281 83.414062 -57.914062 51.234375 -59.855469 Z M 51.234375 -59.855469 " fill-opacity="1" fill-rule="nonzero"/></g></g></g></svg>