<svg xmlns="http://www.w3.org/2000/svg" xmlns:xlink="http://www.w3.org/1999/xlink" width="600" zoomAndPan="magnify" viewBox="0 0 450 299.999988" height="400" preserveAspectRatio="xMidYMid meet" version="1.0"><defs><g/><clipPath id="0c9292cc1b"><path d="M 54.273438 200 L 77 200 L 77 216 L 54.273438 216 Z M 54.273438 200 " clip-rule="nonzero"/></clipPath><clipPath id="751111fa05"><path d="M 348 196 L 370.773438 196 L 370.773438 212 L 348 212 Z M 348 196 " clip-rule="nonzero"/></clipPath><clipPath id="0d592361ee"><path d="M 210 235 L 258 235 L 258 284.402344 L 210 284.402344 Z M 210 235 " clip-rule="nonzero"/></clipPath><clipPath id="2ffbcb035e"><path d="M 217 273 L 253 273 L 253 284.402344 L 217 284.402344 Z M 217 273 " clip-rule="nonzero"/></clipPath><clipPath id="e4cd30a388"><path d="M 158 235 L 206 235 L 206 284.402344 L 158 284.402344 Z M 158 235 " clip-rule="nonzero"/></clipPath><clipPath id="43d6c9d932"><path d="M 163 273 L 199 273 L 199 284.402344 L 163 284.402344 Z M 163 273 " clip-rule="nonzero"/></clipPath><clipPath id="93739493bc"><path d="M 158 6.152344 L 257 6.152344 L 257 78 L 158 78 Z M 158 6.152344 " clip-rule="nonzero"/></clipPath></defs><g fill="#ffffff" fill-opacity="1"><g transform="translate(4.769225, 101.263287)"><g><path d="M 32.6875 -51.6875 C 39.25 -51.6875 44.710938 -49.191406 49.078125 -44.203125 C 53.441406 -39.210938 55.625 -33.109375 55.625 -25.890625 L 55.625 -8.5625 C 55.625 -7.050781 55.570312 -5.914062 55.46875 -5.15625 C 55.375 -4.40625 55.0625 -3.539062 54.53125 -2.5625 C 53.675781 -0.851562 51.148438 0 46.953125 0 C 42.953125 0 40.457031 -0.851562 39.46875 -2.5625 C 38.945312 -3.539062 38.632812 -4.425781 38.53125 -5.21875 C 38.4375 -6.007812 38.390625 -7.191406 38.390625 -8.765625 L 38.390625 -25.984375 C 38.390625 -28.679688 37.632812 -30.78125 36.125 -32.28125 C 34.613281 -33.789062 32.691406 -34.546875 30.359375 -34.546875 C 28.035156 -34.546875 25.988281 -33.835938 24.21875 -32.421875 C 22.445312 -31.015625 21.429688 -29.425781 21.171875 -27.65625 L 21.171875 -8.5625 C 21.171875 -7.050781 21.117188 -5.914062 21.015625 -5.15625 C 20.921875 -4.40625 20.609375 -3.539062 20.078125 -2.5625 C 19.222656 -0.851562 16.695312 0 12.5 0 C 8.363281 0 5.835938 -0.882812 4.921875 -2.65625 C 4.460938 -3.644531 4.179688 -4.5 4.078125 -5.21875 C 3.984375 -5.9375 3.9375 -7.082031 3.9375 -8.65625 L 3.9375 -67.53125 C 3.9375 -69.039062 3.984375 -70.171875 4.078125 -70.921875 C 4.179688 -71.679688 4.460938 -72.519531 4.921875 -73.4375 C 5.835938 -75.207031 8.394531 -76.09375 12.59375 -76.09375 C 16.726562 -76.09375 19.222656 -75.207031 20.078125 -73.4375 C 20.609375 -72.445312 20.921875 -71.570312 21.015625 -70.8125 C 21.117188 -70.0625 21.171875 -68.9375 21.171875 -67.4375 L 21.171875 -45.671875 C 24.453125 -49.679688 28.289062 -51.6875 32.6875 -51.6875 Z M 32.6875 -51.6875 "/></g></g></g><g fill="#ffffff" fill-opacity="1"><g transform="translate(65.796788, 101.263287)"><g><path d="M 26.96875 -0.203125 C 20.34375 -0.203125 14.847656 -2.710938 10.484375 -7.734375 C 6.117188 -12.753906 3.9375 -18.875 3.9375 -26.09375 L 3.9375 -43.3125 C 3.9375 -44.882812 3.984375 -46.03125 4.078125 -46.75 C 4.179688 -47.476562 4.460938 -48.332031 4.921875 -49.3125 C 5.835938 -51.082031 8.394531 -51.96875 12.59375 -51.96875 C 17.1875 -51.96875 19.878906 -50.722656 20.671875 -48.234375 C 21.066406 -47.179688 21.265625 -45.507812 21.265625 -43.21875 L 21.265625 -25.984375 C 21.265625 -23.296875 22.035156 -21.195312 23.578125 -19.6875 C 25.117188 -18.175781 27.1875 -17.421875 29.78125 -17.421875 C 32.375 -17.421875 34.472656 -18.207031 36.078125 -19.78125 C 37.679688 -21.363281 38.484375 -23.429688 38.484375 -25.984375 L 38.484375 -43.40625 C 38.484375 -44.914062 38.53125 -46.046875 38.625 -46.796875 C 38.726562 -47.554688 39.046875 -48.429688 39.578125 -49.421875 C 40.429688 -51.117188 42.957031 -51.96875 47.15625 -51.96875 C 51.289062 -51.96875 53.816406 -51.082031 54.734375 -49.3125 C 55.191406 -48.332031 55.46875 -47.460938 55.5625 -46.703125 C 55.664062 -45.953125 55.71875 -44.820312 55.71875 -43.3125 L 55.71875 -8.46875 C 55.71875 -7.019531 55.664062 -5.914062 55.5625 -5.15625 C 55.46875 -4.40625 55.160156 -3.570312 54.640625 -2.65625 C 53.648438 -0.945312 51.117188 -0.09375 47.046875 -0.09375 C 43.046875 -0.09375 40.585938 -0.882812 39.671875 -2.46875 C 39.015625 -3.582031 38.6875 -4.925781 38.6875 -6.5 C 38.425781 -6.039062 37.832031 -5.382812 36.90625 -4.53125 C 35.988281 -3.675781 35.101562 -2.953125 34.25 -2.359375 C 32.019531 -0.921875 29.59375 -0.203125 26.96875 -0.203125 Z M 26.96875 -0.203125 "/></g></g></g><g fill="#ffffff" fill-opacity="1"><g transform="translate(126.922784, 101.263287)"><g><path d="M 36.8125 -6.5 C 34.320312 -3.21875 30.351562 -1.578125 24.90625 -1.578125 C 19.457031 -1.578125 14.351562 -4.085938 9.59375 -9.109375 C 4.84375 -14.128906 2.46875 -19.984375 2.46875 -26.671875 C 2.46875 -33.367188 4.859375 -39.242188 9.640625 -44.296875 C 14.429688 -49.347656 19.679688 -51.875 25.390625 -51.875 C 27.628906 -51.875 29.664062 -51.460938 31.5 -50.640625 C 33.332031 -49.828125 34.59375 -49.070312 35.28125 -48.375 C 35.976562 -47.6875 36.523438 -47.050781 36.921875 -46.46875 C 37.109375 -48.300781 37.773438 -49.691406 38.921875 -50.640625 C 40.078125 -51.597656 41.929688 -52.078125 44.484375 -52.078125 C 47.046875 -52.078125 48.914062 -51.878906 50.09375 -51.484375 C 51.28125 -51.085938 52.117188 -50.410156 52.609375 -49.453125 C 53.109375 -48.503906 53.40625 -47.671875 53.5 -46.953125 C 53.601562 -46.234375 53.65625 -45.117188 53.65625 -43.609375 L 53.65625 -2.859375 C 53.65625 4.691406 51.03125 10.78125 45.78125 15.40625 C 40.53125 20.03125 34.625 22.34375 28.0625 22.34375 C 23.070312 22.34375 18.3125 21.128906 13.78125 18.703125 C 9.25 16.273438 6.984375 14.078125 6.984375 12.109375 C 6.984375 9.546875 7.96875 7.28125 9.9375 5.3125 C 11.1875 3.9375 12.15625 2.984375 12.84375 2.453125 C 13.53125 1.929688 14.332031 1.671875 15.25 1.671875 C 16.175781 1.671875 17.128906 2.066406 18.109375 2.859375 C 21.265625 5.285156 24.675781 6.5 28.34375 6.5 C 30.84375 6.5 32.878906 5.515625 34.453125 3.546875 C 36.023438 1.578125 36.8125 -0.785156 36.8125 -3.546875 Z M 19.296875 -26.625 C 19.296875 -24.488281 20.128906 -22.566406 21.796875 -20.859375 C 23.472656 -19.160156 25.507812 -18.3125 27.90625 -18.3125 C 30.300781 -18.3125 32.285156 -19.179688 33.859375 -20.921875 C 35.429688 -22.660156 36.21875 -24.5625 36.21875 -26.625 C 36.21875 -28.695312 35.460938 -30.632812 33.953125 -32.4375 C 32.453125 -34.238281 30.421875 -35.140625 27.859375 -35.140625 C 25.296875 -35.140625 23.226562 -34.253906 21.65625 -32.484375 C 20.082031 -30.710938 19.296875 -28.757812 19.296875 -26.625 Z M 19.296875 -26.625 "/></g></g></g><g fill="#ffffff" fill-opacity="1"><g transform="translate(185.981714, 101.263287)"><g><path d="M 4.328125 -4.625 C 3.085938 -5.414062 2.46875 -6.660156 2.46875 -8.359375 C 2.46875 -10.066406 3.710938 -12.660156 6.203125 -16.140625 C 6.921875 -17.253906 8.082031 -17.8125 9.6875 -17.8125 C 11.300781 -17.8125 13.484375 -17.007812 16.234375 -15.40625 C 18.992188 -13.800781 21.488281 -13 23.71875 -13 C 27.726562 -13 29.734375 -13.785156 29.734375 -15.359375 C 29.734375 -16.609375 27.535156 -17.523438 23.140625 -18.109375 C 19.003906 -18.703125 14.898438 -20.242188 10.828125 -22.734375 C 8.921875 -23.921875 7.34375 -25.773438 6.09375 -28.296875 C 4.851562 -30.828125 4.234375 -33.832031 4.234375 -37.3125 C 4.234375 -47.675781 11.351562 -52.859375 25.59375 -52.859375 C 30.25 -52.859375 35.039062 -51.742188 39.96875 -49.515625 C 42.257812 -48.460938 43.40625 -47.148438 43.40625 -45.578125 C 43.40625 -44.003906 42.679688 -42.066406 41.234375 -39.765625 C 39.796875 -37.472656 38.320312 -36.328125 36.8125 -36.328125 C 36.03125 -36.328125 34.570312 -36.816406 32.4375 -37.796875 C 30.300781 -38.785156 27.988281 -39.28125 25.5 -39.28125 C 21.625 -39.28125 19.6875 -38.554688 19.6875 -37.109375 C 19.6875 -35.140625 21.914062 -33.859375 26.375 -33.265625 C 30.707031 -32.804688 34.910156 -31.5625 38.984375 -29.53125 C 40.890625 -28.613281 42.476562 -27.019531 43.75 -24.75 C 45.03125 -22.488281 45.671875 -19.648438 45.671875 -16.234375 C 45.671875 -12.828125 45.03125 -9.925781 43.75 -7.53125 C 42.476562 -5.132812 40.691406 -3.347656 38.390625 -2.171875 C 34.191406 -0.128906 28.925781 0.890625 22.59375 0.890625 C 16.257812 0.890625 10.171875 -0.945312 4.328125 -4.625 Z M 4.328125 -4.625 "/></g></g></g><g fill="#ffffff" fill-opacity="1"><g transform="translate(235.59122, 101.263287)"><g/></g></g><g fill="#ffffff" fill-opacity="1"><g transform="translate(261.970884, 101.263287)"><g><path d="M 33.765625 -34.75 L 41.734375 -34.75 C 44.035156 -34.75 45.707031 -34.46875 46.75 -33.90625 C 47.800781 -33.351562 48.507812 -32.519531 48.875 -31.40625 C 49.238281 -30.289062 49.421875 -28.796875 49.421875 -26.921875 C 49.421875 -25.054688 49.253906 -23.5625 48.921875 -22.4375 C 48.597656 -21.320312 48.039062 -20.535156 47.25 -20.078125 C 46.070312 -19.492188 44.398438 -19.203125 42.234375 -19.203125 L 33.765625 -19.203125 L 33.765625 -11.21875 C 33.765625 -8.925781 33.484375 -7.253906 32.921875 -6.203125 C 32.367188 -5.148438 31.535156 -4.441406 30.421875 -4.078125 C 29.304688 -3.722656 27.8125 -3.546875 25.9375 -3.546875 C 24.070312 -3.546875 22.578125 -3.722656 21.453125 -4.078125 C 20.335938 -4.441406 19.550781 -5.050781 19.09375 -5.90625 C 18.507812 -7.15625 18.21875 -8.960938 18.21875 -11.328125 L 18.21875 -19.203125 L 9.640625 -19.203125 C 7.484375 -19.203125 5.910156 -19.460938 4.921875 -19.984375 C 3.941406 -20.503906 3.285156 -21.335938 2.953125 -22.484375 C 2.628906 -23.640625 2.46875 -25.132812 2.46875 -26.96875 C 2.46875 -28.8125 2.644531 -30.304688 3 -31.453125 C 3.363281 -32.597656 4.003906 -33.398438 4.921875 -33.859375 C 6.171875 -34.453125 7.976562 -34.75 10.34375 -34.75 L 18.21875 -34.75 L 18.21875 -42.71875 C 18.21875 -45.019531 18.476562 -46.691406 19 -47.734375 C 19.519531 -48.785156 20.351562 -49.492188 21.5 -49.859375 C 22.65625 -50.222656 24.148438 -50.40625 25.984375 -50.40625 C 27.828125 -50.40625 29.320312 -50.222656 30.46875 -49.859375 C 31.613281 -49.492188 32.414062 -48.882812 32.875 -48.03125 C 33.46875 -46.789062 33.765625 -44.988281 33.765625 -42.625 Z M 33.765625 -34.75 "/></g></g></g><g fill="#ffffff" fill-opacity="1"><g transform="translate(4.769225, 187.390852)"><g><path d="M 34.453125 -25.984375 L 47.546875 -15.15625 C 49.179688 -13.78125 50.210938 -12.726562 50.640625 -12 C 51.066406 -11.28125 51.28125 -10.59375 51.28125 -9.9375 C 51.28125 -8.363281 50.265625 -6.234375 48.234375 -3.546875 C 46.003906 -0.785156 44.035156 0.59375 42.328125 0.59375 C 40.878906 0.59375 38.878906 -0.359375 36.328125 -2.265625 L 35.34375 -2.953125 C 33.832031 -4.203125 31.5 -6.382812 28.34375 -9.5 C 25.195312 -12.613281 22.804688 -14.828125 21.171875 -16.140625 L 21.171875 -8.5625 C 21.171875 -7.050781 21.117188 -5.914062 21.015625 -5.15625 C 20.921875 -4.40625 20.609375 -3.539062 20.078125 -2.5625 C 19.222656 -0.851562 16.695312 0 12.5 0 C 8.363281 0 5.835938 -0.882812 4.921875 -2.65625 C 4.460938 -3.644531 4.179688 -4.515625 4.078125 -5.265625 C 3.984375 -6.023438 3.9375 -7.15625 3.9375 -8.65625 L 3.9375 -67.625 C 3.9375 -69.132812 3.984375 -70.265625 4.078125 -71.015625 C 4.179688 -71.773438 4.460938 -72.644531 4.921875 -73.625 C 5.835938 -75.40625 8.394531 -76.296875 12.59375 -76.296875 C 15.75 -76.296875 17.984375 -75.734375 19.296875 -74.609375 C 20.410156 -73.691406 21 -72.25 21.0625 -70.28125 C 21.132812 -69.695312 21.171875 -68.78125 21.171875 -67.53125 L 21.171875 -36.328125 C 22.347656 -37.304688 24.132812 -38.976562 26.53125 -41.34375 C 28.925781 -43.707031 30.710938 -45.378906 31.890625 -46.359375 L 33.078125 -47.15625 C 35.367188 -48.925781 37.332031 -49.8125 38.96875 -49.8125 C 40.613281 -49.8125 42.503906 -48.484375 44.640625 -45.828125 C 46.773438 -43.171875 47.84375 -41.085938 47.84375 -39.578125 C 47.84375 -38.066406 46.628906 -36.289062 44.203125 -34.25 Z M 34.453125 -25.984375 "/></g></g></g><g fill="#ffffff" fill-opacity="1"><g transform="translate(59.005009, 187.390852)"><g><path d="M 3.9375 -43.21875 C 3.9375 -44.726562 3.984375 -45.859375 4.078125 -46.609375 C 4.179688 -47.367188 4.460938 -48.238281 4.921875 -49.21875 C 5.835938 -50.925781 8.394531 -51.78125 12.59375 -51.78125 C 15.75 -51.78125 17.984375 -51.222656 19.296875 -50.109375 C 20.410156 -49.191406 21 -47.78125 21.0625 -45.875 C 21.132812 -45.21875 21.171875 -44.265625 21.171875 -43.015625 L 21.171875 -8.5625 C 21.171875 -7.050781 21.117188 -5.914062 21.015625 -5.15625 C 20.921875 -4.40625 20.609375 -3.539062 20.078125 -2.5625 C 19.222656 -0.851562 16.695312 0 12.5 0 C 8.363281 0 5.835938 -0.882812 4.921875 -2.65625 C 4.460938 -3.644531 4.179688 -4.5 4.078125 -5.21875 C 3.984375 -5.9375 3.9375 -7.082031 3.9375 -8.65625 Z M 20.125 -61.46875 C 19.632812 -60.519531 18.765625 -59.847656 17.515625 -59.453125 C 16.273438 -59.054688 14.617188 -58.859375 12.546875 -58.859375 C 10.484375 -58.859375 8.828125 -59.054688 7.578125 -59.453125 C 6.328125 -59.847656 5.457031 -60.535156 4.96875 -61.515625 C 4.476562 -62.503906 4.179688 -63.375 4.078125 -64.125 C 3.984375 -64.882812 3.9375 -66.019531 3.9375 -67.53125 C 3.9375 -69.039062 3.984375 -70.171875 4.078125 -70.921875 C 4.179688 -71.679688 4.460938 -72.519531 4.921875 -73.4375 C 5.835938 -75.207031 8.394531 -76.09375 12.59375 -76.09375 C 16.726562 -76.09375 19.222656 -75.207031 20.078125 -73.4375 C 20.609375 -72.445312 20.921875 -71.570312 21.015625 -70.8125 C 21.117188 -70.0625 21.171875 -68.929688 21.171875 -67.421875 C 21.171875 -65.921875 21.117188 -64.789062 21.015625 -64.03125 C 20.921875 -63.28125 20.625 -62.425781 20.125 -61.46875 Z M 20.125 -61.46875 "/></g></g></g><g fill="#ffffff" fill-opacity="1"><g transform="translate(85.581527, 187.390852)"><g><path d="M 4.328125 -4.625 C 3.085938 -5.414062 2.46875 -6.660156 2.46875 -8.359375 C 2.46875 -10.066406 3.710938 -12.660156 6.203125 -16.140625 C 6.921875 -17.253906 8.082031 -17.8125 9.6875 -17.8125 C 11.300781 -17.8125 13.484375 -17.007812 16.234375 -15.40625 C 18.992188 -13.800781 21.488281 -13 23.71875 -13 C 27.726562 -13 29.734375 -13.785156 29.734375 -15.359375 C 29.734375 -16.609375 27.535156 -17.523438 23.140625 -18.109375 C 19.003906 -18.703125 14.898438 -20.242188 10.828125 -22.734375 C 8.921875 -23.921875 7.34375 -25.773438 6.09375 -28.296875 C 4.851562 -30.828125 4.234375 -33.832031 4.234375 -37.3125 C 4.234375 -47.675781 11.351562 -52.859375 25.59375 -52.859375 C 30.25 -52.859375 35.039062 -51.742188 39.96875 -49.515625 C 42.257812 -48.460938 43.40625 -47.148438 43.40625 -45.578125 C 43.40625 -44.003906 42.679688 -42.066406 41.234375 -39.765625 C 39.796875 -37.472656 38.320312 -36.328125 36.8125 -36.328125 C 36.03125 -36.328125 34.570312 -36.816406 32.4375 -37.796875 C 30.300781 -38.785156 27.988281 -39.28125 25.5 -39.28125 C 21.625 -39.28125 19.6875 -38.554688 19.6875 -37.109375 C 19.6875 -35.140625 21.914062 -33.859375 26.375 -33.265625 C 30.707031 -32.804688 34.910156 -31.5625 38.984375 -29.53125 C 40.890625 -28.613281 42.476562 -27.019531 43.75 -24.75 C 45.03125 -22.488281 45.671875 -19.648438 45.671875 -16.234375 C 45.671875 -12.828125 45.03125 -9.925781 43.75 -7.53125 C 42.476562 -5.132812 40.691406 -3.347656 38.390625 -2.171875 C 34.191406 -0.128906 28.925781 0.890625 22.59375 0.890625 C 16.257812 0.890625 10.171875 -0.945312 4.328125 -4.625 Z M 4.328125 -4.625 "/></g></g></g><g fill="#ffffff" fill-opacity="1"><g transform="translate(135.191023, 187.390852)"><g><path d="M 4.328125 -4.625 C 3.085938 -5.414062 2.46875 -6.660156 2.46875 -8.359375 C 2.46875 -10.066406 3.710938 -12.660156 6.203125 -16.140625 C 6.921875 -17.253906 8.082031 -17.8125 9.6875 -17.8125 C 11.300781 -17.8125 13.484375 -17.007812 16.234375 -15.40625 C 18.992188 -13.800781 21.488281 -13 23.71875 -13 C 27.726562 -13 29.734375 -13.785156 29.734375 -15.359375 C 29.734375 -16.609375 27.535156 -17.523438 23.140625 -18.109375 C 19.003906 -18.703125 14.898438 -20.242188 10.828125 -22.734375 C 8.921875 -23.921875 7.34375 -25.773438 6.09375 -28.296875 C 4.851562 -30.828125 4.234375 -33.832031 4.234375 -37.3125 C 4.234375 -47.675781 11.351562 -52.859375 25.59375 -52.859375 C 30.25 -52.859375 35.039062 -51.742188 39.96875 -49.515625 C 42.257812 -48.460938 43.40625 -47.148438 43.40625 -45.578125 C 43.40625 -44.003906 42.679688 -42.066406 41.234375 -39.765625 C 39.796875 -37.472656 38.320312 -36.328125 36.8125 -36.328125 C 36.03125 -36.328125 34.570312 -36.816406 32.4375 -37.796875 C 30.300781 -38.785156 27.988281 -39.28125 25.5 -39.28125 C 21.625 -39.28125 19.6875 -38.554688 19.6875 -37.109375 C 19.6875 -35.140625 21.914062 -33.859375 26.375 -33.265625 C 30.707031 -32.804688 34.910156 -31.5625 38.984375 -29.53125 C 40.890625 -28.613281 42.476562 -27.019531 43.75 -24.75 C 45.03125 -22.488281 45.671875 -19.648438 45.671875 -16.234375 C 45.671875 -12.828125 45.03125 -9.925781 43.75 -7.53125 C 42.476562 -5.132812 40.691406 -3.347656 38.390625 -2.171875 C 34.191406 -0.128906 28.925781 0.890625 22.59375 0.890625 C 16.257812 0.890625 10.171875 -0.945312 4.328125 -4.625 Z M 4.328125 -4.625 "/></g></g></g><g fill="#ffffff" fill-opacity="1"><g transform="translate(184.800528, 187.390852)"><g><path d="M 53.9375 -32.140625 C 53.9375 -28.109375 52.9375 -25.125 50.9375 -23.1875 C 48.9375 -21.25 46.722656 -20.28125 44.296875 -20.28125 L 20.96875 -20.28125 C 20.96875 -18.4375 22.050781 -16.890625 24.21875 -15.640625 C 26.382812 -14.398438 28.550781 -13.78125 30.71875 -13.78125 C 34.519531 -13.78125 37.503906 -14.175781 39.671875 -14.96875 L 40.75 -15.359375 C 42.320312 -16.078125 43.632812 -16.4375 44.6875 -16.4375 C 46.789062 -16.4375 48.597656 -14.960938 50.109375 -12.015625 C 50.960938 -10.242188 51.390625 -8.734375 51.390625 -7.484375 C 51.390625 -1.640625 44.398438 1.28125 30.421875 1.28125 C 25.566406 1.28125 21.25 0.445312 17.46875 -1.21875 C 13.695312 -2.894531 10.757812 -5.113281 8.65625 -7.875 C 4.53125 -13.1875 2.46875 -19.125 2.46875 -25.6875 C 2.46875 -33.957031 5.140625 -40.566406 10.484375 -45.515625 C 15.828125 -50.472656 22.503906 -52.953125 30.515625 -52.953125 C 39.640625 -52.953125 46.332031 -49.738281 50.59375 -43.3125 C 52.820312 -39.894531 53.9375 -36.171875 53.9375 -32.140625 Z M 33.171875 -29.234375 C 35.671875 -29.234375 36.921875 -30.285156 36.921875 -32.390625 C 36.921875 -33.898438 36.34375 -35.113281 35.1875 -36.03125 C 34.039062 -36.945312 32.398438 -37.40625 30.265625 -37.40625 C 28.140625 -37.40625 26.023438 -36.535156 23.921875 -34.796875 C 21.816406 -33.054688 20.765625 -31.203125 20.765625 -29.234375 Z M 33.171875 -29.234375 "/></g></g></g><g fill="#ffffff" fill-opacity="1"><g transform="translate(242.678282, 187.390852)"><g><path d="M 4.328125 -4.625 C 3.085938 -5.414062 2.46875 -6.660156 2.46875 -8.359375 C 2.46875 -10.066406 3.710938 -12.660156 6.203125 -16.140625 C 6.921875 -17.253906 8.082031 -17.8125 9.6875 -17.8125 C 11.300781 -17.8125 13.484375 -17.007812 16.234375 -15.40625 C 18.992188 -13.800781 21.488281 -13 23.71875 -13 C 27.726562 -13 29.734375 -13.785156 29.734375 -15.359375 C 29.734375 -16.609375 27.535156 -17.523438 23.140625 -18.109375 C 19.003906 -18.703125 14.898438 -20.242188 10.828125 -22.734375 C 8.921875 -23.921875 7.34375 -25.773438 6.09375 -28.296875 C 4.851562 -30.828125 4.234375 -33.832031 4.234375 -37.3125 C 4.234375 -47.675781 11.351562 -52.859375 25.59375 -52.859375 C 30.25 -52.859375 35.039062 -51.742188 39.96875 -49.515625 C 42.257812 -48.460938 43.40625 -47.148438 43.40625 -45.578125 C 43.40625 -44.003906 42.679688 -42.066406 41.234375 -39.765625 C 39.796875 -37.472656 38.320312 -36.328125 36.8125 -36.328125 C 36.03125 -36.328125 34.570312 -36.816406 32.4375 -37.796875 C 30.300781 -38.785156 27.988281 -39.28125 25.5 -39.28125 C 21.625 -39.28125 19.6875 -38.554688 19.6875 -37.109375 C 19.6875 -35.140625 21.914062 -33.859375 26.375 -33.265625 C 30.707031 -32.804688 34.910156 -31.5625 38.984375 -29.53125 C 40.890625 -28.613281 42.476562 -27.019531 43.75 -24.75 C 45.03125 -22.488281 45.671875 -19.648438 45.671875 -16.234375 C 45.671875 -12.828125 45.03125 -9.925781 43.75 -7.53125 C 42.476562 -5.132812 40.691406 -3.347656 38.390625 -2.171875 C 34.191406 -0.128906 28.925781 0.890625 22.59375 0.890625 C 16.257812 0.890625 10.171875 -0.945312 4.328125 -4.625 Z M 4.328125 -4.625 "/></g></g></g><g fill="#ffffff" fill-opacity="1"><g transform="translate(4.769225, 227.4279)"><g><path d="M 10.84375 -4.546875 L 14.140625 -4.546875 C 13.835938 -3.628906 13.363281 -2.8125 12.71875 -2.09375 C 12.070312 -1.382812 11.304688 -0.820312 10.421875 -0.40625 C 9.546875 0 8.597656 0.203125 7.578125 0.203125 C 6.628906 0.203125 5.738281 0.0234375 4.90625 -0.328125 C 4.070312 -0.679688 3.335938 -1.175781 2.703125 -1.8125 C 2.066406 -2.457031 1.570312 -3.195312 1.21875 -4.03125 C 0.863281 -4.863281 0.6875 -5.75 0.6875 -6.6875 C 0.6875 -7.632812 0.863281 -8.523438 1.21875 -9.359375 C 1.570312 -10.191406 2.066406 -10.925781 2.703125 -11.5625 C 3.335938 -12.195312 4.070312 -12.691406 4.90625 -13.046875 C 5.738281 -13.398438 6.628906 -13.578125 7.578125 -13.578125 C 8.597656 -13.578125 9.546875 -13.375 10.421875 -12.96875 C 11.296875 -12.5625 12.050781 -12.003906 12.6875 -11.296875 C 13.332031 -10.597656 13.804688 -9.789062 14.109375 -8.875 L 10.828125 -8.875 C 10.554688 -9.476562 10.117188 -9.953125 9.515625 -10.296875 C 8.910156 -10.648438 8.265625 -10.828125 7.578125 -10.828125 C 6.859375 -10.828125 6.203125 -10.640625 5.609375 -10.265625 C 5.015625 -9.890625 4.546875 -9.390625 4.203125 -8.765625 C 3.859375 -8.140625 3.6875 -7.445312 3.6875 -6.6875 C 3.6875 -5.925781 3.859375 -5.234375 4.203125 -4.609375 C 4.546875 -3.992188 5.015625 -3.5 5.609375 -3.125 C 6.203125 -2.75 6.859375 -2.5625 7.578125 -2.5625 C 8.273438 -2.5625 8.925781 -2.742188 9.53125 -3.109375 C 10.132812 -3.472656 10.570312 -3.953125 10.84375 -4.546875 Z M 10.84375 -4.546875 "/></g></g></g><g fill="#ffffff" fill-opacity="1"><g transform="translate(23.333435, 227.4279)"><g><path d="M 11.515625 -6.71875 C 11.515625 -7.40625 11.332031 -8.046875 10.96875 -8.640625 C 10.601562 -9.242188 10.117188 -9.726562 9.515625 -10.09375 C 8.921875 -10.46875 8.273438 -10.65625 7.578125 -10.65625 C 6.898438 -10.65625 6.257812 -10.46875 5.65625 -10.09375 C 5.050781 -9.726562 4.5625 -9.242188 4.1875 -8.640625 C 3.820312 -8.046875 3.640625 -7.40625 3.640625 -6.71875 C 3.640625 -6.03125 3.820312 -5.382812 4.1875 -4.78125 C 4.5625 -4.175781 5.050781 -3.6875 5.65625 -3.3125 C 6.257812 -2.9375 6.898438 -2.75 7.578125 -2.75 C 8.273438 -2.75 8.921875 -2.9375 9.515625 -3.3125 C 10.117188 -3.6875 10.601562 -4.175781 10.96875 -4.78125 C 11.332031 -5.382812 11.515625 -6.03125 11.515625 -6.71875 Z M 14.46875 -6.6875 C 14.46875 -5.769531 14.285156 -4.894531 13.921875 -4.0625 C 13.554688 -3.226562 13.050781 -2.492188 12.40625 -1.859375 C 11.769531 -1.222656 11.039062 -0.71875 10.21875 -0.34375 C 9.394531 0.0195312 8.515625 0.203125 7.578125 0.203125 C 6.660156 0.203125 5.785156 0.0195312 4.953125 -0.34375 C 4.117188 -0.71875 3.382812 -1.222656 2.75 -1.859375 C 2.113281 -2.492188 1.609375 -3.226562 1.234375 -4.0625 C 0.867188 -4.894531 0.6875 -5.769531 0.6875 -6.6875 C 0.6875 -7.625 0.867188 -8.503906 1.234375 -9.328125 C 1.609375 -10.160156 2.113281 -10.894531 2.75 -11.53125 C 3.382812 -12.164062 4.117188 -12.664062 4.953125 -13.03125 C 5.785156 -13.394531 6.660156 -13.578125 7.578125 -13.578125 C 8.515625 -13.578125 9.394531 -13.394531 10.21875 -13.03125 C 11.039062 -12.664062 11.769531 -12.164062 12.40625 -11.53125 C 13.050781 -10.894531 13.554688 -10.160156 13.921875 -9.328125 C 14.285156 -8.503906 14.46875 -7.625 14.46875 -6.6875 Z M 14.46875 -6.6875 "/></g></g></g><g fill="#ffffff" fill-opacity="1"><g transform="translate(42.429174, 227.4279)"><g><path d="M 17.875 0 L 14.625 0 L 13.046875 -9.234375 L 10.4375 0 L 7.546875 0 L 4.921875 -9.234375 L 3.34375 0 L 0.09375 0 L 2.703125 -13.390625 L 6.203125 -13.390625 L 9 -4 L 11.765625 -13.390625 L 15.28125 -13.390625 Z M 17.875 0 "/></g></g></g><g fill="#ffffff" fill-opacity="1"><g transform="translate(64.340065, 227.4279)"><g><path d="M 4.140625 0 L 1.1875 0 L 1.1875 -13.390625 L 4.140625 -13.390625 Z M 4.140625 0 "/></g></g></g><g fill="#ffffff" fill-opacity="1"><g transform="translate(73.592636, 227.4279)"><g><path d="M 11.6875 0 L 8.734375 0 L 4.140625 -8.34375 L 4.140625 0 L 1.1875 0 L 1.1875 -13.390625 L 4.140625 -13.390625 L 8.734375 -5.046875 L 8.734375 -13.390625 L 11.6875 -13.390625 Z M 11.6875 0 "/></g></g></g><g fill="#ffffff" fill-opacity="1"><g transform="translate(90.404762, 227.4279)"><g><path d="M 7.875 -10.828125 C 7.164062 -10.828125 6.515625 -10.632812 5.921875 -10.25 C 5.335938 -9.875 4.867188 -9.367188 4.515625 -8.734375 C 4.160156 -8.109375 3.984375 -7.414062 3.984375 -6.65625 C 3.984375 -5.90625 4.160156 -5.210938 4.515625 -4.578125 C 4.867188 -3.941406 5.335938 -3.429688 5.921875 -3.046875 C 6.515625 -2.671875 7.164062 -2.484375 7.875 -2.484375 C 8.3125 -2.484375 8.769531 -2.546875 9.25 -2.671875 C 9.726562 -2.796875 10.171875 -3.035156 10.578125 -3.390625 C 10.992188 -3.742188 11.320312 -4.253906 11.5625 -4.921875 L 8.15625 -4.921875 L 8.15625 -7.140625 L 14.75 -7.140625 L 14.75 -6.6875 C 14.75 -5.75 14.570312 -4.863281 14.21875 -4.03125 C 13.863281 -3.195312 13.367188 -2.457031 12.734375 -1.8125 C 12.109375 -1.175781 11.378906 -0.679688 10.546875 -0.328125 C 9.722656 0.0234375 8.832031 0.203125 7.875 0.203125 C 6.925781 0.203125 6.035156 0.0195312 5.203125 -0.34375 C 4.367188 -0.707031 3.632812 -1.203125 3 -1.828125 C 2.375 -2.460938 1.878906 -3.195312 1.515625 -4.03125 C 1.160156 -4.863281 0.984375 -5.75 0.984375 -6.6875 C 0.984375 -7.632812 1.160156 -8.523438 1.515625 -9.359375 C 1.878906 -10.191406 2.375 -10.921875 3 -11.546875 C 3.632812 -12.179688 4.367188 -12.675781 5.203125 -13.03125 C 6.035156 -13.394531 6.925781 -13.578125 7.875 -13.578125 C 8.851562 -13.578125 9.78125 -13.378906 10.65625 -12.984375 C 11.539062 -12.585938 12.3125 -12.035156 12.96875 -11.328125 C 13.625 -10.628906 14.101562 -9.8125 14.40625 -8.875 L 11.15625 -8.875 C 10.832031 -9.582031 10.367188 -10.082031 9.765625 -10.375 C 9.160156 -10.675781 8.53125 -10.828125 7.875 -10.828125 Z M 7.875 -10.828125 "/></g></g></g><g fill="#ffffff" fill-opacity="1"><g transform="translate(109.776114, 227.4279)"><g/></g></g><g fill="#ffffff" fill-opacity="1"><g transform="translate(118.634955, 227.4279)"><g><path d="M 5.09375 0 L 5.09375 -6.390625 L 0.15625 -13.390625 L 3.6875 -13.390625 L 6.578125 -8.765625 L 9.46875 -13.390625 L 13 -13.390625 L 8.046875 -6.390625 L 8.046875 0 Z M 5.09375 0 "/></g></g></g><g fill="#ffffff" fill-opacity="1"><g transform="translate(135.722683, 227.4279)"><g><path d="M 11.515625 -6.71875 C 11.515625 -7.40625 11.332031 -8.046875 10.96875 -8.640625 C 10.601562 -9.242188 10.117188 -9.726562 9.515625 -10.09375 C 8.921875 -10.46875 8.273438 -10.65625 7.578125 -10.65625 C 6.898438 -10.65625 6.257812 -10.46875 5.65625 -10.09375 C 5.050781 -9.726562 4.5625 -9.242188 4.1875 -8.640625 C 3.820312 -8.046875 3.640625 -7.40625 3.640625 -6.71875 C 3.640625 -6.03125 3.820312 -5.382812 4.1875 -4.78125 C 4.5625 -4.175781 5.050781 -3.6875 5.65625 -3.3125 C 6.257812 -2.9375 6.898438 -2.75 7.578125 -2.75 C 8.273438 -2.75 8.921875 -2.9375 9.515625 -3.3125 C 10.117188 -3.6875 10.601562 -4.175781 10.96875 -4.78125 C 11.332031 -5.382812 11.515625 -6.03125 11.515625 -6.71875 Z M 14.46875 -6.6875 C 14.46875 -5.769531 14.285156 -4.894531 13.921875 -4.0625 C 13.554688 -3.226562 13.050781 -2.492188 12.40625 -1.859375 C 11.769531 -1.222656 11.039062 -0.71875 10.21875 -0.34375 C 9.394531 0.0195312 8.515625 0.203125 7.578125 0.203125 C 6.660156 0.203125 5.785156 0.0195312 4.953125 -0.34375 C 4.117188 -0.71875 3.382812 -1.222656 2.75 -1.859375 C 2.113281 -2.492188 1.609375 -3.226562 1.234375 -4.0625 C 0.867188 -4.894531 0.6875 -5.769531 0.6875 -6.6875 C 0.6875 -7.625 0.867188 -8.503906 1.234375 -9.328125 C 1.609375 -10.160156 2.113281 -10.894531 2.75 -11.53125 C 3.382812 -12.164062 4.117188 -12.664062 4.953125 -13.03125 C 5.785156 -13.394531 6.660156 -13.578125 7.578125 -13.578125 C 8.515625 -13.578125 9.394531 -13.394531 10.21875 -13.03125 C 11.039062 -12.664062 11.769531 -12.164062 12.40625 -11.53125 C 13.050781 -10.894531 13.554688 -10.160156 13.921875 -9.328125 C 14.285156 -8.503906 14.46875 -7.625 14.46875 -6.6875 Z M 14.46875 -6.6875 "/></g></g></g><g fill="#ffffff" fill-opacity="1"><g transform="translate(154.818418, 227.4279)"><g><path d="M 9 -13.390625 L 11.953125 -13.390625 L 11.953125 -5.21875 C 11.953125 -3.4375 11.460938 -2.085938 10.484375 -1.171875 C 9.515625 -0.253906 8.160156 0.203125 6.421875 0.203125 C 4.671875 0.203125 3.3125 -0.253906 2.34375 -1.171875 C 1.375 -2.085938 0.890625 -3.4375 0.890625 -5.21875 L 0.890625 -13.390625 L 3.84375 -13.390625 L 3.84375 -5.65625 C 3.84375 -4.726562 4.019531 -4.007812 4.375 -3.5 C 4.738281 -3 5.421875 -2.75 6.421875 -2.75 C 7.429688 -2.75 8.113281 -3 8.46875 -3.5 C 8.820312 -4.007812 9 -4.726562 9 -5.65625 Z M 9 -13.390625 "/></g></g></g><g fill="#ffffff" fill-opacity="1"><g transform="translate(171.591179, 227.4279)"><g><path d="M 4.140625 -4.78125 L 4.140625 0 L 1.1875 0 L 1.1875 -13.390625 L 6.203125 -13.390625 C 6.921875 -13.390625 7.59375 -13.207031 8.21875 -12.84375 C 8.84375 -12.476562 9.34375 -11.972656 9.71875 -11.328125 C 10.101562 -10.691406 10.296875 -9.945312 10.296875 -9.09375 C 10.296875 -8.34375 10.15625 -7.675781 9.875 -7.09375 C 9.601562 -6.519531 9.238281 -6.050781 8.78125 -5.6875 C 8.320312 -5.320312 7.8125 -5.066406 7.25 -4.921875 L 11.078125 0 L 7.34375 0 L 4.15625 -4.78125 Z M 5.703125 -11.0625 L 4.140625 -11.0625 L 4.140625 -7.109375 L 5.703125 -7.109375 C 6.140625 -7.109375 6.546875 -7.273438 6.921875 -7.609375 C 7.296875 -7.953125 7.484375 -8.445312 7.484375 -9.09375 C 7.484375 -9.707031 7.296875 -10.1875 6.921875 -10.53125 C 6.546875 -10.882812 6.140625 -11.0625 5.703125 -11.0625 Z M 5.703125 -11.0625 "/></g></g></g><g fill="#ffffff" fill-opacity="1"><g transform="translate(186.375617, 227.4279)"><g/></g></g><g fill="#ffffff" fill-opacity="1"><g transform="translate(195.234467, 227.4279)"><g><path d="M 17.875 -13.390625 L 15.28125 0 L 11.765625 0 L 9 -9.390625 L 6.203125 0 L 2.703125 0 L 0.09375 -13.390625 L 3.34375 -13.390625 L 4.921875 -4.15625 L 7.546875 -13.390625 L 10.4375 -13.390625 L 13.046875 -4.15625 L 14.625 -13.390625 Z M 17.875 -13.390625 "/></g></g></g><g fill="#ffffff" fill-opacity="1"><g transform="translate(217.145356, 227.4279)"><g><path d="M 8.46875 -5.125 L 6.765625 -9.890625 L 5.078125 -5.125 Z M 13.46875 0 L 10.296875 0 L 9.328125 -2.703125 L 4.234375 -2.703125 L 3.265625 0 L 0.09375 0 L 5.53125 -13.390625 L 8.03125 -13.390625 Z M 13.46875 0 "/></g></g></g><g fill="#ffffff" fill-opacity="1"><g transform="translate(234.646513, 227.4279)"><g><path d="M 5.09375 0 L 5.09375 -6.390625 L 0.15625 -13.390625 L 3.6875 -13.390625 L 6.578125 -8.765625 L 9.46875 -13.390625 L 13 -13.390625 L 8.046875 -6.390625 L 8.046875 0 Z M 5.09375 0 "/></g></g></g><path fill="#232323" d="M 72.457031 179.035156 C 73.414062 175.972656 76.269531 174.136719 78.835938 174.9375 L 89.214844 178.171875 C 91.78125 178.972656 93.09375 182.105469 92.132812 185.171875 C 91.183594 188.234375 88.351562 190.070312 85.761719 189.269531 L 80.566406 187.65625 L 75.375 186.035156 C 72.808594 185.261719 71.503906 182.125 72.457031 179.035156 Z M 72.457031 179.035156 " fill-opacity="1" fill-rule="nonzero"/><path fill="#232323" d="M 102.035156 200.109375 C 102.472656 199.5625 103.023438 199.183594 103.6875 198.960938 C 104.347656 198.738281 105.019531 198.714844 105.695312 198.886719 C 118.753906 202.167969 126.359375 198.058594 126.433594 198.015625 C 126.84375 197.792969 127.277344 197.660156 127.742188 197.605469 C 128.203125 197.554688 128.660156 197.59375 129.105469 197.71875 C 129.554688 197.847656 129.960938 198.050781 130.328125 198.339844 C 130.695312 198.625 130.996094 198.96875 131.230469 199.371094 C 131.464844 199.773438 131.613281 200.203125 131.679688 200.664062 C 131.746094 201.125 131.722656 201.578125 131.609375 202.03125 C 131.496094 202.484375 131.304688 202.898438 131.03125 203.273438 C 130.757812 203.648438 130.421875 203.960938 130.027344 204.207031 C 127.734375 205.398438 125.316406 206.210938 122.769531 206.644531 C 116.4375 207.753906 110.164062 207.480469 103.949219 205.820312 C 103.660156 205.746094 103.382812 205.636719 103.121094 205.492188 C 102.859375 205.347656 102.621094 205.171875 102.402344 204.96875 C 102.183594 204.765625 101.992188 204.535156 101.832031 204.285156 C 101.671875 204.03125 101.542969 203.761719 101.449219 203.480469 C 101.355469 203.195312 101.296875 202.902344 101.277344 202.605469 C 101.253906 202.308594 101.269531 202.011719 101.324219 201.714844 C 101.378906 201.421875 101.464844 201.136719 101.589844 200.867188 C 101.714844 200.59375 101.871094 200.339844 102.058594 200.109375 Z M 102.035156 200.109375 " fill-opacity="1" fill-rule="nonzero"/><path fill="#d6d6d4" d="M 152.445312 187.53125 C 152.808594 187.988281 153.152344 188.460938 153.46875 188.949219 C 153.785156 189.441406 154.078125 189.945312 154.347656 190.460938 C 154.617188 190.980469 154.859375 191.511719 155.074219 192.054688 C 155.289062 192.59375 155.480469 193.148438 155.640625 193.707031 C 155.804688 194.269531 155.9375 194.835938 156.042969 195.410156 C 156.148438 195.984375 156.226562 196.558594 156.277344 197.140625 C 156.324219 197.722656 156.347656 198.304688 156.339844 198.890625 C 156.332031 199.472656 156.296875 200.054688 156.230469 200.632812 C 156.164062 201.214844 156.070312 201.789062 155.949219 202.359375 C 155.828125 202.929688 155.679688 203.496094 155.503906 204.050781 C 155.324219 204.605469 155.121094 205.152344 154.890625 205.6875 C 154.660156 206.226562 154.40625 206.75 154.125 207.261719 C 153.839844 207.769531 153.535156 208.265625 153.203125 208.746094 C 152.875 209.226562 152.519531 209.691406 152.144531 210.136719 C 151.769531 210.585938 151.371094 211.011719 150.953125 211.417969 C 150.535156 211.824219 150.097656 212.210938 149.640625 212.574219 C 149.183594 212.9375 148.710938 213.28125 148.222656 213.597656 C 147.734375 213.914062 147.230469 214.207031 146.710938 214.476562 C 146.191406 214.746094 145.664062 214.988281 145.121094 215.203125 C 144.578125 215.417969 144.027344 215.609375 143.46875 215.769531 C 142.90625 215.929688 142.339844 216.066406 141.765625 216.171875 C 141.191406 216.277344 140.613281 216.355469 140.03125 216.40625 C 139.449219 216.453125 138.867188 216.476562 138.285156 216.46875 C 137.703125 216.460938 137.121094 216.421875 136.539062 216.359375 C 135.960938 216.292969 135.382812 216.199219 134.8125 216.078125 C 134.242188 215.957031 133.679688 215.808594 133.125 215.632812 C 132.566406 215.453125 132.019531 215.25 131.484375 215.019531 C 130.949219 214.789062 130.425781 214.535156 129.914062 214.25 C 129.402344 213.96875 128.90625 213.664062 128.425781 213.332031 C 127.945312 213.003906 127.484375 212.648438 127.035156 212.273438 C 126.589844 211.898438 126.164062 211.5 125.757812 211.082031 C 125.347656 210.664062 124.964844 210.226562 124.601562 209.769531 C 124.234375 209.3125 123.894531 208.839844 123.578125 208.351562 C 123.257812 207.863281 122.964844 207.359375 122.699219 206.839844 C 122.429688 206.320312 122.1875 205.792969 121.972656 205.25 C 121.753906 204.707031 121.566406 204.15625 121.40625 203.59375 C 121.242188 203.035156 121.109375 202.46875 121.003906 201.894531 C 120.894531 201.320312 120.820312 200.742188 120.769531 200.160156 C 120.71875 199.578125 120.699219 198.996094 120.707031 198.414062 C 120.714844 197.828125 120.75 197.25 120.816406 196.667969 C 120.878906 196.089844 120.972656 195.511719 121.09375 194.941406 C 121.214844 194.371094 121.367188 193.808594 121.542969 193.253906 C 121.71875 192.695312 121.921875 192.148438 122.152344 191.613281 C 122.382812 191.078125 122.640625 190.554688 122.921875 190.042969 C 123.203125 189.53125 123.511719 189.035156 123.839844 188.554688 C 124.171875 188.074219 124.523438 187.609375 124.902344 187.164062 C 125.277344 186.71875 125.675781 186.292969 126.09375 185.886719 C 126.511719 185.476562 126.949219 185.09375 127.402344 184.726562 C 127.859375 184.363281 128.332031 184.023438 128.824219 183.707031 C 129.3125 183.386719 129.816406 183.09375 130.335938 182.828125 C 130.851562 182.558594 131.382812 182.316406 131.925781 182.101562 C 132.464844 181.882812 133.019531 181.695312 133.578125 181.535156 C 134.140625 181.371094 134.707031 181.238281 135.28125 181.132812 C 135.855469 181.023438 136.433594 180.945312 137.011719 180.898438 C 137.59375 180.847656 138.175781 180.828125 138.761719 180.835938 C 139.34375 180.84375 139.925781 180.878906 140.507812 180.945312 C 141.085938 181.007812 141.660156 181.101562 142.230469 181.222656 C 142.800781 181.34375 143.367188 181.496094 143.921875 181.671875 C 144.476562 181.847656 145.023438 182.050781 145.5625 182.28125 C 146.097656 182.511719 146.621094 182.769531 147.132812 183.050781 C 147.640625 183.332031 148.136719 183.640625 148.617188 183.96875 C 149.101562 184.300781 149.5625 184.652344 150.007812 185.03125 C 150.457031 185.40625 150.882812 185.804688 151.289062 186.222656 C 151.695312 186.640625 152.082031 187.078125 152.445312 187.53125 Z M 152.445312 187.53125 " fill-opacity="1" fill-rule="nonzero"/><path fill="#d6d6d4" d="M 113.5 195.5625 C 113.722656 196.316406 113.90625 197.082031 114.050781 197.855469 C 114.199219 198.628906 114.304688 199.410156 114.375 200.195312 C 114.441406 200.980469 114.472656 201.765625 114.464844 202.554688 C 114.457031 203.339844 114.410156 204.125 114.324219 204.910156 C 114.242188 205.691406 114.117188 206.46875 113.957031 207.242188 C 113.792969 208.011719 113.59375 208.773438 113.359375 209.523438 C 113.121094 210.277344 112.851562 211.015625 112.539062 211.738281 C 112.230469 212.464844 111.886719 213.171875 111.511719 213.863281 C 111.132812 214.554688 110.71875 215.222656 110.277344 215.875 C 109.832031 216.527344 109.355469 217.152344 108.851562 217.757812 C 108.34375 218.359375 107.808594 218.9375 107.246094 219.488281 C 106.683594 220.039062 106.097656 220.5625 105.480469 221.054688 C 104.867188 221.550781 104.230469 222.011719 103.570312 222.441406 C 102.914062 222.875 102.234375 223.273438 101.535156 223.636719 C 100.835938 224 100.121094 224.328125 99.390625 224.625 C 98.660156 224.917969 97.917969 225.175781 97.160156 225.394531 C 96.40625 225.617188 95.640625 225.800781 94.863281 225.945312 C 94.089844 226.09375 93.3125 226.199219 92.527344 226.269531 C 91.742188 226.335938 90.957031 226.367188 90.167969 226.359375 C 89.378906 226.351562 88.59375 226.304688 87.8125 226.21875 C 87.027344 226.136719 86.25 226.011719 85.480469 225.851562 C 84.710938 225.6875 83.949219 225.488281 83.195312 225.253906 C 82.445312 225.015625 81.707031 224.746094 80.980469 224.433594 C 80.257812 224.125 79.550781 223.78125 78.859375 223.40625 C 78.167969 223.027344 77.496094 222.613281 76.847656 222.171875 C 76.195312 221.726562 75.570312 221.25 74.964844 220.746094 C 74.359375 220.238281 73.785156 219.703125 73.230469 219.140625 C 72.679688 218.578125 72.160156 217.992188 71.664062 217.375 C 71.171875 216.761719 70.710938 216.125 70.277344 215.464844 C 69.847656 214.808594 69.449219 214.128906 69.085938 213.429688 C 68.722656 212.730469 68.390625 212.015625 68.097656 211.285156 C 67.804688 210.554688 67.546875 209.8125 67.324219 209.054688 C 67.105469 208.300781 66.921875 207.535156 66.777344 206.757812 C 66.628906 205.984375 66.523438 205.207031 66.453125 204.421875 C 66.382812 203.636719 66.351562 202.851562 66.359375 202.0625 C 66.371094 201.273438 66.414062 200.488281 66.5 199.707031 C 66.585938 198.921875 66.710938 198.144531 66.871094 197.375 C 67.03125 196.605469 67.230469 195.84375 67.46875 195.089844 C 67.703125 194.339844 67.976562 193.601562 68.285156 192.875 C 68.59375 192.152344 68.9375 191.445312 69.316406 190.753906 C 69.695312 190.0625 70.105469 189.390625 70.550781 188.742188 C 70.996094 188.089844 71.46875 187.464844 71.976562 186.859375 C 72.484375 186.253906 73.015625 185.679688 73.578125 185.125 C 74.140625 184.574219 74.730469 184.054688 75.34375 183.558594 C 75.957031 183.066406 76.59375 182.605469 77.253906 182.171875 C 77.914062 181.742188 78.59375 181.34375 79.292969 180.980469 C 79.992188 180.617188 80.707031 180.285156 81.4375 179.992188 C 82.167969 179.699219 82.910156 179.441406 83.667969 179.21875 C 84.421875 179 85.1875 178.816406 85.960938 178.671875 C 86.734375 178.523438 87.515625 178.417969 88.300781 178.347656 C 89.085938 178.277344 89.871094 178.246094 90.660156 178.253906 C 91.445312 178.265625 92.230469 178.308594 93.015625 178.394531 C 93.796875 178.480469 94.574219 178.605469 95.347656 178.765625 C 96.117188 178.925781 96.878906 179.125 97.628906 179.363281 C 98.382812 179.597656 99.121094 179.871094 99.84375 180.179688 C 100.570312 180.488281 101.277344 180.832031 101.96875 181.210938 C 102.660156 181.589844 103.328125 182 103.980469 182.445312 C 104.632812 182.890625 105.257812 183.363281 105.863281 183.871094 C 106.464844 184.378906 107.042969 184.910156 107.59375 185.472656 C 108.144531 186.035156 108.667969 186.625 109.160156 187.238281 C 109.65625 187.851562 110.117188 188.488281 110.546875 189.148438 C 110.980469 189.808594 111.378906 190.488281 111.742188 191.1875 C 112.105469 191.886719 112.433594 192.601562 112.730469 193.332031 C 113.023438 194.0625 113.28125 194.804688 113.5 195.5625 Z M 113.5 195.5625 " fill-opacity="1" fill-rule="nonzero"/><g clip-path="url(#0c9292cc1b)"><path fill="#232323" d="M 55.21875 204.628906 C 56.183594 201.566406 59.148438 199.769531 61.859375 200.605469 L 72.808594 204.023438 C 75.519531 204.867188 76.941406 208.035156 75.960938 211.097656 C 75.011719 214.160156 72.039062 215.964844 69.335938 215.121094 L 63.855469 213.410156 L 58.378906 211.710938 C 55.683594 210.863281 54.292969 207.691406 55.21875 204.628906 Z M 55.21875 204.628906 " fill-opacity="1" fill-rule="nonzero"/></g><path fill="#232323" d="M 58.460938 194.238281 C 59.417969 191.175781 62.382812 189.371094 65.09375 190.214844 L 76.042969 193.625 C 78.75 194.472656 80.175781 197.644531 79.195312 200.707031 C 78.246094 203.769531 75.273438 205.566406 72.5625 204.730469 L 67.109375 202.996094 L 61.632812 201.289062 C 58.925781 200.472656 57.507812 197.320312 58.460938 194.238281 Z M 58.460938 194.238281 " fill-opacity="1" fill-rule="nonzero"/><path fill="#232323" d="M 352.636719 175.488281 C 351.679688 172.421875 348.824219 170.589844 346.257812 171.382812 L 335.878906 174.625 C 333.3125 175.425781 332 178.550781 332.960938 181.621094 C 333.914062 184.6875 336.742188 186.519531 339.335938 185.71875 L 344.53125 184.101562 L 349.71875 182.484375 C 352.285156 181.683594 353.589844 178.550781 352.636719 175.488281 Z M 352.636719 175.488281 " fill-opacity="1" fill-rule="nonzero"/><path fill="#232323" d="M 323.0625 196.53125 C 322.625 195.988281 322.074219 195.605469 321.410156 195.382812 C 320.746094 195.160156 320.078125 195.132812 319.398438 195.304688 C 306.339844 198.59375 298.738281 194.484375 298.660156 194.441406 C 298.25 194.203125 297.8125 194.050781 297.339844 193.988281 C 296.871094 193.925781 296.40625 193.953125 295.949219 194.074219 C 295.488281 194.195312 295.070312 194.402344 294.695312 194.6875 C 294.316406 194.976562 294.011719 195.324219 293.773438 195.734375 C 293.535156 196.144531 293.382812 196.585938 293.320312 197.054688 C 293.257812 197.527344 293.285156 197.988281 293.40625 198.449219 C 293.527344 198.90625 293.734375 199.324219 294.019531 199.703125 C 294.308594 200.078125 294.65625 200.386719 295.066406 200.625 C 297.355469 201.824219 299.777344 202.636719 302.324219 203.066406 C 308.65625 204.171875 314.929688 203.898438 321.144531 202.246094 C 321.433594 202.171875 321.710938 202.0625 321.972656 201.917969 C 322.234375 201.773438 322.476562 201.597656 322.695312 201.394531 C 322.910156 201.1875 323.101562 200.960938 323.261719 200.707031 C 323.425781 200.457031 323.550781 200.1875 323.644531 199.90625 C 323.738281 199.621094 323.796875 199.328125 323.820312 199.03125 C 323.839844 198.730469 323.824219 198.4375 323.769531 198.140625 C 323.71875 197.847656 323.628906 197.5625 323.503906 197.292969 C 323.378906 197.019531 323.222656 196.765625 323.035156 196.53125 Z M 323.0625 196.53125 " fill-opacity="1" fill-rule="nonzero"/><path fill="#d6d6d4" d="M 299.15625 182.464844 C 299.570312 182.875 299.960938 183.308594 300.332031 183.757812 C 300.703125 184.210938 301.050781 184.679688 301.375 185.164062 C 301.699219 185.648438 301.996094 186.148438 302.273438 186.664062 C 302.546875 187.179688 302.796875 187.703125 303.019531 188.242188 C 303.242188 188.78125 303.441406 189.332031 303.609375 189.890625 C 303.777344 190.449219 303.921875 191.015625 304.035156 191.585938 C 304.148438 192.160156 304.234375 192.734375 304.292969 193.316406 C 304.347656 193.898438 304.375 194.480469 304.375 195.0625 C 304.375 195.644531 304.347656 196.226562 304.292969 196.808594 C 304.234375 197.390625 304.148438 197.964844 304.035156 198.539062 C 303.921875 199.109375 303.777344 199.675781 303.609375 200.234375 C 303.441406 200.792969 303.242188 201.34375 303.019531 201.882812 C 302.796875 202.421875 302.546875 202.949219 302.273438 203.460938 C 301.996094 203.976562 301.699219 204.476562 301.375 204.960938 C 301.050781 205.445312 300.703125 205.914062 300.332031 206.367188 C 299.960938 206.816406 299.570312 207.25 299.15625 207.660156 C 298.746094 208.074219 298.3125 208.464844 297.863281 208.835938 C 297.410156 209.207031 296.945312 209.554688 296.457031 209.878906 C 295.972656 210.203125 295.472656 210.5 294.957031 210.777344 C 294.445312 211.050781 293.917969 211.300781 293.378906 211.523438 C 292.839844 211.746094 292.289062 211.945312 291.730469 212.113281 C 291.171875 212.28125 290.609375 212.425781 290.035156 212.539062 C 289.460938 212.652344 288.886719 212.738281 288.304688 212.792969 C 287.726562 212.851562 287.144531 212.878906 286.558594 212.878906 C 285.976562 212.878906 285.394531 212.851562 284.8125 212.792969 C 284.230469 212.738281 283.65625 212.652344 283.082031 212.539062 C 282.511719 212.425781 281.945312 212.28125 281.386719 212.113281 C 280.828125 211.945312 280.28125 211.746094 279.742188 211.523438 C 279.203125 211.300781 278.675781 211.050781 278.160156 210.777344 C 277.644531 210.5 277.144531 210.203125 276.660156 209.878906 C 276.175781 209.554688 275.707031 209.207031 275.253906 208.835938 C 274.804688 208.464844 274.371094 208.074219 273.960938 207.660156 C 273.546875 207.25 273.15625 206.816406 272.785156 206.367188 C 272.414062 205.914062 272.066406 205.445312 271.742188 204.960938 C 271.417969 204.476562 271.121094 203.976562 270.84375 203.460938 C 270.570312 202.945312 270.320312 202.421875 270.097656 201.882812 C 269.875 201.34375 269.675781 200.792969 269.507812 200.234375 C 269.339844 199.675781 269.199219 199.109375 269.082031 198.539062 C 268.96875 197.964844 268.882812 197.390625 268.828125 196.808594 C 268.769531 196.226562 268.742188 195.644531 268.742188 195.0625 C 268.742188 194.480469 268.769531 193.898438 268.828125 193.316406 C 268.882812 192.734375 268.96875 192.160156 269.082031 191.585938 C 269.199219 191.015625 269.339844 190.449219 269.507812 189.890625 C 269.675781 189.332031 269.875 188.78125 270.097656 188.242188 C 270.320312 187.703125 270.570312 187.179688 270.84375 186.664062 C 271.121094 186.148438 271.417969 185.648438 271.742188 185.164062 C 272.066406 184.679688 272.414062 184.210938 272.785156 183.757812 C 273.15625 183.308594 273.546875 182.875 273.960938 182.464844 C 274.371094 182.050781 274.804688 181.660156 275.253906 181.289062 C 275.707031 180.917969 276.175781 180.570312 276.660156 180.246094 C 277.144531 179.921875 277.644531 179.625 278.160156 179.347656 C 278.675781 179.074219 279.203125 178.824219 279.742188 178.601562 C 280.28125 178.378906 280.828125 178.179688 281.386719 178.011719 C 281.945312 177.84375 282.511719 177.699219 283.082031 177.585938 C 283.65625 177.472656 284.230469 177.386719 284.8125 177.332031 C 285.394531 177.273438 285.976562 177.246094 286.558594 177.246094 C 287.144531 177.246094 287.726562 177.273438 288.304688 177.332031 C 288.886719 177.386719 289.460938 177.472656 290.035156 177.585938 C 290.609375 177.699219 291.171875 177.84375 291.730469 178.011719 C 292.289062 178.179688 292.839844 178.378906 293.378906 178.601562 C 293.917969 178.824219 294.445312 179.074219 294.957031 179.347656 C 295.472656 179.625 295.972656 179.921875 296.457031 180.246094 C 296.941406 180.570312 297.410156 180.917969 297.863281 181.289062 C 298.3125 181.660156 298.746094 182.050781 299.15625 182.464844 Z M 299.15625 182.464844 " fill-opacity="1" fill-rule="nonzero"/><path fill="#d6d6d4" d="M 340.128906 175.289062 C 340.898438 175.464844 341.652344 175.683594 342.398438 175.9375 C 343.144531 176.1875 343.875 176.476562 344.59375 176.804688 C 345.3125 177.128906 346.011719 177.488281 346.695312 177.882812 C 347.375 178.277344 348.039062 178.703125 348.675781 179.160156 C 349.316406 179.621094 349.933594 180.109375 350.527344 180.628906 C 351.117188 181.148438 351.683594 181.695312 352.222656 182.269531 C 352.761719 182.847656 353.269531 183.445312 353.75 184.070312 C 354.230469 184.695312 354.675781 185.34375 355.09375 186.011719 C 355.507812 186.679688 355.890625 187.367188 356.238281 188.074219 C 356.585938 188.78125 356.902344 189.503906 357.179688 190.242188 C 357.457031 190.976562 357.695312 191.726562 357.898438 192.488281 C 358.105469 193.25 358.269531 194.019531 358.398438 194.796875 C 358.527344 195.574219 358.617188 196.355469 358.667969 197.140625 C 358.71875 197.925781 358.730469 198.714844 358.707031 199.5 C 358.679688 200.289062 358.617188 201.074219 358.511719 201.855469 C 358.410156 202.636719 358.269531 203.410156 358.089844 204.175781 C 357.910156 204.941406 357.695312 205.699219 357.441406 206.445312 C 357.1875 207.191406 356.898438 207.921875 356.574219 208.640625 C 356.25 209.359375 355.890625 210.058594 355.496094 210.742188 C 355.101562 211.421875 354.675781 212.085938 354.214844 212.722656 C 353.757812 213.363281 353.269531 213.980469 352.75 214.574219 C 352.230469 215.164062 351.683594 215.730469 351.105469 216.269531 C 350.53125 216.808594 349.929688 217.316406 349.304688 217.796875 C 348.679688 218.277344 348.035156 218.722656 347.367188 219.140625 C 346.695312 219.554688 346.007812 219.9375 345.300781 220.285156 C 344.59375 220.632812 343.875 220.945312 343.136719 221.226562 C 342.398438 221.503906 341.648438 221.742188 340.890625 221.945312 C 340.128906 222.152344 339.359375 222.316406 338.582031 222.445312 C 337.804688 222.574219 337.023438 222.664062 336.238281 222.714844 C 335.449219 222.765625 334.664062 222.777344 333.875 222.753906 C 333.089844 222.726562 332.304688 222.664062 331.523438 222.558594 C 330.742188 222.457031 329.96875 222.316406 329.203125 222.136719 C 328.433594 221.957031 327.675781 221.742188 326.929688 221.488281 C 326.1875 221.234375 325.453125 220.945312 324.738281 220.621094 C 324.019531 220.296875 323.320312 219.9375 322.636719 219.542969 C 321.953125 219.148438 321.292969 218.722656 320.652344 218.261719 C 320.011719 217.804688 319.394531 217.316406 318.804688 216.796875 C 318.210938 216.277344 317.648438 215.726562 317.109375 215.152344 C 316.570312 214.578125 316.0625 213.976562 315.582031 213.351562 C 315.101562 212.726562 314.652344 212.082031 314.238281 211.414062 C 313.820312 210.742188 313.441406 210.054688 313.089844 209.347656 C 312.742188 208.640625 312.429688 207.921875 312.152344 207.183594 C 311.875 206.445312 311.632812 205.695312 311.429688 204.9375 C 311.226562 204.175781 311.0625 203.40625 310.933594 202.628906 C 310.804688 201.851562 310.714844 201.070312 310.664062 200.28125 C 310.613281 199.496094 310.597656 198.710938 310.625 197.921875 C 310.652344 197.136719 310.714844 196.351562 310.816406 195.570312 C 310.921875 194.789062 311.0625 194.015625 311.242188 193.246094 C 311.417969 192.480469 311.636719 191.722656 311.890625 190.976562 C 312.140625 190.230469 312.429688 189.5 312.757812 188.78125 C 313.082031 188.066406 313.441406 187.367188 313.835938 186.683594 C 314.230469 186 314.65625 185.339844 315.113281 184.699219 C 315.574219 184.058594 316.0625 183.441406 316.582031 182.851562 C 317.101562 182.257812 317.648438 181.691406 318.222656 181.15625 C 318.800781 180.617188 319.398438 180.105469 320.023438 179.628906 C 320.648438 179.148438 321.296875 178.699219 321.964844 178.285156 C 322.632812 177.867188 323.320312 177.488281 324.027344 177.136719 C 324.734375 176.789062 325.457031 176.476562 326.195312 176.199219 C 326.933594 175.921875 327.679688 175.679688 328.441406 175.476562 C 329.203125 175.273438 329.972656 175.109375 330.75 174.980469 C 331.527344 174.851562 332.308594 174.761719 333.09375 174.710938 C 333.878906 174.660156 334.667969 174.644531 335.453125 174.671875 C 336.242188 174.699219 337.027344 174.761719 337.808594 174.863281 C 338.589844 174.96875 339.363281 175.109375 340.128906 175.289062 Z M 340.128906 175.289062 " fill-opacity="1" fill-rule="nonzero"/><g clip-path="url(#751111fa05)"><path fill="#232323" d="M 369.875 201.054688 C 368.917969 197.988281 365.949219 196.1875 363.242188 197.03125 L 352.292969 200.472656 C 349.582031 201.320312 348.160156 204.488281 349.140625 207.554688 C 350.089844 210.617188 353.058594 212.414062 355.765625 211.578125 L 361.246094 209.867188 L 366.722656 208.160156 C 369.410156 207.28125 370.804688 204.117188 369.875 201.054688 Z M 369.875 201.054688 " fill-opacity="1" fill-rule="nonzero"/></g><path fill="#232323" d="M 366.636719 190.65625 C 365.675781 187.59375 362.714844 185.796875 360.003906 186.632812 L 349.050781 190.050781 C 346.347656 190.898438 344.921875 194.0625 345.898438 197.125 C 346.851562 200.191406 349.820312 201.992188 352.53125 201.148438 L 358.003906 199.441406 L 363.484375 197.738281 C 366.167969 196.890625 367.585938 193.722656 366.636719 190.65625 Z M 366.636719 190.65625 " fill-opacity="1" fill-rule="nonzero"/><path fill="#232323" d="M 229.570312 239.023438 C 229.515625 222.277344 224.664062 187.226562 224.613281 186.875 L 231.703125 185.882812 C 231.902344 187.347656 236.671875 221.765625 236.746094 238.996094 Z M 229.570312 239.023438 " fill-opacity="1" fill-rule="nonzero"/><g clip-path="url(#0d592361ee)"><path fill="#e9e8e4" d="M 246.039062 284.65625 L 227.523438 284.65625 C 226.976562 284.65625 226.429688 284.632812 225.886719 284.578125 C 225.34375 284.523438 224.804688 284.445312 224.269531 284.339844 C 223.734375 284.230469 223.207031 284.097656 222.683594 283.941406 C 222.160156 283.78125 221.648438 283.597656 221.144531 283.390625 C 220.640625 283.179688 220.148438 282.949219 219.664062 282.691406 C 219.183594 282.433594 218.714844 282.152344 218.261719 281.851562 C 217.808594 281.546875 217.371094 281.222656 216.949219 280.875 C 216.527344 280.53125 216.121094 280.164062 215.734375 279.777344 C 215.351562 279.390625 214.984375 278.988281 214.636719 278.566406 C 214.292969 278.144531 213.964844 277.707031 213.664062 277.253906 C 213.359375 276.796875 213.078125 276.332031 212.820312 275.851562 C 212.5625 275.367188 212.332031 274.875 212.121094 274.371094 C 211.914062 273.867188 211.730469 273.355469 211.570312 272.832031 C 211.410156 272.308594 211.28125 271.78125 211.171875 271.246094 C 211.066406 270.710938 210.984375 270.171875 210.933594 269.628906 C 210.878906 269.085938 210.851562 268.539062 210.851562 267.992188 L 210.851562 252.1875 C 210.851562 251.640625 210.878906 251.097656 210.929688 250.554688 C 210.984375 250.011719 211.066406 249.46875 211.171875 248.933594 C 211.277344 248.398438 211.410156 247.871094 211.570312 247.347656 C 211.726562 246.824219 211.910156 246.3125 212.121094 245.808594 C 212.328125 245.304688 212.5625 244.808594 212.820312 244.328125 C 213.078125 243.847656 213.359375 243.378906 213.660156 242.925781 C 213.964844 242.472656 214.289062 242.035156 214.636719 241.613281 C 214.980469 241.191406 215.347656 240.785156 215.734375 240.398438 C 216.121094 240.011719 216.523438 239.648438 216.945312 239.300781 C 217.367188 238.953125 217.804688 238.628906 218.261719 238.328125 C 218.714844 238.023438 219.183594 237.742188 219.664062 237.484375 C 220.144531 237.226562 220.636719 236.996094 221.140625 236.785156 C 221.648438 236.578125 222.160156 236.394531 222.683594 236.234375 C 223.203125 236.078125 223.734375 235.945312 224.269531 235.835938 C 224.804688 235.730469 225.34375 235.652344 225.886719 235.597656 C 226.429688 235.542969 226.976562 235.515625 227.523438 235.515625 C 228.515625 235.515625 229.511719 235.566406 230.5 235.664062 C 231.492188 235.761719 232.472656 235.90625 233.449219 236.101562 C 234.425781 236.296875 235.390625 236.535156 236.34375 236.824219 C 237.296875 237.113281 238.230469 237.449219 239.152344 237.832031 C 240.070312 238.210938 240.96875 238.636719 241.847656 239.105469 C 242.726562 239.574219 243.578125 240.085938 244.40625 240.636719 C 245.234375 241.191406 246.03125 241.785156 246.800781 242.414062 C 247.570312 243.046875 248.308594 243.714844 249.011719 244.417969 C 249.714844 245.121094 250.382812 245.859375 251.011719 246.628906 C 251.644531 247.398438 252.238281 248.195312 252.789062 249.023438 C 253.34375 249.851562 253.855469 250.703125 254.324219 251.582031 C 254.792969 252.460938 255.21875 253.359375 255.597656 254.277344 C 255.980469 255.195312 256.3125 256.132812 256.601562 257.085938 C 256.890625 258.039062 257.132812 259.003906 257.328125 259.976562 C 257.523438 260.953125 257.667969 261.9375 257.765625 262.929688 C 257.863281 263.917969 257.910156 264.910156 257.910156 265.90625 L 257.910156 272.785156 C 257.910156 273.566406 257.835938 274.335938 257.683594 275.101562 C 257.53125 275.867188 257.304688 276.609375 257.007812 277.328125 C 256.710938 278.050781 256.34375 278.734375 255.910156 279.382812 C 255.476562 280.03125 254.984375 280.628906 254.433594 281.179688 C 253.882812 281.730469 253.285156 282.222656 252.636719 282.65625 C 251.988281 283.089844 251.304688 283.457031 250.582031 283.753906 C 249.863281 284.054688 249.121094 284.277344 248.355469 284.429688 C 247.589844 284.582031 246.820312 284.65625 246.039062 284.65625 Z M 246.039062 284.65625 " fill-opacity="1" fill-rule="nonzero"/></g><g clip-path="url(#2ffbcb035e)"><path fill="#0097b2" d="M 220.832031 284.65625 L 247.34375 284.65625 C 247.699219 284.65625 248.050781 284.625 248.398438 284.554688 C 248.746094 284.484375 249.085938 284.382812 249.414062 284.246094 C 249.742188 284.109375 250.050781 283.945312 250.347656 283.746094 C 250.640625 283.550781 250.914062 283.328125 251.164062 283.074219 C 251.417969 282.824219 251.640625 282.550781 251.835938 282.257812 C 252.035156 281.960938 252.199219 281.648438 252.335938 281.324219 C 252.472656 280.996094 252.574219 280.65625 252.644531 280.308594 C 252.714844 279.960938 252.75 279.609375 252.75 279.253906 C 252.75 278.898438 252.714844 278.546875 252.644531 278.199219 C 252.574219 277.851562 252.472656 277.515625 252.335938 277.1875 C 252.199219 276.859375 252.035156 276.546875 251.835938 276.253906 C 251.640625 275.957031 251.417969 275.683594 251.164062 275.433594 C 250.914062 275.183594 250.640625 274.960938 250.347656 274.761719 C 250.050781 274.566406 249.738281 274.398438 249.414062 274.261719 C 249.085938 274.125 248.746094 274.023438 248.398438 273.957031 C 248.050781 273.886719 247.699219 273.851562 247.34375 273.851562 L 225.789062 273.851562 C 225.269531 273.851562 224.757812 273.902344 224.253906 274.003906 C 223.746094 274.101562 223.253906 274.253906 222.777344 274.449219 C 222.300781 274.648438 221.847656 274.890625 221.417969 275.175781 C 220.988281 275.464844 220.589844 275.789062 220.222656 276.15625 C 219.859375 276.519531 219.53125 276.917969 219.246094 277.347656 C 218.957031 277.777344 218.714844 278.230469 218.519531 278.707031 C 218.320312 279.1875 218.171875 279.679688 218.070312 280.183594 C 217.96875 280.691406 217.917969 281.203125 217.917969 281.71875 C 217.917969 282.105469 217.992188 282.480469 218.140625 282.839844 C 218.289062 283.195312 218.5 283.511719 218.769531 283.789062 C 219.042969 284.0625 219.359375 284.277344 219.714844 284.425781 C 220.074219 284.578125 220.445312 284.65625 220.832031 284.65625 Z M 220.832031 284.65625 " fill-opacity="1" fill-rule="nonzero"/></g><path fill="#232323" d="M 186.695312 239.023438 L 179.539062 239.023438 C 179.597656 221.789062 184.363281 187.371094 184.585938 185.910156 L 191.671875 186.898438 C 191.613281 187.234375 186.765625 222.277344 186.695312 239.023438 Z M 186.695312 239.023438 " fill-opacity="1" fill-rule="nonzero"/><g clip-path="url(#e4cd30a388)"><path fill="#e9e8e4" d="M 188.785156 235.511719 C 189.328125 235.511719 189.875 235.539062 190.417969 235.589844 C 190.960938 235.644531 191.5 235.722656 192.035156 235.832031 C 192.570312 235.9375 193.097656 236.070312 193.621094 236.226562 C 194.144531 236.386719 194.65625 236.570312 195.160156 236.777344 C 195.667969 236.988281 196.160156 237.222656 196.640625 237.476562 C 197.121094 237.734375 197.589844 238.015625 198.042969 238.320312 C 198.496094 238.621094 198.933594 238.945312 199.355469 239.292969 C 199.78125 239.640625 200.183594 240.003906 200.570312 240.390625 C 200.957031 240.777344 201.320312 241.179688 201.667969 241.601562 C 202.015625 242.023438 202.339844 242.460938 202.644531 242.917969 C 202.945312 243.371094 203.226562 243.835938 203.484375 244.320312 C 203.742188 244.800781 203.972656 245.292969 204.183594 245.796875 C 204.390625 246.300781 204.578125 246.816406 204.734375 247.335938 C 204.894531 247.859375 205.027344 248.386719 205.132812 248.921875 C 205.238281 249.457031 205.320312 249.996094 205.375 250.542969 C 205.425781 251.085938 205.453125 251.628906 205.453125 252.175781 L 205.453125 267.980469 C 205.453125 268.527344 205.425781 269.070312 205.375 269.617188 C 205.320312 270.160156 205.242188 270.699219 205.132812 271.234375 C 205.027344 271.769531 204.894531 272.296875 204.738281 272.820312 C 204.578125 273.34375 204.394531 273.855469 204.183594 274.359375 C 203.976562 274.867188 203.742188 275.359375 203.484375 275.839844 C 203.226562 276.320312 202.949219 276.789062 202.644531 277.242188 C 202.339844 277.695312 202.015625 278.136719 201.671875 278.558594 C 201.324219 278.980469 200.957031 279.382812 200.570312 279.769531 C 200.1875 280.15625 199.78125 280.519531 199.359375 280.867188 C 198.9375 281.214844 198.5 281.539062 198.046875 281.84375 C 197.589844 282.144531 197.125 282.425781 196.640625 282.683594 C 196.160156 282.941406 195.667969 283.175781 195.164062 283.382812 C 194.660156 283.589844 194.144531 283.777344 193.625 283.933594 C 193.101562 284.09375 192.570312 284.226562 192.035156 284.332031 C 191.5 284.4375 190.960938 284.519531 190.417969 284.570312 C 189.875 284.625 189.328125 284.652344 188.785156 284.652344 L 170.265625 284.652344 C 169.488281 284.652344 168.714844 284.574219 167.949219 284.421875 C 167.183594 284.273438 166.441406 284.046875 165.722656 283.746094 C 165.003906 283.449219 164.320312 283.085938 163.671875 282.652344 C 163.023438 282.21875 162.421875 281.726562 161.871094 281.175781 C 161.320312 280.625 160.828125 280.023438 160.394531 279.375 C 159.960938 278.726562 159.597656 278.042969 159.296875 277.324219 C 159 276.601562 158.773438 275.859375 158.621094 275.09375 C 158.46875 274.332031 158.394531 273.558594 158.394531 272.78125 L 158.394531 265.894531 C 158.394531 264.898438 158.441406 263.90625 158.539062 262.917969 C 158.636719 261.925781 158.785156 260.941406 158.980469 259.964844 C 159.171875 258.992188 159.414062 258.027344 159.703125 257.074219 C 159.992188 256.121094 160.328125 255.1875 160.707031 254.265625 C 161.089844 253.347656 161.515625 252.449219 161.984375 251.570312 C 162.453125 250.695312 162.964844 249.839844 163.519531 249.011719 C 164.070312 248.1875 164.664062 247.386719 165.292969 246.617188 C 165.925781 245.847656 166.59375 245.113281 167.296875 244.410156 C 168 243.707031 168.738281 243.039062 169.507812 242.40625 C 170.277344 241.777344 171.074219 241.183594 171.902344 240.632812 C 172.730469 240.078125 173.582031 239.566406 174.460938 239.097656 C 175.335938 238.628906 176.234375 238.203125 177.15625 237.824219 C 178.074219 237.441406 179.011719 237.109375 179.964844 236.820312 C 180.914062 236.53125 181.878906 236.289062 182.855469 236.09375 C 183.832031 235.898438 184.816406 235.753906 185.804688 235.65625 C 186.796875 235.558594 187.789062 235.511719 188.785156 235.511719 Z M 188.785156 235.511719 " fill-opacity="1" fill-rule="nonzero"/></g><g clip-path="url(#43d6c9d932)"><path fill="#0097b2" d="M 195.472656 284.65625 L 168.953125 284.65625 C 168.601562 284.65625 168.25 284.625 167.902344 284.554688 C 167.550781 284.484375 167.214844 284.382812 166.886719 284.246094 C 166.558594 284.109375 166.246094 283.945312 165.953125 283.746094 C 165.65625 283.550781 165.386719 283.328125 165.132812 283.074219 C 164.882812 282.824219 164.660156 282.550781 164.460938 282.257812 C 164.265625 281.960938 164.097656 281.648438 163.960938 281.324219 C 163.828125 280.996094 163.722656 280.65625 163.65625 280.308594 C 163.585938 279.960938 163.550781 279.609375 163.550781 279.253906 C 163.550781 278.898438 163.585938 278.546875 163.65625 278.199219 C 163.722656 277.851562 163.828125 277.515625 163.960938 277.1875 C 164.097656 276.859375 164.265625 276.546875 164.460938 276.253906 C 164.660156 275.957031 164.882812 275.683594 165.132812 275.433594 C 165.386719 275.183594 165.65625 274.960938 165.953125 274.761719 C 166.246094 274.566406 166.558594 274.398438 166.886719 274.261719 C 167.214844 274.125 167.550781 274.023438 167.902344 273.957031 C 168.25 273.886719 168.601562 273.851562 168.953125 273.851562 L 190.542969 273.851562 C 191.058594 273.851562 191.570312 273.902344 192.078125 274.003906 C 192.585938 274.101562 193.078125 274.253906 193.554688 274.449219 C 194.03125 274.648438 194.484375 274.890625 194.914062 275.175781 C 195.34375 275.464844 195.742188 275.789062 196.105469 276.15625 C 196.472656 276.519531 196.796875 276.917969 197.085938 277.347656 C 197.371094 277.777344 197.613281 278.230469 197.8125 278.707031 C 198.011719 279.1875 198.160156 279.679688 198.261719 280.183594 C 198.359375 280.691406 198.410156 281.203125 198.410156 281.71875 C 198.410156 282.109375 198.335938 282.484375 198.1875 282.84375 C 198.039062 283.203125 197.828125 283.523438 197.550781 283.796875 C 197.277344 284.074219 196.957031 284.285156 196.597656 284.433594 C 196.238281 284.582031 195.863281 284.65625 195.472656 284.65625 Z M 195.472656 284.65625 " fill-opacity="1" fill-rule="nonzero"/></g><path fill="#d6d6d4" d="M 291.757812 143.730469 C 291.605469 158.640625 291.582031 170.726562 306.492188 170.878906 C 307.375 170.886719 308.257812 170.851562 309.140625 170.773438 C 310.019531 170.699219 310.894531 170.578125 311.765625 170.414062 C 312.632812 170.25 313.492188 170.042969 314.339844 169.796875 C 315.191406 169.546875 316.023438 169.257812 316.84375 168.929688 C 317.664062 168.597656 318.46875 168.226562 319.25 167.820312 C 320.035156 167.410156 320.796875 166.964844 321.539062 166.480469 C 322.277344 165.996094 322.992188 165.476562 323.679688 164.925781 C 324.371094 164.371094 325.03125 163.785156 325.664062 163.164062 C 326.292969 162.546875 326.894531 161.898438 327.460938 161.21875 C 328.03125 160.542969 328.5625 159.835938 329.0625 159.109375 C 329.558594 158.378906 330.023438 157.625 330.445312 156.847656 C 330.871094 156.074219 331.257812 155.277344 331.605469 154.464844 C 331.949219 153.652344 332.257812 152.824219 332.523438 151.980469 C 332.789062 151.136719 333.011719 150.28125 333.191406 149.417969 C 333.375 148.550781 333.511719 147.679688 333.605469 146.800781 C 333.703125 145.921875 333.753906 145.039062 333.765625 144.15625 C 333.773438 143.269531 333.738281 142.386719 333.660156 141.507812 C 333.582031 140.625 333.460938 139.75 333.296875 138.882812 C 333.136719 138.011719 332.929688 137.152344 332.679688 136.304688 C 332.433594 135.457031 332.144531 134.621094 331.8125 133.800781 C 331.484375 132.980469 331.113281 132.179688 330.707031 131.394531 C 330.296875 130.609375 329.851562 129.847656 329.367188 129.109375 C 328.882812 128.367188 328.363281 127.652344 327.808594 126.964844 C 327.253906 126.277344 326.667969 125.613281 326.050781 124.984375 C 325.429688 124.351562 324.785156 123.753906 324.105469 123.183594 C 323.425781 122.617188 322.722656 122.082031 321.992188 121.585938 C 321.261719 121.085938 320.511719 120.625 319.734375 120.199219 C 318.960938 119.773438 318.164062 119.390625 317.351562 119.042969 C 316.539062 118.695312 315.710938 118.390625 314.867188 118.125 C 314.023438 117.859375 313.167969 117.636719 312.300781 117.453125 C 311.4375 117.273438 310.5625 117.132812 309.683594 117.039062 C 308.804688 116.945312 307.925781 116.890625 307.039062 116.882812 C 292.128906 116.710938 291.910156 128.796875 291.757812 143.730469 Z M 291.757812 143.730469 " fill-opacity="1" fill-rule="nonzero"/><path fill="#d6d6d4" d="M 129.953125 142.082031 C 129.800781 156.996094 129.585938 169.082031 114.675781 168.929688 C 113.789062 168.921875 112.910156 168.867188 112.03125 168.773438 C 111.152344 168.679688 110.277344 168.539062 109.414062 168.359375 C 108.546875 168.175781 107.691406 167.953125 106.847656 167.6875 C 106.007812 167.421875 105.175781 167.117188 104.363281 166.769531 C 103.550781 166.425781 102.753906 166.039062 101.980469 165.613281 C 101.203125 165.191406 100.453125 164.726562 99.722656 164.230469 C 98.992188 163.730469 98.285156 163.199219 97.609375 162.628906 C 96.929688 162.0625 96.28125 161.460938 95.664062 160.832031 C 95.046875 160.199219 94.457031 159.539062 93.90625 158.851562 C 93.351562 158.160156 92.832031 157.445312 92.347656 156.707031 C 91.863281 155.964844 91.417969 155.203125 91.007812 154.417969 C 90.597656 153.636719 90.230469 152.832031 89.898438 152.011719 C 89.570312 151.191406 89.28125 150.359375 89.03125 149.507812 C 88.785156 148.660156 88.578125 147.800781 88.414062 146.933594 C 88.25 146.0625 88.128906 145.1875 88.050781 144.308594 C 87.972656 143.425781 87.9375 142.546875 87.949219 141.660156 C 87.957031 140.777344 88.007812 139.894531 88.105469 139.015625 C 88.199219 138.136719 88.339844 137.265625 88.519531 136.398438 C 88.699219 135.535156 88.925781 134.679688 89.1875 133.835938 C 89.453125 132.992188 89.761719 132.164062 90.105469 131.351562 C 90.453125 130.535156 90.839844 129.742188 91.265625 128.964844 C 91.6875 128.191406 92.148438 127.4375 92.648438 126.707031 C 93.148438 125.976562 93.679688 125.273438 94.25 124.59375 C 94.816406 123.917969 95.414062 123.269531 96.046875 122.648438 C 96.679688 122.03125 97.339844 121.445312 98.027344 120.890625 C 98.71875 120.335938 99.433594 119.816406 100.171875 119.332031 C 100.914062 118.847656 101.675781 118.402344 102.457031 117.992188 C 103.242188 117.585938 104.042969 117.214844 104.863281 116.886719 C 105.683594 116.554688 106.519531 116.265625 107.367188 116.019531 C 108.21875 115.769531 109.074219 115.5625 109.945312 115.398438 C 110.8125 115.234375 111.6875 115.113281 112.570312 115.039062 C 113.449219 114.960938 114.332031 114.925781 115.21875 114.933594 C 130.117188 115.085938 130.089844 127.171875 129.953125 142.082031 Z M 129.953125 142.082031 " fill-opacity="1" fill-rule="nonzero"/><path fill="#e9e8e4" d="M 105.742188 136.914062 L 105.644531 146.769531 C 105.636719 147.875 105.652344 148.976562 105.695312 150.082031 C 105.738281 151.1875 105.808594 152.289062 105.90625 153.390625 C 106.003906 154.492188 106.128906 155.589844 106.28125 156.683594 C 106.429688 157.777344 106.609375 158.871094 106.8125 159.957031 C 107.019531 161.042969 107.25 162.121094 107.507812 163.199219 C 107.765625 164.273438 108.050781 165.339844 108.359375 166.402344 C 108.671875 167.460938 109.007812 168.515625 109.371094 169.558594 C 109.730469 170.601562 110.117188 171.636719 110.53125 172.664062 C 110.945312 173.6875 111.382812 174.703125 111.84375 175.707031 C 112.308594 176.710938 112.792969 177.703125 113.304688 178.683594 C 113.816406 179.660156 114.351562 180.628906 114.910156 181.582031 C 115.46875 182.535156 116.050781 183.476562 116.65625 184.402344 C 117.261719 185.324219 117.890625 186.234375 118.539062 187.128906 C 119.1875 188.023438 119.859375 188.902344 120.550781 189.761719 C 121.246094 190.625 121.957031 191.46875 122.691406 192.292969 C 123.425781 193.121094 124.179688 193.929688 124.953125 194.71875 C 125.726562 195.507812 126.519531 196.277344 127.332031 197.027344 C 128.144531 197.777344 128.972656 198.507812 129.820312 199.21875 C 130.667969 199.925781 131.53125 200.617188 132.414062 201.28125 C 133.292969 201.949219 134.191406 202.59375 135.105469 203.21875 C 136.015625 203.839844 136.945312 204.441406 137.886719 205.019531 C 138.828125 205.597656 139.785156 206.152344 140.753906 206.683594 C 141.722656 207.214844 142.707031 207.71875 143.699219 208.203125 C 144.695312 208.683594 145.699219 209.144531 146.71875 209.574219 C 147.734375 210.007812 148.761719 210.417969 149.796875 210.800781 C 150.835938 211.183594 151.882812 211.539062 152.9375 211.871094 C 153.988281 212.203125 155.050781 212.507812 156.121094 212.785156 C 157.191406 213.066406 158.265625 213.320312 159.347656 213.546875 C 160.429688 213.773438 161.515625 213.972656 162.609375 214.144531 C 163.699219 214.316406 164.796875 214.464844 165.894531 214.582031 C 166.992188 214.703125 168.09375 214.796875 169.199219 214.859375 C 170.300781 214.925781 171.40625 214.964844 172.511719 214.976562 L 247.730469 215.730469 C 248.835938 215.742188 249.9375 215.726562 251.042969 215.683594 C 252.148438 215.640625 253.25 215.570312 254.351562 215.472656 C 255.453125 215.375 256.550781 215.25 257.644531 215.101562 C 258.742188 214.949219 259.832031 214.769531 260.917969 214.566406 C 262.003906 214.363281 263.085938 214.128906 264.160156 213.871094 C 265.234375 213.613281 266.300781 213.332031 267.363281 213.019531 C 268.421875 212.710938 269.476562 212.375 270.519531 212.011719 C 271.566406 211.652344 272.601562 211.265625 273.625 210.851562 C 274.652344 210.4375 275.664062 210 276.667969 209.539062 C 277.671875 209.074219 278.664062 208.589844 279.644531 208.078125 C 280.625 207.566406 281.59375 207.03125 282.546875 206.472656 C 283.5 205.914062 284.4375 205.332031 285.363281 204.726562 C 286.289062 204.125 287.199219 203.496094 288.09375 202.847656 C 288.988281 202.199219 289.867188 201.527344 290.726562 200.835938 C 291.589844 200.140625 292.433594 199.429688 293.257812 198.695312 C 294.085938 197.960938 294.894531 197.207031 295.683594 196.433594 C 296.472656 195.660156 297.242188 194.867188 297.992188 194.054688 C 298.742188 193.242188 299.472656 192.414062 300.183594 191.566406 C 300.894531 190.71875 301.582031 189.855469 302.25 188.976562 C 302.917969 188.09375 303.5625 187.195312 304.1875 186.285156 C 304.808594 185.371094 305.410156 184.445312 305.988281 183.5 C 306.566406 182.558594 307.121094 181.605469 307.652344 180.632812 C 308.179688 179.664062 308.6875 178.683594 309.171875 177.6875 C 309.652344 176.695312 310.113281 175.6875 310.546875 174.671875 C 310.976562 173.65625 311.386719 172.628906 311.769531 171.589844 C 312.152344 170.554688 312.507812 169.507812 312.839844 168.453125 C 313.171875 167.398438 313.476562 166.339844 313.757812 165.269531 C 314.039062 164.199219 314.289062 163.125 314.515625 162.042969 C 314.742188 160.960938 314.945312 159.875 315.117188 158.78125 C 315.289062 157.691406 315.4375 156.59375 315.554688 155.496094 C 315.675781 154.398438 315.769531 153.296875 315.835938 152.191406 C 315.898438 151.089844 315.9375 149.984375 315.949219 148.878906 L 316.050781 139.023438 C 316.0625 137.921875 316.046875 136.816406 316.003906 135.710938 C 315.960938 134.605469 315.890625 133.503906 315.792969 132.402344 C 315.695312 131.300781 315.570312 130.203125 315.417969 129.109375 C 315.269531 128.015625 315.089844 126.925781 314.886719 125.839844 C 314.679688 124.753906 314.449219 123.671875 314.191406 122.597656 C 313.933594 121.523438 313.652344 120.457031 313.339844 119.394531 C 313.03125 118.332031 312.695312 117.28125 312.332031 116.238281 C 311.972656 115.191406 311.585938 114.15625 311.171875 113.132812 C 310.757812 112.105469 310.320312 111.09375 309.859375 110.089844 C 309.398438 109.085938 308.910156 108.09375 308.398438 107.113281 C 307.886719 106.132812 307.355469 105.167969 306.796875 104.214844 C 306.238281 103.257812 305.65625 102.320312 305.050781 101.394531 C 304.445312 100.46875 303.820312 99.558594 303.171875 98.664062 C 302.519531 97.769531 301.851562 96.894531 301.15625 96.03125 C 300.464844 95.171875 299.753906 94.328125 299.019531 93.5 C 298.285156 92.671875 297.53125 91.867188 296.757812 91.074219 C 295.984375 90.285156 295.191406 89.515625 294.382812 88.765625 C 293.570312 88.015625 292.742188 87.285156 291.894531 86.574219 C 291.046875 85.863281 290.183594 85.175781 289.304688 84.507812 C 288.421875 83.839844 287.523438 83.195312 286.613281 82.574219 C 285.699219 81.949219 284.773438 81.347656 283.832031 80.769531 C 282.890625 80.191406 281.933594 79.636719 280.964844 79.105469 C 279.996094 78.574219 279.015625 78.070312 278.019531 77.585938 C 277.027344 77.101562 276.019531 76.644531 275.003906 76.210938 C 273.988281 75.777344 272.960938 75.367188 271.925781 74.984375 C 270.886719 74.601562 269.84375 74.246094 268.789062 73.914062 C 267.734375 73.582031 266.671875 73.277344 265.601562 72.996094 C 264.535156 72.714844 263.457031 72.460938 262.375 72.234375 C 261.296875 72.007812 260.207031 71.808594 259.117188 71.632812 C 258.027344 71.460938 256.929688 71.3125 255.832031 71.195312 C 254.734375 71.074219 253.632812 70.980469 252.53125 70.914062 C 251.425781 70.847656 250.324219 70.8125 249.21875 70.800781 L 174 70.042969 C 172.894531 70.03125 171.789062 70.046875 170.683594 70.089844 C 169.578125 70.132812 168.472656 70.203125 167.371094 70.296875 C 166.269531 70.394531 165.171875 70.519531 164.078125 70.671875 C 162.980469 70.820312 161.890625 71 160.804688 71.203125 C 159.714844 71.40625 158.636719 71.640625 157.558594 71.898438 C 156.484375 72.152344 155.417969 72.4375 154.355469 72.75 C 153.292969 73.058594 152.238281 73.394531 151.195312 73.753906 C 150.148438 74.117188 149.113281 74.503906 148.089844 74.917969 C 147.0625 75.328125 146.046875 75.765625 145.042969 76.230469 C 144.039062 76.691406 143.046875 77.179688 142.066406 77.691406 C 141.085938 78.203125 140.117188 78.738281 139.164062 79.296875 C 138.207031 79.855469 137.269531 80.4375 136.34375 81.039062 C 135.417969 81.644531 134.507812 82.273438 133.613281 82.921875 C 132.714844 83.570312 131.839844 84.242188 130.976562 84.9375 C 130.113281 85.628906 129.269531 86.34375 128.441406 87.074219 C 127.617188 87.808594 126.808594 88.5625 126.015625 89.339844 C 125.226562 90.113281 124.457031 90.90625 123.707031 91.714844 C 122.957031 92.527344 122.222656 93.359375 121.515625 94.207031 C 120.804688 95.054688 120.113281 95.917969 119.445312 96.800781 C 118.777344 97.679688 118.132812 98.578125 117.507812 99.492188 C 116.886719 100.402344 116.285156 101.332031 115.707031 102.273438 C 115.128906 103.21875 114.574219 104.171875 114.042969 105.144531 C 113.511719 106.113281 113.003906 107.09375 112.519531 108.089844 C 112.039062 109.085938 111.582031 110.089844 111.148438 111.109375 C 110.714844 112.125 110.304688 113.152344 109.921875 114.191406 C 109.539062 115.226562 109.179688 116.273438 108.847656 117.328125 C 108.515625 118.382812 108.210938 119.445312 107.933594 120.515625 C 107.652344 121.585938 107.398438 122.664062 107.171875 123.746094 C 106.945312 124.828125 106.746094 125.914062 106.574219 127.007812 C 106.398438 128.097656 106.253906 129.195312 106.132812 130.292969 C 106.015625 131.394531 105.921875 132.496094 105.855469 133.597656 C 105.789062 134.703125 105.753906 135.808594 105.742188 136.914062 Z M 105.742188 136.914062 " fill-opacity="1" fill-rule="nonzero"/><path fill="#d6d6d4" d="M 166.242188 187.402344 L 254.550781 188.292969 C 255.523438 188.300781 256.484375 188.21875 257.441406 188.035156 C 258.394531 187.855469 259.320312 187.585938 260.222656 187.222656 C 261.125 186.859375 261.980469 186.414062 262.792969 185.878906 C 263.605469 185.347656 264.359375 184.742188 265.054688 184.0625 C 265.746094 183.382812 266.367188 182.640625 266.914062 181.839844 C 267.460938 181.039062 267.925781 180.1875 268.304688 179.296875 C 268.6875 178.402344 268.976562 177.480469 269.175781 176.527344 C 269.375 175.578125 269.476562 174.617188 269.488281 173.644531 L 270.003906 122.234375 C 270.015625 121.265625 269.929688 120.300781 269.75 119.347656 C 269.570312 118.390625 269.300781 117.464844 268.9375 116.5625 C 268.574219 115.660156 268.128906 114.804688 267.597656 113.992188 C 267.066406 113.179688 266.460938 112.425781 265.78125 111.730469 C 265.101562 111.039062 264.359375 110.417969 263.558594 109.867188 C 262.753906 109.320312 261.90625 108.855469 261.015625 108.476562 C 260.121094 108.09375 259.199219 107.804688 258.246094 107.605469 C 257.296875 107.40625 256.335938 107.300781 255.363281 107.292969 L 197.722656 106.710938 L 167.058594 106.402344 C 166.085938 106.394531 165.125 106.480469 164.171875 106.660156 C 163.21875 106.839844 162.289062 107.109375 161.390625 107.472656 C 160.488281 107.832031 159.632812 108.28125 158.820312 108.8125 C 158.007812 109.34375 157.253906 109.945312 156.5625 110.625 C 155.867188 111.304688 155.246094 112.046875 154.699219 112.847656 C 154.152344 113.648438 153.6875 114.496094 153.308594 115.386719 C 152.925781 116.28125 152.636719 117.199219 152.4375 118.152344 C 152.234375 119.101562 152.132812 120.058594 152.121094 121.03125 L 151.601562 172.441406 C 151.59375 173.414062 151.675781 174.378906 151.855469 175.332031 C 152.035156 176.289062 152.304688 177.21875 152.664062 178.121094 C 153.027344 179.023438 153.472656 179.878906 154.003906 180.695312 C 154.535156 181.507812 155.140625 182.261719 155.820312 182.957031 C 156.5 183.652344 157.242188 184.273438 158.046875 184.824219 C 158.847656 185.371094 159.695312 185.835938 160.589844 186.21875 C 161.484375 186.597656 162.40625 186.890625 163.359375 187.089844 C 164.308594 187.289062 165.273438 187.394531 166.242188 187.402344 Z M 166.242188 187.402344 " fill-opacity="1" fill-rule="nonzero"/><path fill="#232323" d="M 166.289062 182.953125 L 254.59375 183.839844 C 255.566406 183.851562 256.53125 183.765625 257.484375 183.585938 C 258.4375 183.40625 259.367188 183.132812 260.265625 182.769531 C 261.167969 182.40625 262.023438 181.960938 262.835938 181.429688 C 263.652344 180.898438 264.402344 180.292969 265.097656 179.613281 C 265.789062 178.929688 266.410156 178.191406 266.957031 177.386719 C 267.507812 176.585938 267.96875 175.738281 268.351562 174.84375 C 268.730469 173.949219 269.019531 173.027344 269.21875 172.078125 C 269.417969 171.125 269.523438 170.164062 269.53125 169.195312 L 270.050781 117.785156 C 270.058594 116.8125 269.972656 115.851562 269.792969 114.898438 C 269.613281 113.941406 269.34375 113.015625 268.980469 112.113281 C 268.621094 111.214844 268.175781 110.355469 267.644531 109.542969 C 267.113281 108.730469 266.507812 107.976562 265.828125 107.285156 C 265.148438 106.589844 264.410156 105.96875 263.609375 105.421875 C 262.804688 104.875 261.960938 104.410156 261.066406 104.027344 C 260.171875 103.648438 259.253906 103.355469 258.300781 103.15625 C 257.351562 102.957031 256.390625 102.851562 255.421875 102.839844 L 197.78125 102.261719 L 167.113281 101.953125 C 166.140625 101.941406 165.175781 102.027344 164.222656 102.207031 C 163.265625 102.386719 162.335938 102.65625 161.433594 103.019531 C 160.53125 103.382812 159.671875 103.832031 158.859375 104.363281 C 158.046875 104.894531 157.292969 105.503906 156.597656 106.183594 C 155.902344 106.863281 155.28125 107.605469 154.734375 108.410156 C 154.1875 109.214844 153.722656 110.0625 153.339844 110.960938 C 152.960938 111.855469 152.671875 112.777344 152.472656 113.730469 C 152.277344 114.683594 152.171875 115.644531 152.164062 116.617188 L 151.648438 168.035156 C 151.640625 169.003906 151.726562 169.964844 151.90625 170.917969 C 152.085938 171.871094 152.359375 172.800781 152.722656 173.699219 C 153.085938 174.597656 153.53125 175.453125 154.066406 176.265625 C 154.597656 177.078125 155.203125 177.828125 155.882812 178.523438 C 156.5625 179.214844 157.300781 179.835938 158.101562 180.378906 C 158.90625 180.925781 159.75 181.390625 160.644531 181.769531 C 161.539062 182.152344 162.457031 182.441406 163.40625 182.640625 C 164.359375 182.839844 165.316406 182.941406 166.289062 182.953125 Z M 166.289062 182.953125 " fill-opacity="1" fill-rule="nonzero"/><path fill="#d6d6d4" d="M 179.132812 70.097656 C 179.878906 71.386719 180.714844 72.621094 181.628906 73.796875 C 182.542969 74.976562 183.53125 76.085938 184.597656 77.132812 C 185.660156 78.175781 186.789062 79.144531 187.980469 80.039062 C 189.175781 80.933594 190.421875 81.746094 191.726562 82.472656 C 193.027344 83.199219 194.371094 83.835938 195.757812 84.382812 C 197.144531 84.929688 198.5625 85.382812 200.011719 85.738281 C 201.457031 86.09375 202.921875 86.355469 204.40625 86.515625 C 205.886719 86.675781 207.375 86.738281 208.867188 86.699219 C 230.070312 86.492188 235.78125 70.667969 235.78125 70.667969 Z M 179.132812 70.097656 " fill-opacity="1" fill-rule="nonzero"/><g clip-path="url(#93739493bc)"><path fill="#0097b2" d="M 252.550781 6.378906 C 214.917969 15.839844 206.269531 34.4375 204.78125 46.140625 C 200.007812 38.347656 188.675781 29.027344 161.847656 31.191406 C 161.597656 31.210938 161.351562 31.261719 161.109375 31.339844 C 160.871094 31.417969 160.640625 31.519531 160.425781 31.652344 C 160.210938 31.785156 160.011719 31.9375 159.832031 32.117188 C 159.652344 32.292969 159.496094 32.492188 159.363281 32.703125 C 159.226562 32.917969 159.121094 33.144531 159.039062 33.386719 C 158.957031 33.625 158.90625 33.871094 158.882812 34.121094 C 158.859375 34.375 158.867188 34.625 158.902344 34.875 C 158.9375 35.125 159 35.367188 159.09375 35.605469 C 163.167969 45.90625 176.375 71.601562 203.195312 58.625 C 202.917969 63.789062 203.128906 68.933594 203.828125 74.058594 C 203.863281 74.324219 203.921875 74.585938 204.007812 74.839844 C 204.097656 75.09375 204.207031 75.335938 204.34375 75.566406 C 204.480469 75.796875 204.636719 76.015625 204.816406 76.214844 C 204.996094 76.414062 205.195312 76.59375 205.410156 76.75 C 205.625 76.910156 205.855469 77.046875 206.097656 77.160156 C 206.34375 77.273438 206.59375 77.363281 206.855469 77.425781 C 207.117188 77.484375 207.382812 77.523438 207.648438 77.53125 C 207.917969 77.539062 208.183594 77.519531 208.449219 77.476562 C 208.957031 77.390625 209.433594 77.210938 209.875 76.941406 C 210.316406 76.671875 210.691406 76.332031 210.996094 75.914062 C 211.304688 75.5 211.523438 75.042969 211.65625 74.542969 C 211.785156 74.042969 211.820312 73.539062 211.753906 73.023438 C 211.042969 67.925781 210.886719 62.8125 211.285156 57.679688 C 251.953125 63.207031 256.265625 22.929688 256.585938 9.609375 C 256.59375 9.359375 256.570312 9.113281 256.519531 8.867188 C 256.46875 8.621094 256.390625 8.386719 256.285156 8.160156 C 256.179688 7.933594 256.050781 7.722656 255.894531 7.523438 C 255.742188 7.328125 255.566406 7.152344 255.371094 6.996094 C 255.175781 6.839844 254.964844 6.707031 254.738281 6.597656 C 254.511719 6.492188 254.277344 6.410156 254.035156 6.359375 C 253.789062 6.304688 253.542969 6.28125 253.292969 6.285156 C 253.042969 6.289062 252.796875 6.320312 252.550781 6.378906 Z M 252.550781 6.378906 " fill-opacity="1" fill-rule="nonzero"/></g><path fill="#e9e8e4" d="M 178.089844 138.929688 L 178.402344 136.082031 L 203.429688 138.816406 L 203.117188 141.660156 Z M 178.089844 138.929688 " fill-opacity="1" fill-rule="nonzero"/><path fill="#e9e8e4" d="M 214.816406 138.832031 L 239.84375 136.101562 L 240.152344 138.945312 L 215.125 141.679688 Z M 214.816406 138.832031 " fill-opacity="1" fill-rule="nonzero"/><path fill="#e9e8e4" d="M 214.476562 154.367188 C 214.539062 157.5625 212.585938 160.191406 210.0625 160.242188 C 207.542969 160.292969 205.484375 157.71875 205.421875 154.535156 C 205.359375 151.351562 207.347656 148.710938 209.835938 148.660156 C 212.328125 148.609375 214.4375 151.167969 214.476562 154.367188 Z M 214.476562 154.367188 " fill-opacity="1" fill-rule="nonzero"/></svg>